<?xml version="1.0" encoding="UTF-8"?>
<!DOCTYPE svg PUBLIC "-//W3C//DTD SVG 1.1//EN" "http://www.w3.org/Graphics/SVG/1.1/DTD/svg11.dtd">
<!-- Creator: CorelDRAW Home & Student X8 -->
<svg xmlns="http://www.w3.org/2000/svg" xml:space="preserve" width="887.574mm" height="546.566mm" version="1.1" style="shape-rendering:geometricPrecision; text-rendering:geometricPrecision; image-rendering:optimizeQuality; fill-rule:evenodd; clip-rule:evenodd"
viewBox="0 0 123094 75801"
 xmlns:xlink="http://www.w3.org/1999/xlink">
 <defs>
  <style type="text/css">
   <![CDATA[
    .str0 {stroke:black;stroke-width:10.5679}
    .fil1 {fill:#112024}
    .fil3 {fill:#595959}
    .fil0 {fill:#915B03}
    .fil2 {fill:#915B03;fill-rule:nonzero}
   ]]>
  </style>
   <mask id="id0">
  <linearGradient id="id1" gradientUnits="userSpaceOnUse" x1="99201" y1="52229.5" x2="131074" y2="80095.1">
   <stop offset="0" style="stop-opacity:0.109804; stop-color:white"/>
   <stop offset="0.278431" style="stop-opacity:-127.055; stop-color:white"/>
   <stop offset="1" style="stop-opacity:0; stop-color:white"/>
  </linearGradient>
    <rect style="fill:url(#id1)" y="1015" width="122964" height="45950"/>
   </mask>
 </defs>
 <g id="Layer_x0020_1">
  <metadata id="CorelCorpID_0Corel-Layer"/>
  <path class="fil0 str0" d="M61612 5c33953,0 61477,16967 61477,37896 0,20929 -27524,37895 -61477,37895 -33953,0 -61477,-16966 -61477,-37895 0,-20929 27524,-37896 61477,-37896z"/>
  <path class="fil1" d="M61549 2068c32579,0 58990,16067 58990,35886 0,19819 -26411,35886 -58990,35886 -32579,0 -58989,-16067 -58989,-35886 0,-19819 26410,-35886 58989,-35886z"/>
  <g id="_257837928">
   <path class="fil0" d="M10749 29455l0 5c1,105 20,109 41,199 280,65 556,-250 813,-456l1567 -1217c144,-107 246,-195 392,-304 147,-108 247,-234 422,-274 -45,165 -200,217 -318,337l-682 628c-166,128 -218,202 -361,335l-1055 951c-301,230 -469,539 -173,510 150,-15 466,-378 571,-480l2222 -1995 158 130c-192,291 -2737,2386 -2737,2572 0,466 730,-323 848,-421 130,-109 204,-219 333,-322 159,-126 221,-188 364,-332 130,-131 220,-175 349,-306l703 -649c140,-108 219,-257 392,-303 28,119 -5,59 82,122 -114,170 -192,189 -338,318l-1208 1125c-82,72 -102,72 -184,144 -127,112 -194,212 -335,320 -157,122 -204,185 -340,315 -99,96 -338,223 -338,358 0,547 932,-521 1095,-665l1126 -1003c147,-141 606,-623 767,-666l88 118c-65,220 -1151,1089 -1388,1324l-700 652c-175,140 -613,484 -661,690 30,20 30,17 73,49 47,35 57,44 91,74 330,-175 1055,-979 1409,-1252 312,-240 551,-529 855,-783 150,-125 399,-419 561,-463l118 88c-37,151 -176,252 -294,351l-2148 1946c-142,145 -277,166 -296,399 173,117 277,36 420,-112l2439 -2234c127,-92 103,-48 211,13 -70,264 -474,490 -665,686 -60,61 -100,106 -166,162l-878 799c-245,215 -1013,799 -1034,1055 281,188 366,-57 870,-523l1575 -1413c186,-156 343,-345 544,-480 79,119 83,55 123,205 -149,40 -1521,1340 -1729,1546 -148,147 -1014,822 -1014,992 0,435 648,-260 726,-338l2221 -1995 173 154c-178,123 -221,157 -367,306 -132,136 -221,184 -349,307l-1708 1566c-221,169 -515,533 -205,533 94,0 1199,-1011 1422,-1239 147,-149 1306,-1222 1444,-1259 32,121 16,67 82,164 -264,177 -485,426 -725,626 -130,109 -204,219 -334,322l-1080 966c-127,112 -195,213 -335,321 -175,134 -269,150 -269,426 227,53 219,27 419,-153l1823 -1658c143,-132 195,-207 361,-335 142,-110 206,-262 385,-310l88 118c-40,139 -562,594 -702,701l-726 665c-179,181 -1233,1066 -1285,1179 -97,208 106,335 486,-53l2104 -1908c138,-110 221,-239 363,-334l130 158c-94,135 -212,240 -335,334l-1801 1637c-147,112 -221,218 -359,337 -130,113 -315,190 -214,400 191,92 277,-48 399,-174l2170 -1965c125,-115 202,-270 378,-317l74 90c-43,191 -1152,1130 -1372,1314l-1236 1138c-100,89 -111,50 -127,242 215,144 251,58 420,-113l2569 -2303 114 132c-224,339 -689,650 -1005,942l-1064 984c-109,111 -1037,808 -502,808 140,0 1531,-1368 1744,-1532 367,-284 653,-665 1040,-924l158 129c-172,242 -816,733 -1090,986 -208,193 -1624,1443 -1660,1571 -51,181 115,257 331,47 87,-83 93,-79 179,-148l1049 -958c207,-210 1270,-1213 1443,-1259 32,121 16,66 82,164l-2140 1913c-373,377 -603,404 -603,748 250,58 199,19 415,-158 397,-323 1426,-1357 1819,-1661 188,-145 533,-578 754,-637l88 117c-61,210 -1437,1331 -1736,1632 -247,249 -953,776 -1013,1035 240,160 353,-1 543,-195 60,-61 100,-107 165,-162l1575 -1414c227,-210 452,-475 706,-645l130 157 -2072 1914c-157,121 -204,184 -340,315 -99,95 -338,222 -338,357 0,489 684,-287 737,-327 359,-275 1379,-1299 1848,-1673 139,-111 218,-284 403,-334l74 90c-48,212 -1156,1092 -1395,1333l-1083 1004c-126,118 -317,188 -216,398 191,92 278,-48 399,-173 463,-479 1302,-1131 1781,-1618l727 -665 157 130c-148,224 -448,424 -658,638 -131,133 -223,180 -349,306 -255,253 -1729,1515 -1729,1669 0,383 507,-155 526,-170l1715 -1560c143,-145 578,-564 747,-604l74 90c-35,155 -176,240 -288,351l-1781 1617c-176,178 -603,451 -666,685 251,265 364,-26 579,-198 76,-61 119,-109 189,-180l753 -680c136,-109 220,-231 356,-340l545 -479c189,-151 362,-432 608,-497 32,121 16,66 82,163 -323,171 -1071,991 -1427,1276 -153,122 -205,175 -343,312 -277,274 -621,507 -885,794 -105,114 -88,77 -88,280 291,68 191,3 403,-170 448,-365 2367,-2229 2585,-2287l88 118c-51,172 -202,219 -323,342l-706 646c-316,241 -568,552 -872,806 -199,166 -830,651 -848,872 323,216 420,-151 884,-508l1397 -1264c126,-106 207,-218 329,-326l379 -317 130 157c-217,316 -2750,2399 -2750,2586 0,92 32,90 82,164 257,-22 578,-429 765,-586l1046 -960c62,-63 100,-106 163,-164l540 -484c140,-108 220,-258 392,-304l74 90c-42,183 -641,642 -821,801l-1575 1454c-99,95 -339,222 -339,357 0,550 928,-524 1099,-661l1102 -986c213,-197 512,-529 747,-686l157 129c-80,123 -198,227 -321,321l-2078 1894c-122,125 -337,208 -337,399 0,118 61,122 163,122 85,0 439,-349 543,-440 63,-56 103,-102 164,-163 514,-523 1188,-1043 1720,-1555 117,-113 189,-253 357,-298l118 88c-45,186 -953,957 -1172,1150l-900 820c-127,123 -216,171 -349,306 -128,131 -273,191 -317,379 170,188 241,114 400,-50 138,-143 236,-196 369,-328l722 -669c402,-310 1054,-978 1457,-1328l173 155c-178,54 -413,340 -570,472 -73,60 -120,115 -186,182 -387,394 -1027,921 -1453,1331 -301,290 -724,477 -462,726 219,-51 222,-141 386,-269l1079 -968c138,-137 190,-190 343,-312 136,-109 220,-227 352,-344 82,-72 103,-72 184,-144 64,-56 103,-102 164,-164 98,-99 262,-259 399,-296l88 118c-47,160 -202,220 -323,343 -138,140 -238,196 -369,326l-1412 1291c-182,184 -622,435 -645,706 328,219 419,-161 877,-515 321,-247 574,-541 874,-805 81,-72 102,-72 183,-144l856 -782c85,-69 108,-109 199,-170l130 158c-74,105 -235,212 -345,323 -138,140 -197,184 -346,309 -130,109 -205,219 -334,322l-1081 965c-215,207 -517,416 -685,667 27,116 77,170 163,245 259,-60 615,-503 831,-684 688,-580 1768,-1001 2717,-694l506 191c-36,132 -8,50 -90,156 -442,570 -963,1050 -1408,1622 -440,566 -924,1057 -1374,1614l-1626 1936c-46,56 -67,72 -116,130l-1823 2312c-397,593 -1056,1496 -1056,2260 192,-128 3571,-4350 3925,-4795 325,-408 644,-784 975,-1195l2812 -3453c85,-106 70,-34 108,-178 150,40 86,43 205,123 -47,175 -342,477 -468,638 -91,115 -166,199 -260,313l-1033 1260c-80,103 -163,213 -256,317l-1037 1256c-1096,1387 -2260,2708 -3357,4094 -91,116 -161,214 -253,319 -97,111 -171,200 -261,314 -218,275 -1202,1373 -1263,1602 1145,0 2923,-971 3756,-1812l4156 -4196c120,-119 153,-192 265,-308 295,-307 1428,-1493 1689,-1668l754 1007c783,1137 1432,2042 2186,3218 118,182 209,346 323,537l840 1412c399,661 754,1363 1097,2055 123,248 207,451 532,451 898,0 2621,-1583 2621,-2416 0,-272 -960,-1353 -1134,-1569 -1219,-1506 -2434,-3021 -3707,-4481l-617 -734c-214,-253 -417,-468 -630,-721l-2377 -2740c-66,-74 -119,-111 -184,-185l-2416 -2661c-584,-664 -1235,-1283 -1803,-1963l-1001 -1046c-470,-470 -883,-923 -1351,-1392l-5159 -5077c-250,-254 -416,-382 -737,-143 -583,435 -940,845 -1320,1136l-747 686c-397,394 -898,767 -1291,1166 -75,77 -501,408 -501,482z"/>
   <path class="fil0" d="M28518 37848c506,0 1012,245 1515,245 -59,702 -1487,789 -1515,-245zm655 -778c449,0 901,133 901,696l-1474 -287c75,-112 103,-179 226,-265 93,-64 215,-144 347,-144zm10071 -2170c-2551,0 -2230,-3562 -39,-4830 2016,-1167 3658,566 2713,2754 -276,638 -854,1366 -1458,1694 -321,175 -745,382 -1216,382zm-4994 -5077l-246 0c-890,0 -1761,-682 -1761,-1556 0,-913 209,-1244 720,-1901 913,-1177 3477,-1945 4331,-283 65,127 91,165 126,324 143,658 2,1042 -277,1602 -439,880 -1713,1814 -2893,1814zm-3112 -1801c0,848 136,1429 727,2016 213,212 393,366 678,509 222,111 633,293 929,300 -92,173 -573,726 -743,935l-4334 5287c-195,251 -846,1007 -942,1188 111,210 1739,2032 1884,2129l1773 -1788c122,-151 110,-848 110,-1078l5159 -3930c48,100 85,362 122,491 47,165 115,311 191,464 1115,2235 4101,1619 5395,-37 806,-1032 1170,-1721 1170,-3211 0,-949 -644,-2062 -1561,-2452 -1548,-658 -2996,56 -4080,1151 -97,98 -154,182 -242,290l-913 1257c-88,114 -165,171 -252,280 -330,412 -677,757 -1069,1102 -103,91 -163,176 -270,261 -1023,819 -1142,899 -2260,1548 -106,62 -256,113 -355,177 -167,108 -14,-91 -192,381 -101,267 -206,521 -305,760 -59,143 -99,224 -158,374 -28,72 -48,143 -78,208 -74,159 -29,109 -138,149 -228,-216 108,-851 259,-1173 708,-1515 1305,-2336 2474,-3504 679,-680 1010,-937 1742,-1534 538,-439 1448,-642 2252,-2087 389,-698 567,-1506 402,-2311 -288,-1399 -1533,-2124 -3076,-2124 -1285,0 -2742,911 -3399,1760 -469,608 -900,1357 -900,2212z"/>
   <path class="fil0" d="M26962 37725c83,123 193,291 328,327 29,-110 125,-203 198,-292 85,-103 154,-182 243,-290l956 -1172c127,-156 405,-448 445,-620 -487,113 -394,-70 -696,327 -157,207 -353,340 -515,550l-731 866c-117,148 -136,129 -228,304z"/>
  </g>
  <g id="_94385480">
   <path class="fil2" d="M60500 24640c-1719,-850 -3102,-1276 -4148,-1276 -1047,0 -1923,298 -2629,894 -672,570 -1008,1182 -1008,1837 0,341 123,587 370,741 331,187 646,280 944,280 111,0 221,-12 332,-38 391,-94 723,-251 995,-472 273,-221 409,-400 409,-536 0,-136 40,-230 121,-281 81,-51 121,-34 121,51 0,51 -13,111 -38,179 -179,604 -596,1017 -1251,1238 -281,93 -570,140 -868,140 -297,0 -591,-89 -880,-268 -545,-306 -817,-774 -817,-1404 0,-757 349,-1446 1046,-2067 698,-621 1549,-932 2553,-932 493,0 991,72 1493,217 1259,340 2400,834 3420,1480 264,-289 537,-433 817,-433 315,0 477,106 485,319 9,93 -21,136 -89,127 -43,-8 -89,-42 -140,-102 -69,-25 -132,-38 -192,-38 -187,0 -379,93 -574,281 629,314 1370,582 2220,804 332,76 596,115 792,115 195,0 344,-5 446,-13 375,-43 617,-183 728,-421 59,-128 113,-207 159,-237 47,-29 75,-14 83,45 0,26 0,60 0,102 0,349 -178,613 -536,792 -221,110 -429,165 -625,165 -196,0 -408,-19 -638,-57 -230,-38 -528,-117 -894,-236 -365,-119 -663,-230 -893,-332 -230,-102 -455,-208 -676,-319l-358 -179c-442,502 -914,1366 -1416,2591 -162,409 -256,642 -281,702 493,68 949,102 1366,102 416,0 746,-6 989,-19 242,-13 368,15 376,83 9,187 -625,281 -1901,281 -409,0 -736,-17 -983,-51 -528,1446 -1055,2518 -1583,3216 -221,289 -497,593 -829,912 -332,319 -685,577 -1060,772 -842,460 -1782,690 -2820,690 -1038,0 -1919,-230 -2642,-690 -1097,-680 -1646,-1663 -1646,-2948 0,-434 72,-897 217,-1391 102,-323 291,-608 568,-855 276,-247 508,-398 695,-453 187,-55 275,-66 262,-32 -13,34 -160,149 -440,345 -553,400 -881,893 -983,1480 -43,213 -64,460 -64,740 0,281 64,587 191,919 349,902 1073,1566 2170,1991 519,196 1076,294 1672,294 596,0 1187,-119 1774,-358 587,-238 1132,-595 1633,-1072 979,-927 1787,-2127 2425,-3599l-816 -12c-996,0 -1651,229 -1966,689 -76,93 -138,117 -185,70 -47,-47 -53,-108 -19,-185 187,-408 451,-702 791,-881 341,-178 679,-268 1015,-268 336,0 789,39 1359,115 264,-646 598,-1319 1002,-2016 404,-698 687,-1140 849,-1328zm5181 4327c-153,153 -370,500 -651,1040 -281,540 -449,944 -504,1212 -55,268 -83,485 -83,651 0,166 64,249 192,249 161,0 361,-149 599,-447 349,-433 694,-999 1034,-1697 34,-76 72,-119 115,-127 68,-26 102,0 102,76 0,43 -13,94 -38,153 -783,1583 -1442,2374 -1978,2374 -247,0 -447,-119 -600,-357 -77,-128 -115,-298 -115,-511 0,-213 42,-472 128,-778 -681,1097 -1268,1646 -1762,1646 -136,0 -259,-43 -370,-128 -255,-178 -383,-485 -383,-918 0,-834 362,-1681 1085,-2540 409,-477 911,-787 1506,-932 162,-42 315,-64 460,-64 391,0 723,136 995,409 85,93 111,183 77,268 -34,85 -107,119 -217,102 -94,-306 -298,-460 -613,-460 -366,0 -817,290 -1353,868 -306,341 -591,740 -855,1200 -332,553 -497,995 -497,1327 0,332 106,498 319,498 510,0 1178,-783 2003,-2348 162,-315 298,-530 409,-645 110,-115 251,-172 421,-172 34,0 121,13 261,38 141,26 245,30 313,13zm1685 3216c110,17 187,26 229,26 341,0 677,-200 1009,-600 178,-222 497,-779 957,-1672 17,-43 47,-64 89,-64 77,-8 115,21 115,89 0,17 -19,66 -57,147 -39,81 -75,162 -109,243 -34,80 -89,197 -166,351 -76,153 -142,276 -198,370 -55,93 -125,208 -210,344 -85,136 -170,243 -255,319l-268 281c-145,145 -315,247 -511,306 -315,102 -621,111 -919,26 -196,85 -370,128 -523,128 -604,0 -970,-239 -1098,-715 -25,-111 -38,-245 -38,-402 0,-158 53,-309 160,-453 106,-145 219,-221 338,-230 434,-825 804,-1570 1110,-2233 340,-724 736,-1085 1187,-1085 119,0 236,28 351,83 115,55 157,117 128,185 -30,68 -92,81 -185,38 -94,-42 -175,-64 -243,-64 -68,0 -128,13 -179,39 -289,136 -434,429 -434,880 0,238 35,434 103,587 68,153 144,319 229,498 196,442 294,804 294,1085 0,281 -89,557 -268,829 -179,273 -392,494 -638,664zm-434 -89c374,-290 561,-758 561,-1404 0,-264 -29,-626 -89,-1085 -60,-459 -89,-770 -89,-932 0,-161 4,-272 12,-331 -646,1293 -1046,2080 -1199,2361 178,0 268,127 268,382 0,502 178,839 536,1009zm-957 -345c0,51 4,106 12,166 68,230 226,345 473,345 102,0 187,-17 255,-51 -315,-196 -485,-515 -511,-958 -153,154 -229,319 -229,498zm5832 102c0,238 85,358 255,358 400,0 966,-749 1698,-2247 59,-119 112,-166 159,-140 47,26 70,60 70,102 0,43 -49,164 -146,364 -98,200 -196,391 -294,574 -98,183 -240,423 -427,721 -392,596 -809,894 -1251,894 -289,0 -519,-120 -689,-358 -77,-110 -115,-261 -115,-453 0,-191 42,-423 127,-695 86,-273 319,-715 702,-1328 94,-153 141,-274 141,-363 0,-90 -73,-134 -217,-134 -145,0 -421,191 -830,574 -612,561 -1208,1404 -1786,2527 -60,127 -217,191 -473,191 -229,17 -374,43 -434,77 1617,-3361 2787,-5705 3510,-7032 162,-298 304,-506 428,-626 123,-119 270,-178 440,-178 42,0 132,10 268,32 136,21 238,27 306,19 -255,264 -712,993 -1372,2189 -659,1195 -1291,2409 -1895,3643 400,-502 759,-893 1078,-1174 319,-281 709,-547 1168,-798 460,-251 796,-376 1008,-376 51,0 98,8 141,25 -1047,1838 -1570,3042 -1570,3612zm3714 -4390c-119,102 -251,153 -396,153 -144,0 -259,-51 -344,-153 -85,-102 -119,-226 -102,-370 25,-145 97,-268 217,-370 119,-102 250,-153 395,-153 145,0 262,51 351,153 90,102 121,225 96,370 -26,144 -98,268 -217,370zm-1251 4684c162,0 332,-81 511,-243 314,-315 714,-957 1199,-1927 60,-127 119,-166 179,-115 17,17 26,45 26,83 0,38 -34,132 -103,281 -68,149 -129,283 -185,402 -55,119 -161,313 -319,581 -157,268 -300,474 -427,619 -349,400 -679,599 -989,599 -311,0 -534,-93 -670,-280 -136,-187 -204,-396 -204,-626 0,-229 55,-480 165,-753l817 -2080c17,-51 26,-119 26,-204 0,-85 -51,-196 -153,-332l701 -13c196,0 311,37 345,109 34,72 9,185 -77,338l-1020 2387c-145,314 -217,582 -217,804 0,246 131,370 395,370zm4046 -4186c621,0 931,391 931,1174 0,357 -93,740 -280,1148 -238,553 -596,1055 -1072,1506 110,213 310,319 599,319 230,0 447,-114 651,-344 256,-264 439,-496 549,-696 111,-200 192,-346 243,-440 51,-94 117,-228 197,-402 81,-174 130,-281 147,-319 17,-38 47,-57 90,-57 85,-9 127,21 127,89 0,25 -8,55 -25,89l-77 179c-51,119 -89,204 -115,255 -25,51 -70,143 -134,274 -64,132 -119,237 -166,313 -46,77 -110,179 -191,306 -81,128 -153,230 -217,307 -64,76 -143,161 -236,255 -94,94 -183,166 -268,217 -213,128 -413,191 -600,191 -349,0 -621,-110 -817,-331 -391,289 -753,433 -1085,433 -621,0 -931,-391 -931,-1174 0,-357 93,-740 281,-1148 255,-596 614,-1102 1078,-1519 464,-417 904,-625 1321,-625zm140 395c-229,0 -502,153 -817,460 -314,306 -595,723 -842,1250 -298,613 -447,1115 -447,1506 0,392 149,587 447,587 213,0 451,-114 715,-344 -136,-196 -204,-404 -204,-625 17,-366 166,-549 446,-549 111,0 202,38 275,115 72,76 108,146 108,210 0,64 -8,130 -25,198 144,-213 310,-515 497,-906 213,-434 319,-859 319,-1276 0,-417 -157,-626 -472,-626zm5667 -115c-1047,1838 -1570,3038 -1570,3599 0,222 81,332 242,332 434,0 1017,-736 1749,-2208 51,-119 102,-166 153,-140 51,26 77,60 77,102 0,43 -17,94 -51,153 -451,911 -832,1538 -1143,1883 -310,344 -621,517 -931,517 -311,0 -547,-120 -709,-358 -85,-110 -127,-261 -127,-453 0,-191 42,-423 127,-695 85,-273 319,-715 702,-1328 94,-153 141,-274 141,-363 0,-90 -73,-134 -217,-134 -145,0 -421,191 -830,574 -612,561 -1204,1404 -1774,2527 -51,85 -108,138 -172,159 -64,22 -189,37 -377,45 -187,9 -310,30 -370,64 136,-272 404,-830 804,-1672 715,-1489 1183,-2340 1404,-2552 102,-103 243,-154 421,-154 34,0 122,13 262,39 140,25 245,29 313,12 -315,171 -830,970 -1545,2400 400,-494 764,-887 1092,-1181 327,-293 721,-566 1180,-817 460,-251 796,-376 1008,-376 51,0 98,8 141,25zm-19495 13516c413,-919 777,-1615 1091,-2087 315,-472 611,-757 887,-855 277,-98 464,-147 562,-147 98,0 147,13 147,39 0,25 -56,65 -166,121 -111,55 -300,278 -568,670 -268,391 -606,991 -1015,1799 -408,809 -765,1664 -1072,2566 519,0 849,-26 989,-77 141,-51 226,-60 256,-26 29,35 -11,90 -122,166 -280,196 -693,311 -1238,345 -8,17 -76,221 -204,613 -425,1318 -638,2241 -638,2769 0,298 53,506 160,625 106,119 219,179 338,179 119,0 251,-51 395,-153 485,-357 1017,-1128 1596,-2310 68,-145 134,-204 197,-179 64,26 62,115 -6,268 -315,672 -576,1166 -785,1481 -208,314 -444,604 -708,867 -349,332 -698,498 -1047,498 -391,0 -663,-161 -816,-485 -77,-153 -115,-293 -115,-421 0,-128 2,-262 6,-402 4,-140 19,-323 45,-549 25,-225 87,-506 185,-842 98,-336 174,-591 230,-766 55,-174 138,-410 248,-708 111,-298 171,-460 179,-485 -366,0 -1808,-55 -4326,-166 -519,1549 -1336,2935 -2451,4161 -544,604 -1178,1110 -1901,1518 -970,536 -1991,804 -3063,804 -451,0 -953,-66 -1506,-198 -553,-131 -1077,-382 -1570,-753 -493,-370 -844,-869 -1053,-1499 -208,-630 -215,-1327 -19,-2093 102,-391 330,-757 683,-1098 353,-340 644,-514 874,-523 85,0 136,11 153,32 17,21 11,47 -19,77 -30,29 -66,53 -109,70 -255,110 -519,353 -791,727 -357,494 -536,1068 -536,1723 0,1021 494,1783 1481,2285 595,297 1293,446 2093,446 349,0 676,-34 982,-102 2885,-646 4914,-2514 6088,-5602 -221,0 -436,48 -644,146 -209,98 -345,147 -409,147 -64,0 -100,-25 -108,-77 0,-144 102,-282 306,-414 204,-132 383,-207 536,-224l498 0c544,-1361 1165,-2739 1863,-4135 -221,26 -536,56 -944,90 -409,34 -741,64 -996,89 -255,26 -570,68 -944,128 -375,59 -685,129 -932,210 -247,81 -521,194 -823,338 -302,145 -555,311 -760,498 -484,460 -829,1021 -1033,1685 -85,272 -128,561 -128,868 0,306 111,604 332,893 221,289 515,434 881,434 723,0 1237,-417 1544,-1251 144,-391 217,-666 217,-823 0,-157 -28,-277 -83,-357 -56,-81 -41,-130 44,-147 60,-9 111,25 154,102 102,221 153,459 153,715 0,255 -85,531 -255,829 -290,528 -681,881 -1175,1060 -238,85 -476,127 -714,127 -239,0 -477,-51 -715,-153 -451,-196 -783,-528 -995,-995 -137,-281 -205,-549 -205,-804 0,-256 41,-547 122,-875 80,-327 240,-661 478,-1002 238,-340 536,-614 894,-823 357,-208 714,-380 1072,-517 357,-136 780,-238 1269,-306 490,-68 915,-119 1277,-153 361,-34 797,-64 1308,-89 510,-26 889,-51 1136,-77 93,-162 236,-359 427,-593 192,-234 355,-371 492,-409 136,-38 242,-57 319,-57 314,0 472,134 472,402 0,268 -175,491 -523,670 -349,178 -677,268 -983,268 -230,442 -555,1231 -976,2367 -422,1136 -645,1734 -671,1793 639,0 1462,37 2470,109 1008,72 1627,108 1857,108 170,-493 462,-1199 874,-2118zm-2686 -3204c-102,0 -315,209 -638,626 553,-85 825,-234 816,-447 -8,-94 -55,-149 -140,-166 -8,-8 -21,-13 -38,-13zm7989 6394c-153,153 -370,500 -651,1040 -281,541 -449,945 -504,1213 -55,268 -83,485 -83,651 0,166 64,249 191,249 162,0 362,-149 600,-447 349,-434 694,-1000 1034,-1697 34,-77 72,-120 115,-128 68,-26 102,0 102,77 0,42 -13,93 -38,153 -783,1582 -1442,2373 -1978,2373 -247,0 -447,-119 -600,-357 -77,-127 -115,-298 -115,-510 0,-213 42,-473 127,-779 -680,1098 -1267,1646 -1761,1646 -136,0 -259,-42 -370,-127 -255,-179 -383,-485 -383,-919 0,-834 362,-1680 1085,-2540 408,-476 911,-787 1506,-931 162,-43 315,-64 459,-64 392,0 724,136 996,408 85,94 111,183 77,268 -34,85 -107,119 -217,102 -94,-306 -298,-459 -613,-459 -366,0 -817,289 -1353,868 -306,340 -591,740 -855,1199 -332,553 -498,996 -498,1328 0,331 107,497 319,497 511,0 1179,-782 2004,-2348 162,-315 298,-530 409,-644 110,-115 251,-173 421,-173 34,0 121,13 261,39 141,25 245,29 313,12zm2335 -1506c-119,102 -251,154 -395,154 -145,0 -260,-52 -345,-154 -85,-102 -119,-225 -102,-370 26,-144 98,-268 217,-370 119,-102 251,-153 396,-153 144,0 261,51 351,153 89,102 121,226 95,370 -25,145 -97,268 -217,370zm-1250 4684c161,0 332,-81 510,-242 315,-315 715,-957 1200,-1927 59,-128 119,-166 179,-115 17,17 25,44 25,83 0,38 -34,132 -102,280 -68,149 -130,283 -185,402 -55,120 -162,313 -319,581 -157,268 -300,474 -428,619 -349,400 -678,600 -989,600 -310,0 -534,-94 -670,-281 -136,-187 -204,-395 -204,-625 0,-230 55,-481 166,-753l817 -2080c17,-51 25,-119 25,-205 0,-85 -51,-195 -153,-331l702 -13c196,0 311,36 345,108 34,73 8,185 -77,339l-1021 2386c-145,315 -217,583 -217,804 0,247 132,370 396,370zm3446 -4837c0,383 -243,745 -728,1085 170,9 398,13 683,13 285,0 644,-21 1078,-64 17,26 26,94 26,204 0,111 -51,275 -153,492 -102,216 -194,404 -275,561 -80,158 -157,306 -229,447 -73,140 -154,312 -243,517 -89,204 -164,391 -223,561 -213,647 -179,970 102,970 357,0 885,-710 1582,-2131 60,-111 109,-153 147,-128 38,26 58,58 58,96 0,38 -56,170 -166,396 -111,225 -230,457 -358,695 -127,238 -327,515 -599,830 -324,391 -634,587 -932,587 -332,0 -562,-200 -689,-600 -26,-77 -39,-192 -39,-345 0,-153 49,-357 147,-612 98,-256 253,-566 466,-932 213,-366 332,-581 357,-644 26,-64 39,-126 39,-186 0,-263 -341,-404 -1021,-421l-154 409c-536,1404 -1050,2344 -1544,2820 -85,77 -127,51 -127,-76 0,-26 8,-56 25,-90 477,-629 889,-1374 1238,-2233 349,-859 591,-1676 728,-2450 51,-264 170,-396 357,-396 187,0 323,119 408,357 26,77 39,166 39,268z"/>
   <path class="fil2" d="M83421 47945c-792,638 -1668,957 -2629,957 -1098,0 -1774,-307 -2029,-919 -60,-145 -90,-313 -90,-504 0,-192 98,-398 294,-619 306,-349 731,-524 1276,-524 366,0 734,66 1104,198 370,132 1027,449 1972,951 425,-408 850,-953 1276,-1634 425,-680 793,-1337 1104,-1971 310,-634 689,-1325 1136,-2074 446,-749 891,-1370 1333,-1864 -953,-570 -1965,-855 -3037,-855 -443,0 -893,47 -1353,141 -1319,281 -2323,855 -3012,1723 -425,527 -638,1029 -638,1506 0,646 311,1067 932,1263 221,60 412,90 574,90 162,0 343,-26 542,-77 200,-51 398,-170 594,-357 374,-375 574,-724 600,-1047 8,-77 57,-104 146,-83 90,21 126,87 109,198 -85,621 -413,1093 -983,1417 -349,187 -697,280 -1046,280l-664 -115c-647,-221 -1072,-633 -1276,-1238 -85,-229 -128,-459 -128,-689 0,-468 175,-931 523,-1391 749,-1004 2076,-1646 3982,-1927 375,-51 745,-76 1111,-76 1182,0 2310,280 3382,842 332,-383 638,-674 919,-874 280,-200 506,-300 676,-300 94,0 149,19 166,57 17,38 15,68 -6,90 -22,21 -49,31 -83,31 -145,0 -332,154 -562,460 -230,306 -417,591 -562,855 911,604 1604,1378 2081,2323 383,757 574,1582 574,2476 0,1106 -264,1986 -791,2641 -434,536 -962,915 -1583,1136 -740,264 -1472,396 -2195,396 -1463,0 -2710,-298 -3739,-893zm306 -230c859,510 1868,765 3025,765 1344,0 2416,-382 3216,-1148 638,-621 957,-1481 957,-2578 0,-783 -153,-1519 -459,-2208 -383,-876 -949,-1608 -1698,-2195 -247,383 -721,1155 -1423,2316 -702,1162 -1295,2104 -1780,2827 -485,723 -868,1236 -1149,1538 -281,302 -510,530 -689,683zm-740 25c-996,-476 -1625,-761 -1889,-855 -264,-93 -521,-140 -772,-140 -251,0 -451,93 -600,281 -149,187 -223,355 -223,504 0,149 34,291 102,427 178,366 544,549 1097,549 817,0 1579,-255 2285,-766zm9878 -1301c-119,289 -179,612 -179,970 0,238 53,427 160,567 106,141 257,211 453,211 774,0 1476,-727 2106,-2182 59,-137 131,-196 217,-179 34,8 51,30 51,64 0,34 -96,257 -287,670 -192,412 -386,746 -581,1002 -434,595 -970,893 -1608,893 -341,0 -630,-111 -868,-332 -238,-221 -357,-523 -357,-906 0,-383 91,-789 274,-1219 183,-429 432,-829 747,-1199 314,-371 676,-641 1084,-811 196,-85 383,-127 562,-127 179,0 344,51 498,153 144,119 217,251 217,395 0,511 -307,1000 -919,1468 -188,145 -451,274 -792,389 -340,115 -599,173 -778,173zm2144 -2042c0,-171 -68,-256 -204,-256 -238,0 -600,294 -1085,881 -289,357 -545,757 -766,1200 145,0 356,-51 632,-154 277,-102 517,-238 721,-408 468,-400 702,-821 702,-1263zm1532 3764c110,18 187,26 229,26 341,0 677,-200 1008,-600 179,-221 498,-778 958,-1672 17,-42 46,-64 89,-64 77,-8 115,22 115,90 0,17 -19,66 -58,147 -38,80 -74,161 -108,242 -34,81 -89,198 -166,351 -77,153 -143,277 -198,370 -55,94 -125,209 -210,345 -85,136 -171,242 -256,319l-268 281c-144,144 -314,246 -510,306 -315,102 -621,110 -919,25 -196,85 -370,128 -523,128 -604,0 -970,-238 -1098,-715 -25,-110 -38,-244 -38,-402 0,-157 53,-308 159,-453 107,-144 219,-221 339,-229 433,-826 804,-1570 1110,-2234 340,-723 736,-1085 1187,-1085 119,0 236,28 351,83 115,56 157,117 127,185 -29,68 -91,81 -185,39 -93,-43 -174,-64 -242,-64 -68,0 -128,13 -179,38 -289,136 -434,430 -434,881 0,238 34,434 102,587 68,153 145,319 230,497 196,443 294,804 294,1085 0,281 -90,558 -268,830 -179,272 -392,493 -638,663zm-434 -89c374,-289 561,-757 561,-1404 0,-264 -30,-625 -89,-1085 -60,-459 -90,-770 -90,-931 0,-162 5,-272 13,-332 -646,1293 -1046,2080 -1199,2361 178,0 267,128 267,383 0,502 179,838 537,1008zm-958 -344c0,51 5,106 13,165 68,230 226,345 472,345 102,0 188,-17 256,-51 -315,-196 -485,-515 -511,-957 -153,153 -230,319 -230,498zm5310 -4289c-120,102 -251,154 -396,154 -145,0 -260,-52 -345,-154 -85,-102 -119,-225 -102,-370 26,-144 98,-268 217,-370 119,-102 251,-153 396,-153 144,0 261,51 351,153 89,102 121,226 95,370 -25,145 -97,268 -216,370zm-1251 4684c162,0 332,-81 510,-242 315,-315 715,-957 1200,-1927 60,-128 119,-166 179,-115 17,17 25,44 25,83 0,38 -34,132 -102,280 -68,149 -130,283 -185,402 -55,120 -162,313 -319,581 -157,268 -300,474 -428,619 -348,400 -678,600 -989,600 -310,0 -534,-94 -670,-281 -136,-187 -204,-395 -204,-625 0,-230 55,-481 166,-753l817 -2080c17,-51 25,-119 25,-205 0,-85 -51,-195 -153,-331l702 -13c196,0 311,36 345,108 34,73 8,185 -77,339l-1021 2386c-144,315 -217,583 -217,804 0,247 132,370 396,370zm842 4314c-800,0 -1200,-328 -1200,-983 0,-544 371,-1034 1111,-1468 629,-365 1433,-710 2412,-1033 451,-145 778,-260 983,-345 221,-646 331,-1353 331,-2118 0,-154 -8,-268 -25,-345 -238,485 -566,983 -983,1493 -493,613 -983,851 -1468,715 -442,-187 -663,-553 -663,-1098 0,-731 366,-1535 1097,-2412 400,-476 868,-778 1404,-906 145,-42 290,-64 434,-64 383,0 757,128 1123,383 136,111 205,204 205,281 0,77 -26,151 -77,223 -51,73 -104,81 -160,26 -55,-55 -91,-109 -108,-160 -111,-315 -289,-472 -536,-472 -451,0 -957,315 -1519,944 -315,358 -587,741 -817,1149 -280,511 -421,904 -421,1181 0,276 85,461 255,555 60,25 120,38 179,38 196,0 440,-134 734,-402 294,-268 566,-608 817,-1021 251,-413 410,-734 478,-964 68,-229 151,-374 249,-433 98,-60 207,-94 326,-103 119,-8 200,-29 242,-63 68,383 102,831 102,1346 0,515 -89,1100 -268,1755 392,-281 670,-532 836,-753 166,-221 298,-421 396,-600 98,-179 185,-355 261,-529 77,-175 128,-288 154,-339 25,-51 68,-83 127,-95 60,-13 90,14 90,83 0,42 -13,93 -39,153 -374,774 -687,1333 -938,1678 -251,344 -593,619 -1027,823 -204,579 -500,1153 -887,1723 -387,570 -874,1072 -1461,1506 -588,434 -1170,651 -1749,651zm-932 -740c0,323 209,485 626,485 247,0 525,-73 836,-217 310,-145 568,-294 772,-447 349,-281 732,-698 1149,-1251 314,-442 557,-872 727,-1289l-447 153c-1327,460 -2263,868 -2807,1226 -400,263 -664,599 -792,1008 -42,127 -64,238 -64,332zm10670 -7479c-1047,1838 -1570,3037 -1570,3599 0,221 81,332 243,332 433,0 1016,-736 1748,-2208 51,-119 102,-166 153,-141 51,26 77,60 77,103 0,42 -17,93 -51,153 -451,910 -832,1538 -1143,1882 -310,345 -621,517 -931,517 -311,0 -547,-119 -709,-357 -85,-111 -127,-262 -127,-453 0,-192 42,-424 127,-696 86,-272 320,-715 702,-1327 94,-153 141,-275 141,-364 0,-89 -73,-134 -217,-134 -145,0 -421,191 -830,574 -612,562 -1204,1404 -1774,2527 -51,85 -108,139 -172,160 -64,21 -189,36 -376,44 -188,9 -311,30 -371,64 137,-272 405,-829 804,-1672 715,-1488 1183,-2339 1404,-2552 102,-102 243,-153 422,-153 34,0 121,13 261,38 141,26 245,30 313,13 -315,170 -830,970 -1544,2399 399,-493 763,-887 1091,-1180 327,-294 721,-566 1180,-817 460,-251 796,-377 1008,-377 52,0 98,9 141,26zm1519 3943c110,18 187,26 229,26 341,0 677,-200 1008,-600 179,-221 498,-778 958,-1672 17,-42 47,-64 89,-64 77,-8 115,22 115,90 0,17 -19,66 -58,147 -38,80 -74,161 -108,242 -34,81 -89,198 -166,351 -77,153 -142,277 -198,370 -55,94 -125,209 -210,345 -85,136 -170,242 -256,319l-268 281c-144,144 -314,246 -510,306 -315,102 -621,110 -919,25 -196,85 -370,128 -523,128 -604,0 -970,-238 -1098,-715 -25,-110 -38,-244 -38,-402 0,-157 53,-308 159,-453 107,-144 220,-221 339,-229 434,-826 804,-1570 1110,-2234 340,-723 736,-1085 1187,-1085 119,0 236,28 351,83 115,56 157,117 127,185 -29,68 -91,81 -185,39 -93,-43 -174,-64 -242,-64 -68,0 -128,13 -179,38 -289,136 -434,430 -434,881 0,238 34,434 102,587 68,153 145,319 230,497 196,443 294,804 294,1085 0,281 -90,558 -268,830 -179,272 -392,493 -638,663zm-434 -89c374,-289 561,-757 561,-1404 0,-264 -30,-625 -89,-1085 -60,-459 -89,-770 -89,-931 0,-162 4,-272 12,-332 -646,1293 -1046,2080 -1199,2361 178,0 268,128 268,383 0,502 178,838 536,1008zm-958 -344c0,51 5,106 13,165 68,230 226,345 472,345 103,0 188,-17 256,-51 -315,-196 -485,-515 -511,-957 -153,153 -230,319 -230,498z"/>
  </g>
  <path class="fil3 str0" style="mask:url(#id0)" d="M61482 1020c33953,0 61477,16966 61477,37895 0,20929 -26937,-11128 -68229,-8192 -41291,2935 -54725,29121 -54725,8192 0,-20929 27524,-37895 61477,-37895z"/>
 </g>
</svg>
