<?xml version="1.0" encoding="UTF-8"?>
<!DOCTYPE svg PUBLIC "-//W3C//DTD SVG 1.1//EN" "http://www.w3.org/Graphics/SVG/1.1/DTD/svg11.dtd">
<!-- Creator: CorelDRAW Home & Student X8 -->
<svg xmlns="http://www.w3.org/2000/svg" xml:space="preserve" width="179.442mm" height="6.7734mm" version="1.1" style="shape-rendering:geometricPrecision; text-rendering:geometricPrecision; image-rendering:optimizeQuality; fill-rule:evenodd; clip-rule:evenodd"
viewBox="0 0 15702 593"
 xmlns:xlink="http://www.w3.org/1999/xlink">
 <defs>
  <style type="text/css">
   <![CDATA[
    .fil91 {fill:none}
    .fil89 {fill:#D4AF37}
    .fil22 {fill:#303030;fill-rule:nonzero}
    .fil88 {fill:#7D7D7D;fill-rule:nonzero}
    .fil21 {fill:#B2B2B2;fill-rule:nonzero}
    .fil20 {fill:#B9B9B9;fill-rule:nonzero}
    .fil19 {fill:silver;fill-rule:nonzero}
    .fil18 {fill:#C6C6C6;fill-rule:nonzero}
    .fil17 {fill:#CDCDCD;fill-rule:nonzero}
    .fil16 {fill:#D2D2D2;fill-rule:nonzero}
    .fil15 {fill:#D8D8D8;fill-rule:nonzero}
    .fil14 {fill:#DDDDDD;fill-rule:nonzero}
    .fil13 {fill:#E1E1E1;fill-rule:nonzero}
    .fil12 {fill:#E6E6E6;fill-rule:nonzero}
    .fil11 {fill:#EAEAEA;fill-rule:nonzero}
    .fil10 {fill:#EDEDED;fill-rule:nonzero}
    .fil9 {fill:#F1F1F1;fill-rule:nonzero}
    .fil8 {fill:#F4F4F4;fill-rule:nonzero}
    .fil7 {fill:#F6F6F6;fill-rule:nonzero}
    .fil6 {fill:#F9F9F9;fill-rule:nonzero}
    .fil5 {fill:#FBFBFB;fill-rule:nonzero}
    .fil4 {fill:#FCFCFC;fill-rule:nonzero}
    .fil3 {fill:#FDFDFD;fill-rule:nonzero}
    .fil2 {fill:#FEFEFE;fill-rule:nonzero}
    .fil25 {fill:white;fill-rule:nonzero}
    .fil90 {fill:#CCCCCC;fill-opacity:0.168627}
    .fil29 {fill:url(#id2)}
    .fil24 {fill:url(#id3)}
    .fil64 {fill:url(#id4)}
    .fil61 {fill:url(#id5)}
    .fil39 {fill:url(#id6)}
    .fil63 {fill:url(#id7)}
    .fil66 {fill:url(#id8)}
    .fil50 {fill:url(#id9)}
    .fil71 {fill:url(#id10)}
    .fil47 {fill:url(#id11)}
    .fil55 {fill:url(#id12)}
    .fil31 {fill:url(#id13)}
    .fil83 {fill:url(#id14)}
    .fil36 {fill:url(#id15)}
    .fil52 {fill:url(#id16)}
    .fil53 {fill:url(#id17)}
    .fil78 {fill:url(#id18)}
    .fil86 {fill:url(#id19)}
    .fil35 {fill:url(#id20)}
    .fil0 {fill:url(#id21)}
    .fil62 {fill:url(#id22)}
    .fil73 {fill:url(#id23)}
    .fil32 {fill:url(#id24)}
    .fil84 {fill:url(#id25)}
    .fil68 {fill:url(#id26)}
    .fil69 {fill:url(#id27)}
    .fil44 {fill:url(#id28)}
    .fil82 {fill:url(#id29)}
    .fil42 {fill:url(#id30)}
    .fil51 {fill:url(#id31)}
    .fil56 {fill:url(#id32)}
    .fil79 {fill:url(#id33)}
    .fil27 {fill:url(#id34)}
    .fil54 {fill:url(#id35)}
    .fil77 {fill:url(#id36)}
    .fil58 {fill:url(#id37)}
    .fil1 {fill:url(#id38)}
    .fil23 {fill:url(#id39)}
    .fil75 {fill:url(#id40)}
    .fil67 {fill:url(#id41)}
    .fil34 {fill:url(#id42)}
    .fil45 {fill:url(#id43)}
    .fil33 {fill:url(#id44)}
    .fil37 {fill:url(#id45)}
    .fil43 {fill:url(#id46)}
    .fil85 {fill:url(#id47)}
    .fil72 {fill:url(#id48)}
    .fil74 {fill:url(#id49)}
    .fil38 {fill:url(#id50)}
    .fil60 {fill:url(#id51)}
    .fil57 {fill:url(#id52)}
    .fil49 {fill:url(#id53)}
    .fil48 {fill:url(#id54)}
    .fil65 {fill:url(#id55)}
    .fil26 {fill:url(#id56)}
    .fil46 {fill:url(#id57)}
    .fil28 {fill:url(#id58)}
    .fil30 {fill:url(#id59)}
    .fil80 {fill:url(#id60)}
    .fil81 {fill:url(#id61)}
    .fil87 {fill:url(#id62)}
    .fil41 {fill:url(#id63)}
    .fil40 {fill:url(#id64)}
    .fil70 {fill:url(#id65)}
    .fil59 {fill:url(#id66)}
    .fil76 {fill:url(#id67)}
   ]]>
  </style>
    <clipPath id="id0" style="clip-rule:nonzero">
     <path d="M7779 53c-2,-3 -5,-6 -8,-9 28,-7 61,-20 88,-20 7,0 13,1 19,3 -24,8 -50,13 -74,20 -7,1 -16,4 -25,6l0 0z"/>
    </clipPath>
    <clipPath id="id1" style="clip-rule:nonzero">
     <path d="M7711 66c-5,0 -9,-1 -9,-3 -4,-8 -4,-10 2,-10 1,0 3,0 5,0 0,0 0,0 1,0 12,0 41,-5 41,-5 6,0 13,-2 20,-4 3,3 6,6 8,9 -24,6 -53,13 -68,13l0 0z"/>
    </clipPath>
  <linearGradient id="id2" gradientUnits="userSpaceOnUse" x1="7886.88" y1="89.7637" x2="8005.94" y2="89.7637">
   <stop offset="0" style="stop-opacity:1; stop-color:#919396"/>
   <stop offset="0.0901961" style="stop-opacity:1; stop-color:#919396"/>
   <stop offset="1" style="stop-opacity:1; stop-color:#231F20"/>
  </linearGradient>
  <linearGradient id="id3" gradientUnits="userSpaceOnUse" x1="7625.88" y1="208.991" x2="8005.95" y2="208.991">
   <stop offset="0" style="stop-opacity:1; stop-color:#C91E1E"/>
   <stop offset="1" style="stop-opacity:1; stop-color:#420C1E"/>
  </linearGradient>
  <linearGradient id="id4" gradientUnits="userSpaceOnUse" x1="7550.67" y1="89.0112" x2="7660.32" y2="89.0112">
   <stop offset="0" style="stop-opacity:1; stop-color:#696A6D"/>
   <stop offset="1" style="stop-opacity:1; stop-color:#1F1C1D"/>
  </linearGradient>
  <linearGradient id="id5" gradientUnits="userSpaceOnUse" x1="7679.31" y1="87.016" x2="7541.11" y2="93.9903">
   <stop offset="0" style="stop-opacity:1; stop-color:#828487"/>
   <stop offset="1" style="stop-opacity:1; stop-color:#6F7173"/>
  </linearGradient>
  <linearGradient id="id6" gradientUnits="userSpaceOnUse" x1="7886.89" y1="89.7637" x2="8005.94" y2="89.7637">
   <stop offset="0" style="stop-opacity:1; stop-color:#63666A"/>
   <stop offset="0.0901961" style="stop-opacity:1; stop-color:#63666A"/>
   <stop offset="1" style="stop-opacity:1; stop-color:#151313"/>
  </linearGradient>
  <linearGradient id="id7" gradientUnits="userSpaceOnUse" x1="7556.45" y1="89.0199" x2="7660.32" y2="89.0199">
   <stop offset="0" style="stop-opacity:1; stop-color:#757679"/>
   <stop offset="1" style="stop-opacity:1; stop-color:#231F20"/>
  </linearGradient>
  <linearGradient id="id8" gradientUnits="userSpaceOnUse" x1="7611.38" y1="85.0646" x2="7535.91" y2="87.9436">
   <stop offset="0" style="stop-opacity:1; stop-color:#434345"/>
   <stop offset="0.0196078" style="stop-opacity:1; stop-color:#434345"/>
   <stop offset="1" style="stop-opacity:1; stop-color:#696A6D"/>
  </linearGradient>
  <linearGradient id="id9" gradientUnits="userSpaceOnUse" x1="7886.89" y1="89.7637" x2="8005.94" y2="89.7637">
   <stop offset="0" style="stop-opacity:1; stop-color:#3B3D40"/>
   <stop offset="0.0901961" style="stop-opacity:1; stop-color:#3B3D40"/>
   <stop offset="1" style="stop-opacity:1; stop-color:#0D0B0B"/>
  </linearGradient>
  <linearGradient id="id10" gradientUnits="userSpaceOnUse" xlink:href="#id7" x1="7864.69" y1="204.537" x2="7863.22" y2="183.168">
  </linearGradient>
  <linearGradient id="id11" gradientUnits="userSpaceOnUse" x1="7625.94" y1="208.999" x2="8005.94" y2="208.999">
   <stop offset="0" style="stop-opacity:1; stop-color:#7D0808"/>
   <stop offset="1" style="stop-opacity:1; stop-color:#130408"/>
  </linearGradient>
  <linearGradient id="id12" gradientUnits="userSpaceOnUse" x1="7625.89" y1="207.346" x2="7800.32" y2="207.346">
   <stop offset="0" style="stop-opacity:1; stop-color:#A30E0E"/>
   <stop offset="1" style="stop-opacity:1; stop-color:#20060E"/>
  </linearGradient>
  <linearGradient id="id13" gradientUnits="userSpaceOnUse" x1="7625.88" y1="208.991" x2="8005.96" y2="208.991">
   <stop offset="0" style="stop-opacity:1; stop-color:#BE1818"/>
   <stop offset="1" style="stop-opacity:1; stop-color:#350A18"/>
  </linearGradient>
  <linearGradient id="id14" gradientUnits="userSpaceOnUse" xlink:href="#id13" x1="7693.83" y1="208.964" x2="7986.76" y2="208.964">
  </linearGradient>
  <linearGradient id="id15" gradientUnits="userSpaceOnUse" x1="7625.87" y1="209.017" x2="8005.96" y2="209.017">
   <stop offset="0" style="stop-opacity:1; stop-color:#B31212"/>
   <stop offset="1" style="stop-opacity:1; stop-color:#280712"/>
  </linearGradient>
  <linearGradient id="id16" gradientUnits="userSpaceOnUse" xlink:href="#id15" x1="7625.88" y1="213.944" x2="8005.99" y2="213.944">
  </linearGradient>
  <linearGradient id="id17" gradientUnits="userSpaceOnUse" xlink:href="#id15" x1="7625.34" y1="202.603" x2="8012.95" y2="202.603">
  </linearGradient>
  <linearGradient id="id18" gradientUnits="userSpaceOnUse" xlink:href="#id12" x1="7761.19" y1="211.091" x2="7948.78" y2="211.091">
  </linearGradient>
  <linearGradient id="id19" gradientUnits="userSpaceOnUse" xlink:href="#id13" x1="7639.09" y1="208.999" x2="7996.24" y2="208.999">
  </linearGradient>
  <linearGradient id="id20" gradientUnits="userSpaceOnUse" x1="7625.87" y1="209.078" x2="8005.96" y2="209.078">
   <stop offset="0" style="stop-opacity:1; stop-color:#B11313"/>
   <stop offset="1" style="stop-opacity:1; stop-color:#2A0813"/>
  </linearGradient>
  <linearGradient id="id21" gradientUnits="userSpaceOnUse" x1="7772.47" y1="851.994" x2="7840.25" y2="975.255">
   <stop offset="0" style="stop-opacity:1; stop-color:#171616"/>
   <stop offset="0.0901961" style="stop-opacity:1; stop-color:#171616"/>
   <stop offset="1" style="stop-opacity:1; stop-color:#2F2F32"/>
  </linearGradient>
  <linearGradient id="id22" gradientUnits="userSpaceOnUse" x1="7677.52" y1="87.016" x2="7543.19" y2="93.9903">
   <stop offset="0" style="stop-opacity:1; stop-color:#75777A"/>
   <stop offset="1" style="stop-opacity:1; stop-color:#646567"/>
  </linearGradient>
  <linearGradient id="id23" gradientUnits="userSpaceOnUse" xlink:href="#id4" x1="7813.99" y1="198.017" x2="7856.76" y2="193.651">
  </linearGradient>
  <linearGradient id="id24" gradientUnits="userSpaceOnUse" xlink:href="#id13" x1="7625.72" y1="208.676" x2="8006.32" y2="208.676">
  </linearGradient>
  <linearGradient id="id25" gradientUnits="userSpaceOnUse" xlink:href="#id13" x1="7636.58" y1="208.982" x2="8002.78" y2="208.982">
  </linearGradient>
  <linearGradient id="id26" gradientUnits="userSpaceOnUse" xlink:href="#id7" x1="7968.38" y1="290.319" x2="7884.27" y2="311.215">
  </linearGradient>
  <linearGradient id="id27" gradientUnits="userSpaceOnUse" x1="7625.9" y1="208.991" x2="8005.95" y2="208.991">
   <stop offset="0" style="stop-opacity:1; stop-color:#A70C0C"/>
   <stop offset="1" style="stop-opacity:1; stop-color:#1A050C"/>
  </linearGradient>
  <linearGradient id="id28" gradientUnits="userSpaceOnUse" xlink:href="#id12" x1="7625.88" y1="208.999" x2="8005.96" y2="208.999">
  </linearGradient>
  <linearGradient id="id29" gradientUnits="userSpaceOnUse" xlink:href="#id13" x1="7673.79" y1="210.995" x2="7990.08" y2="210.995">
  </linearGradient>
  <linearGradient id="id30" gradientUnits="userSpaceOnUse" xlink:href="#id11" x1="7625.72" y1="209.052" x2="8005.98" y2="209.052">
  </linearGradient>
  <linearGradient id="id31" gradientUnits="userSpaceOnUse" xlink:href="#id11" x1="7625.89" y1="208.999" x2="8005.96" y2="208.999">
  </linearGradient>
  <linearGradient id="id32" gradientUnits="userSpaceOnUse" xlink:href="#id12" x1="7625.88" y1="207.346" x2="8010.04" y2="207.346">
  </linearGradient>
  <linearGradient id="id33" gradientUnits="userSpaceOnUse" xlink:href="#id11" x1="7626.06" y1="208.991" x2="8005.91" y2="208.991">
  </linearGradient>
  <linearGradient id="id34" gradientUnits="userSpaceOnUse" xlink:href="#id12" x1="7648.23" y1="208.982" x2="8001.43" y2="208.982">
  </linearGradient>
  <linearGradient id="id35" gradientUnits="userSpaceOnUse" xlink:href="#id12" x1="7625.89" y1="208.999" x2="8005.96" y2="208.999">
  </linearGradient>
  <linearGradient id="id36" gradientUnits="userSpaceOnUse" xlink:href="#id15" x1="7625.75" y1="208.999" x2="8005.98" y2="208.999">
  </linearGradient>
  <linearGradient id="id37" gradientUnits="userSpaceOnUse" xlink:href="#id11" x1="7625.89" y1="208.947" x2="8005.93" y2="208.947">
  </linearGradient>
  <linearGradient id="id38" gradientUnits="userSpaceOnUse" xlink:href="#id21" x1="7772.48" y1="852.038" x2="7840.25" y2="975.316">
  </linearGradient>
  <linearGradient id="id39" gradientUnits="userSpaceOnUse" xlink:href="#id7" x1="7918.02" y1="468.901" x2="7927.74" y2="421.28">
  </linearGradient>
  <linearGradient id="id40" gradientUnits="userSpaceOnUse" x1="7918.02" y1="468.91" x2="7927.74" y2="421.289">
   <stop offset="0" style="stop-opacity:1; stop-color:#464749"/>
   <stop offset="1" style="stop-opacity:1; stop-color:#151313"/>
  </linearGradient>
  <linearGradient id="id41" gradientUnits="userSpaceOnUse" xlink:href="#id7" x1="7968.17" y1="290.328" x2="7884.21" y2="311.224">
  </linearGradient>
  <linearGradient id="id42" gradientUnits="userSpaceOnUse" xlink:href="#id20" x1="7625.88" y1="208.833" x2="8005.96" y2="208.833">
  </linearGradient>
  <linearGradient id="id43" gradientUnits="userSpaceOnUse" xlink:href="#id12" x1="7625.88" y1="208.991" x2="8005.96" y2="208.991">
  </linearGradient>
  <linearGradient id="id44" gradientUnits="userSpaceOnUse" xlink:href="#id20" x1="7625.91" y1="208.999" x2="8005.91" y2="208.999">
  </linearGradient>
  <linearGradient id="id45" gradientUnits="userSpaceOnUse" xlink:href="#id15" x1="7527.53" y1="223.657" x2="8050.81" y2="223.657">
  </linearGradient>
  <linearGradient id="id46" gradientUnits="userSpaceOnUse" xlink:href="#id6" x1="7886.88" y1="89.7637" x2="8005.95" y2="89.7637">
  </linearGradient>
  <linearGradient id="id47" gradientUnits="userSpaceOnUse" xlink:href="#id13" x1="7626.13" y1="208.964" x2="8005.81" y2="208.964">
  </linearGradient>
  <linearGradient id="id48" gradientUnits="userSpaceOnUse" xlink:href="#id7" x1="7813.99" y1="198.026" x2="7856.76" y2="193.651">
  </linearGradient>
  <linearGradient id="id49" gradientUnits="userSpaceOnUse" xlink:href="#id4" x1="7813.95" y1="198.114" x2="7856.73" y2="193.747">
  </linearGradient>
  <linearGradient id="id50" gradientUnits="userSpaceOnUse" x1="7625.3" y1="204.055" x2="8006.23" y2="204.055">
   <stop offset="0" style="stop-opacity:1; stop-color:#930B0B"/>
   <stop offset="1" style="stop-opacity:1; stop-color:#18040B"/>
  </linearGradient>
  <linearGradient id="id51" gradientUnits="userSpaceOnUse" x1="7625.89" y1="208.973" x2="8005.93" y2="208.973">
   <stop offset="0" style="stop-opacity:1; stop-color:#4B0505"/>
   <stop offset="1" style="stop-opacity:1; stop-color:#0B0205"/>
  </linearGradient>
  <linearGradient id="id52" gradientUnits="userSpaceOnUse" xlink:href="#id12" x1="7625.88" y1="206.156" x2="8005.95" y2="206.156">
  </linearGradient>
  <linearGradient id="id53" gradientUnits="userSpaceOnUse" xlink:href="#id51" x1="7625.93" y1="209.017" x2="8005.94" y2="209.017">
  </linearGradient>
  <linearGradient id="id54" gradientUnits="userSpaceOnUse" x1="7625.89" y1="208.999" x2="8005.95" y2="208.999">
   <stop offset="0" style="stop-opacity:1; stop-color:#660707"/>
   <stop offset="1" style="stop-opacity:1; stop-color:#0E0207"/>
  </linearGradient>
  <linearGradient id="id55" gradientUnits="userSpaceOnUse" x1="7530.42" y1="85.1521" x2="7593.17" y2="87.2085">
   <stop offset="0" style="stop-opacity:1; stop-color:#ADAFB2"/>
   <stop offset="1" style="stop-opacity:1; stop-color:#C4C6C8"/>
  </linearGradient>
  <linearGradient id="id56" gradientUnits="userSpaceOnUse" xlink:href="#id13" x1="7625.88" y1="208.999" x2="8005.95" y2="208.999">
  </linearGradient>
  <linearGradient id="id57" gradientUnits="userSpaceOnUse" xlink:href="#id50" x1="7625.89" y1="208.999" x2="8005.96" y2="208.999">
  </linearGradient>
  <linearGradient id="id58" gradientUnits="userSpaceOnUse" xlink:href="#id12" x1="7625.9" y1="208.168" x2="8005.94" y2="208.168">
  </linearGradient>
  <linearGradient id="id59" gradientUnits="userSpaceOnUse" xlink:href="#id2" x1="7886.89" y1="89.7725" x2="8005.95" y2="89.7725">
  </linearGradient>
  <linearGradient id="id60" gradientUnits="userSpaceOnUse" xlink:href="#id6" x1="7886.89" y1="89.7637" x2="8005.94" y2="89.7637">
  </linearGradient>
  <linearGradient id="id61" gradientUnits="userSpaceOnUse" xlink:href="#id40" x1="7968.16" y1="290.328" x2="7884.43" y2="311.224">
  </linearGradient>
  <linearGradient id="id62" gradientUnits="userSpaceOnUse" x1="7960.54" y1="290.328" x2="7882.65" y2="311.224">
   <stop offset="0" style="stop-opacity:1; stop-color:#5E5E61"/>
   <stop offset="1" style="stop-opacity:1; stop-color:#1C191A"/>
  </linearGradient>
  <linearGradient id="id63" gradientUnits="userSpaceOnUse" xlink:href="#id12" x1="7625.86" y1="208.964" x2="8005.96" y2="208.964">
  </linearGradient>
  <linearGradient id="id64" gradientUnits="userSpaceOnUse" xlink:href="#id15" x1="7625.88" y1="208.991" x2="8005.96" y2="208.991">
  </linearGradient>
  <linearGradient id="id65" gradientUnits="userSpaceOnUse" x1="7625.89" y1="208.991" x2="8005.96" y2="208.991">
   <stop offset="0" style="stop-opacity:1; stop-color:#960A0A"/>
   <stop offset="1" style="stop-opacity:1; stop-color:#15040A"/>
  </linearGradient>
  <linearGradient id="id66" gradientUnits="userSpaceOnUse" xlink:href="#id11" x1="7625.89" y1="208.912" x2="8005.84" y2="208.912">
  </linearGradient>
  <linearGradient id="id67" gradientUnits="userSpaceOnUse" xlink:href="#id15" x1="7625.87" y1="208.999" x2="8005.95" y2="208.999">
  </linearGradient>
 </defs>
 <g id="Layer_x0020_1">
  <metadata id="CorelCorpID_0Corel-Layer"/>
  <g id="_539671088">
   <path class="fil0" d="M7795 593c-147,0 -266,-19 -266,-42 0,-22 119,-41 266,-41 148,0 267,19 267,41 0,23 -119,42 -267,42zm6 -81c-142,0 -259,17 -259,39 0,22 117,40 259,40 141,0 255,-18 255,-40 0,-22 -114,-39 -255,-39z"/>
   <path class="fil1" d="M7801 591c-142,0 -259,-18 -259,-40 0,-22 117,-39 259,-39 141,0 255,17 255,39 0,22 -114,40 -255,40zm5 -78c-136,0 -250,17 -250,38 0,21 114,38 250,38 136,0 245,-17 245,-38 0,-21 -109,-38 -245,-38z"/>
   <path class="fil2" d="M7806 589c-136,0 -250,-17 -250,-38 0,-21 114,-38 250,-38 136,0 245,17 245,38 0,21 -109,38 -245,38zm5 -74c-129,0 -241,16 -241,36 0,20 112,37 241,37 130,0 234,-17 234,-37 0,-20 -104,-36 -234,-36z"/>
   <path class="fil3" d="M7811 588c-129,0 -241,-17 -241,-37 0,-20 112,-36 241,-36 130,0 234,16 234,36 0,20 -104,37 -234,37zm6 -72c-124,0 -234,16 -234,35 0,20 110,35 234,35 124,0 222,-15 222,-35 0,-19 -98,-35 -222,-35z"/>
   <path class="fil4" d="M7817 586c-124,0 -234,-15 -234,-35 0,-19 110,-35 234,-35 124,0 222,16 222,35 0,20 -98,35 -222,35zm5 -68c-118,0 -225,15 -225,33 0,19 107,34 225,34 118,0 212,-15 212,-34 0,-18 -94,-33 -212,-33z"/>
   <path class="fil5" d="M7822 585c-118,0 -225,-15 -225,-34 0,-18 107,-33 225,-33 118,0 212,15 212,33 0,19 -94,34 -212,34zm6 -66c-113,0 -217,14 -217,32 0,18 104,32 217,32 112,0 200,-14 200,-32 0,-18 -88,-32 -200,-32z"/>
   <path class="fil6" d="M7828 583c-113,0 -217,-14 -217,-32 0,-18 104,-32 217,-32 112,0 200,14 200,32 0,18 -88,32 -200,32zm5 -63c-106,0 -209,14 -209,31 0,17 103,30 209,30 106,0 190,-13 190,-30 0,-17 -84,-31 -190,-31z"/>
   <path class="fil7" d="M7833 581c-106,0 -209,-13 -209,-30 0,-17 103,-31 209,-31 106,0 190,14 190,31 0,17 -84,30 -190,30zm5 -59c-100,0 -200,13 -200,29 0,16 100,29 200,29 101,0 179,-13 179,-29 0,-16 -78,-29 -179,-29z"/>
   <path class="fil8" d="M7838 580c-100,0 -200,-13 -200,-29 0,-16 100,-29 200,-29 101,0 179,13 179,29 0,16 -78,29 -179,29zm6 -57c-95,0 -192,13 -192,28 0,15 97,27 192,27 95,0 167,-12 167,-27 0,-15 -72,-28 -167,-28z"/>
   <path class="fil9" d="M7844 578c-95,0 -192,-12 -192,-27 0,-15 97,-28 192,-28 95,0 167,13 167,28 0,15 -72,27 -167,27zm5 -53c-89,0 -184,11 -184,26 0,14 95,26 184,26 89,0 157,-12 157,-26 0,-15 -68,-26 -157,-26z"/>
   <path class="fil10" d="M7849 577c-89,0 -184,-12 -184,-26 0,-15 95,-26 184,-26 89,0 157,11 157,26 0,14 -68,26 -157,26zm6 -51c-84,0 -176,11 -176,25 0,13 92,24 176,24 83,0 145,-11 145,-24 0,-14 -62,-25 -145,-25z"/>
   <path class="fil11" d="M7855 575c-84,0 -176,-11 -176,-24 0,-14 92,-25 176,-25 83,0 145,11 145,25 0,13 -62,24 -145,24zm5 -47c-77,0 -167,10 -167,22 0,13 90,23 167,23 77,0 135,-10 135,-23 0,-12 -58,-22 -135,-22z"/>
   <path class="fil12" d="M7860 573c-77,0 -167,-10 -167,-23 0,-12 90,-22 167,-22 77,0 135,10 135,22 0,13 -58,23 -135,23zm5 -44c-71,0 -159,10 -159,21 0,12 88,22 159,22 72,0 124,-10 124,-22 0,-11 -52,-21 -124,-21z"/>
   <path class="fil13" d="M7865 572c-71,0 -159,-10 -159,-22 0,-11 88,-21 159,-21 72,0 124,10 124,21 0,12 -52,22 -124,22zm6 -41c-66,0 -151,8 -151,19 0,11 85,20 151,20 65,0 112,-9 112,-20 0,-11 -47,-19 -112,-19z"/>
   <path class="fil14" d="M7871 570c-66,0 -151,-9 -151,-20 0,-11 85,-19 151,-19 65,0 112,8 112,19 0,11 -47,20 -112,20zm5 -38c-60,0 -142,8 -142,18 0,10 82,18 142,18 60,0 102,-8 102,-18 0,-10 -42,-18 -102,-18z"/>
   <path class="fil15" d="M7876 568c-60,0 -142,-8 -142,-18 0,-10 82,-18 142,-18 60,0 102,8 102,18 0,10 -42,18 -102,18zm5 -34c-54,0 -134,7 -134,16 0,9 80,17 134,17 54,0 91,-8 91,-17 0,-9 -37,-16 -91,-16z"/>
   <path class="fil16" d="M7881 567c-54,0 -134,-8 -134,-17 0,-9 80,-16 134,-16 54,0 91,7 91,16 0,9 -37,17 -91,17zm6 -32c-48,0 -126,7 -126,15 0,8 78,15 126,15 48,0 79,-7 79,-15 0,-8 -31,-15 -79,-15z"/>
   <path class="fil17" d="M7887 565c-48,0 -126,-7 -126,-15 0,-8 78,-15 126,-15 48,0 79,7 79,15 0,8 -31,15 -79,15zm5 -29c-42,0 -117,7 -117,14 0,7 75,14 117,14 43,0 69,-7 69,-14 0,-7 -26,-14 -69,-14z"/>
   <path class="fil18" d="M7892 564c-42,0 -117,-7 -117,-14 0,-7 75,-14 117,-14 43,0 69,7 69,14 0,7 -26,14 -69,14zm6 -26c-37,0 -110,5 -110,12 0,7 73,12 110,12 36,0 57,-5 57,-12 0,-7 -21,-12 -57,-12z"/>
   <path class="fil19" d="M7898 562c-37,0 -110,-5 -110,-12 0,-7 73,-12 110,-12 36,0 57,5 57,12 0,7 -21,12 -57,12zm5 -23c-31,0 -101,5 -101,11 0,6 70,10 101,10 31,0 47,-4 47,-10 0,-6 -16,-11 -47,-11z"/>
   <path class="fil20" d="M7903 560c-31,0 -101,-4 -101,-10 0,-6 70,-11 101,-11 31,0 47,5 47,11 0,6 -16,10 -47,10zm5 -19c-25,0 -92,4 -92,9 0,5 67,9 92,9 25,0 36,-4 36,-9 0,-5 -11,-9 -36,-9z"/>
   <path class="fil21" d="M7908 559c-25,0 -92,-4 -92,-9 0,-5 67,-9 92,-9 25,0 36,4 36,9 0,5 -11,9 -36,9z"/>
   <path class="fil22" d="M7920 440c-12,26 8,64 36,43l-4 -9c0,0 -31,19 -27,-34l-5 0z"/>
   <path class="fil23" d="M7927 448c-4,0 -9,-1 -11,-2l-1 0c3,-8 6,-24 8,-30 1,1 3,2 5,2 0,0 1,0 2,0 0,0 0,0 0,0 2,-1 4,-2 6,-3 -2,11 -3,22 -7,32 -1,0 -2,1 -2,1z"/>
   <path class="fil24" d="M7928 418c-2,0 -4,-1 -5,-2 0,0 -1,-1 -1,-1l0 -1c0,0 0,0 0,0 11,-10 14,-28 13,-43 3,-1 5,-1 8,-2 -3,15 -7,31 -13,49 -1,0 -2,0 -2,0zm17 -15l0 0 0 0 0 -1 1 0 0 0 0 -1 0 0 1 -1 0 0 0 0 0 -1 0 0 0 0 0 0 1 -1 0 0 0 0 0 0 0 -1 0 0c4,-8 8,-18 11,-31 0,0 0,0 0,0 3,-15 5,-33 5,-53 0,0 0,0 0,0 0,0 0,0 0,0l0 0 0 0 0 0 0 0 0 0 0 0 0 0 0 0 0 0 0 0c1,20 -2,38 -5,53 -3,13 -7,23 -11,31l0 0 0 1 0 0 0 0 0 0 -1 1 0 0 0 0 0 0 0 1 0 0 0 0 -1 1 0 0 0 1 0 0 -1 0 0 1 0 0 0 0zm19 -90l0 0 0 0 0 0 0 0 0 0 0 0 0 0 0 0zm0 0c0,0 0,0 0,0l0 0 0 0zm0 0l0 -1 0 -1 0 0 0 0 0 0 0 0 0 -2 0 0 0 0 0 0 0 -2 0 0 0 0 0 -1 0 -1 0 0 0 0 0 -1 0 0 0 0 0 0 0 -1 0 -1 0 0 0 0 0 -2 0 0 0 0c0,-1 0,-3 0,-4l0 0 0 0 0 -1 0 0 0 -1 0 0 0 0 0 0 0 0 0 0 0 0 0 0 0 0 0 0 0 0 0 0 0 0 0 0 0 0 0 0 0 0 0 0 0 0 0 0 0 0 0 0 0 0 0 0 0 0 0 0 0 0 0 0 0 0 0 0 0 0 0 0 0 0 0 0 0 0 0 1 0 0 0 1 0 0 0 0c0,1 0,3 0,4l0 0 0 0 0 2 0 0 0 0 0 1 0 1 0 0 0 0 0 0 0 1 0 0 0 0 0 1 0 1 0 0 0 0 0 2 0 0 0 0 0 0 0 2 0 0 0 0 0 0 0 0 0 1 0 1zm0 -19l0 0 0 0 0 0 0 0 0 0 0 0 0 0 0 0 0 0 0 0 0 0 0 0 0 0 0 0 0 0 0 0 0 0 0 0 0 0 0 0 0 0 0 0 0 0 0 0 0 0 0 0 0 0 0 0 0 0 0 0 0 0 0 0zm0 0l0 0 0 0 0 0 0 0zm0 0l0 0 0 -1 -1 -1 0 -1 0 0 0 -1 0 -1 0 0 0 -1 0 -1 0 -1 0 0 0 -1 0 0 0 -2 0 -1 0 0 0 -1 -1 -1c-1,-16 -4,-34 -9,-53 0,0 0,0 0,0 -1,-5 -3,-9 -4,-14 -1,-3 -2,-6 -3,-9l0 0 0 0 0 0 0 0 0 -1 0 0 0 0 0 0 0 0 0 0 0 -1 0 0 0 0 0 0 0 0 0 0 0 0 0 0 0 0 0 0 0 0 0 0 0 0 0 1 0 0 0 0 0 0 0 0 0 0 0 1 0 0 0 0 0 0 0 0c3,8 5,16 7,23 5,19 8,37 9,53l1 1 0 1 0 0 0 1 0 2 0 0 0 1 0 0 0 1 0 1 0 1 0 0 0 1 0 1 0 0 0 1 1 1 0 1 0 0zm-15 -81l0 0zm-27 190l0 -1 0 0 0 -1 0 0 0 0 0 0 0 -1 0 0 0 0 0 -1 0 0c0,-1 0,-2 0,-3l0 0c-1,-8 -2,-16 -3,-24 0,0 0,0 0,0 1,8 2,16 3,24l0 0c0,1 0,2 0,3l0 0 0 1 0 0 0 0 0 1 0 0 0 0 0 0 0 1 0 0 0 1zm-3 -31l0 0c0,-1 0,-1 0,-2l0 0 0 0 0 0 0 0 0 0 0 0 0 0 0 0c0,1 0,1 0,2l0 0zm-3 -2l0 0 0 0 0 0 0 0 -1 0 0 -1 0 0 0 0 0 0 0 0 0 0 0 0 0 0 -1 0 0 0 0 0 0 0 0 0 0 0 -1 0 0 0 0 0 0 0 0 0 0 0 0 0 0 0c-2,-1 -4,-2 -5,-4l0 0 -1 0 0 0 0 0 0 0 0 0 0 0 0 0 0 0 0 0 0 0 0 0 0 0 0 -1 0 0 -1 0 0 0 0 0 0 0 0 0 0 0 0 0 0 0 0 0 0 0 0 0 1 0 0 0 0 1 0 0 0 0 0 0 0 0 0 0 0 0 0 0 0 0 0 0 0 0 0 0 1 0 0 0c1,2 3,3 5,4l0 0 0 0 0 0 0 0 0 0 0 0 0 0 1 0 0 0 0 0 0 0 0 0 0 0 1 0 0 0 0 0 0 0 0 0 0 0 0 0 0 0 0 1 1 0 0 0 0 0 0 0 0 0zm-17 -23l0 0 0 0 0 0 0 0 0 0 0 0 0 0 0 0 0 0 0 0 0 0 0 0 0 0c0,-2 0,-3 0,-3 2,-6 1,-12 -2,-16l0 0 0 0 0 0 -1 0 0 0 0 0 1 0 0 0 0 0 0 0c2,3 3,6 3,10 0,2 0,4 -1,6 0,0 0,1 0,2l0 1 0 0 0 0 0 0 0 0 0 0 0 0 0 0 0 0 0 0 0 0 0 0 0 0 0 0zm-12 -27l-1 -1 0 0 0 0 0 0 0 0 0 0 0 0 0 0 0 0 0 0 0 0 0 0 0 0 0 0 0 -1 0 0 0 0 0 0 0 0 0 0 0 0 -1 0 0 0c0,-2 -1,-3 -2,-6 0,-1 0,-1 -1,-2l0 0 0 0 0 0 0 -1 0 0 0 0 0 0 0 0 0 0 0 0 0 0 0 0 0 0 0 0 0 0 0 0 0 0 0 0 0 0 0 0 0 0 0 0 0 0 0 0 0 0 0 0 0 0 0 0 0 0 0 0 0 0 0 0 0 0 0 0 0 1 0 0 0 0 0 0c1,1 1,1 1,2 1,3 2,4 2,6l0 0 1 0 0 0 0 0 0 0 0 0 0 0 0 0 0 1 0 0 0 0 0 0 0 0 0 0 0 0 0 0 0 0 0 0 0 0 0 0 0 0 0 0 1 1zm-4 -32l0 0 0 0 0 -1 0 0 0 0 0 0 0 0 -1 0 0 0 0 0 0 0 0 0 0 -1 0 0 0 0 0 0 0 0 0 0 0 0 0 0 0 0 0 0 0 0 0 0 0 0 0 0 0 0 0 0 0 0 0 -1 0 0 0 0 0 0 0 0 0 0 0 0 0 0 0 0 0 0 0 0 0 0 0 0 0 0 0 0 0 0 0 0 -1 0 0 0 0 0 0 0 0 -1 0 0 0 0 0 0 0 0 0 0 0 0 0 0 0 0 0 0 0 0 0 0 0 0 0 -1 0 0 0 0 0 0 0 0 0 0 -1 0 0 0 0 0 0 0 0 0 0 0 0 0 0 0 0 0 0 0 0 0 0 0 0 0 0 0 0 0 0 0 0 -1 0 0 0 0 0 0 0 0 0 0 0 0 0 0 0 0 0 0 0 0 0 0 0 0 0 0 0 0 0 0 0 0 0 1 0 0 0 0 0 0 0 0 0 0 0 0 0 0 0 0 0 0 0 0 0 0 0 0 0 0 0 0 0 0 1 0 0 0 0 0 0 0 0 0 0 0 0 1 0 0 0 0 0 0 0 0 0 0 0 0 0 0 0 0 0 0 0 0 0 0 0 0 0 1 0 0 0 0 0 0 1 0 0 0 0 0 0 0 0 0 0 0 0 0 0 0 0 0 0 0 0 0 0 0 0 0 0 0 0 0 0 0 0 0 0 1 0 0 0 0 0 0 0 0 0 0 0 0 0 0 0 0 0 0 0 0 0 0 0 0 0 0 0 0 0 0 0 0 0 1 0 0 0 0 0 0 0 0 1 0 0 0 0 0 0 0 0 0 0 1 0 0 0 0zm-14 -14l0 0 0 0 0 0 0 0 0 0 0 0 0 0 -1 0 0 0 0 0 0 0 0 0 0 0 0 -1 0 0 0 0 0 0 0 0 0 0 -1 -1 0 0c0,-1 -1,-2 -2,-4l0 0 0 0 0 0 0 0 0 0 0 -1 0 0 0 0 0 0 -1 0 0 0 0 0 0 0 0 0 0 0 0 -1 0 0 0 0 0 0 0 0 0 0 0 -1 0 1 0 0 0 0 0 0 0 0 0 0 0 1 0 0 0 0 0 0 0 0 0 0 1 0 0 0 0 0 0 0 0 1 0 0 0 0 0 0 0 0 0 0c1,2 2,3 2,4l0 0 1 1 0 0 0 0 0 0 0 0 0 0 0 1 0 0 0 0 0 0 0 0 0 0 1 0 0 0 0 0 0 0 0 0 0 0 0 0 0 0zm-5 -9l0 0 0 0 0 0 0 0 0 0 0 0 0 0 0 0 0 0 0 0 0 0 0 0 0 0 0 0zm31 -22c8,-5 22,-9 16,-10l1 0c0,0 0,0 0,0l-1 0c-12,-2 -24,-2 -36,-5 -11,-2 -21,-5 -30,-9 4,5 9,11 14,19l0 0 0 0 1 1 -1 -1 0 0 0 0c-5,-8 -10,-14 -14,-19 -4,-6 -7,-10 -9,-12l64 -2 -4 -20c0,0 0,0 0,0l4 20c0,0 6,3 15,11 5,5 11,12 17,22 -12,3 -25,4 -37,5zm1 -58l0 0zm-65 0l0 0 0 0 0 0 0 0zm0 0l0 0 0 0 0 0 0 0 0 -1 0 0 0 0 0 0 0 0 0 0c-2,-5 -5,-9 -7,-12 -4,-5 -8,-9 -12,-11l0 0 0 -1 0 0 0 0 -1 0 0 0 0 0 0 0 0 0 0 -1 -1 0 0 0 0 0 0 0 0 0 -1 0 1 0 0 0 0 0 0 0 0 0 1 0 0 1 0 0 0 0 0 0 0 0 1 0 0 0 0 0 0 1 0 0c4,2 8,6 12,11 0,0 0,0 0,0 2,3 5,7 7,12l0 0 0 0 0 0 0 0 0 0 0 1 0 0 0 0 0 0 0 0zm109 0l0 0 0 0 0 0 0 0 0 0 0 0 0 0 0 0 0 -1 0 0 0 0 0 0 0 0 0 0 0 0 0 0 0 0 0 0 0 0 0 0 0 0 0 0 0 0 0 0 0 0 0 0 0 0 0 0 0 0 0 0 0 0 -1 -2 0 0 0 0 0 0 0 0 0 0 0 0 0 0 0 0 0 0 0 0 0 0 0 0 0 0 0 0 1 2 0 0 0 0 0 0 0 0 0 0 0 0 0 0 0 0 0 0 0 0 0 0 0 0 0 0 0 0 0 0 0 0 0 0 0 0 0 0 0 0 0 0 0 0 0 1 0 0 0 0 0 0 0 0 0 0 0 0 0 0 0 0zm-2 -5l0 0c47,-10 68,-46 68,-89 0,0 0,0 0,0 0,0 0,0 0,0 0,-2 0,-4 0,-6 0,0 0,0 0,0 0,2 0,4 0,6 0,43 -21,79 -68,89zm68 -89l0 0zm0 -6c0,-1 0,-2 0,-3 0,1 0,2 0,3zm0 -3l0 0zm-199 75l0 0 0 0 0 0 0 0 0 0 0 0 0 0 0 0 0 0 0 0 0 0 0 0 0 0 0 0 -1 0 0 0 0 0 0 0 0 0 0 0 0 0 0 0 0 0 0 0 0 0 0 0 0 0 0 0 0 0 0 0 0 0 0 0 0 0 0 0 0 0 0 0 0 0 0 0 0 0 0 0 0 0 0 0 0 0 0 0 0 0 0 0 0 0 0 0 0 0 0 0 0 0 0 0 0 0 0 0 0 0 0 0 0 0 0 0 0 0 0 0 0 0 0 0 0 0 0 0 0 0 0 0 0 0 0 0 0 0 0 0 0 0 0 0 0 0 0 0 0 0 0 0 0 0 0 0 0 0 0 0 0 0 0 0 0 0 0 0 0 0 0 0 0 0 0 0 0 0 0 0 0 0 0 0 0 0 0 0 0 0 0 0 0 0 0 0 0 0 0 0 0 0 1 0 0 0 0 0 0 0 0 0 0 0 0 0 0 0 0 0 0 0 0 0 0 0 0 0 0 0 0 0zm-1 0l0 0 0 0zm0 0l0 0 0 0 0 0 0 0 0 0 0 0 0 0 0 0 0 0 0 0 0 0 0 0 0 0 0 0zm-1 -1l0 0 0 0 0 0 0 0 0 0 0 0 0 0 0 0 -1 0 0 0 0 0 0 0c0,0 0,0 0,0 -9,-2 -18,-4 -27,-6l0 0 -3 -1 0 0 -1 0 0 0c-5,-1 -9,-2 -14,-3 -1,0 -2,0 -4,0l0 0 0 -1 0 0 0 0 0 0 0 0 0 0 0 0 0 0 -1 0 0 0 0 0 0 0 0 0 0 0 0 0 0 0 0 0 0 0 0 0 0 0 0 0 0 0 0 0 0 0 -1 0 0 0 0 0 0 0 0 0 0 0 0 0 0 0 0 0 0 0 0 0 0 0 0 0 0 0 0 0 0 0 -1 0 0 0 0 0 0 0 0 0 0 0 0 0 0 0 0 0 0 0 0 0 0 0 0 0 -1 0 0 0 0 0 0 0 0 0 1 0 0 0 0 0 0 0 0 0 0 0 0 0 0 0 0 0 0 0 0 0 0 0 0 0 1 0 0 0 0 0 0 0 0 0 0 0 0 0 0 0 0 0 0 0 0 0 0 0 0 0 0 0 0 0 0 0 1 0 0 0 0 0 0 0 0 0 0 0 0 0 0 0 0 0 0 0 0 0 0 0 0 0 0 0 0 0 0 0 1 0 0 0 0 0 0 0 0 0 0 0 0 0 0 0 0 1 0 0 4 0c5,1 9,2 14,3l0 0 1 0 0 0 3 1 0 0c9,2 18,4 27,6 0,0 0,0 0,0l0 0 0 0 0 0 1 0 0 0 0 0 0 0 0 0 0 0 0 0 0 0 0 0zm-46 -10l0 0zm10 -9c6,-7 14,-18 18,-32 1,-6 2,-12 2,-18 0,-4 0,-7 0,-10 2,-1 4,-1 7,-1 10,-1 20,-2 31,-2 15,0 29,2 42,5 1,0 1,0 2,0 2,1 3,1 5,1 8,3 16,6 22,11 -36,22 -83,37 -129,46zm-93 -4l0 0 0 0 0 0 -1 0 0 0 0 0 0 0 0 0 0 0 -1 0 0 0 0 0 0 0 0 0 -1 0 0 0 0 0 0 0 0 0 0 0 -2 0 0 0 0 0 0 0 0 0 -1 0 0 0 0 -1 -1 0 0 0c-1,0 -2,0 -4,0l0 0 -3 0 0 0c-11,-1 -23,-2 -34,-2l0 0 0 0 0 0 0 0 0 0 0 0 0 0 0 0 1 0c8,0 16,1 25,1 0,0 0,0 0,0 0,0 0,0 0,0 2,0 5,1 8,1l0 0 0 0 3 0 0 0c2,0 3,0 4,0l0 0 1 0 0 1 0 0 1 0 0 0 0 0 0 0 0 0 2 0 0 0 0 0 0 0 0 0 0 0 1 0 0 0 0 0 0 0 0 0 1 0 0 0 0 0 0 0 0 0 0 0 1 0 0 0 0 0 0 0zm-49 -3l-1 0 0 0 0 0 0 0c0,0 0,0 0,0l0 0 0 0 1 0zm78 -88c18,-2 37,-5 54,-9 -17,4 -36,7 -54,9l0 0zm54 -9c36,-7 67,-15 85,-19 -18,4 -49,12 -85,19zm85 -19c0,-1 1,-1 2,-1 -1,0 -2,0 -2,1zm2 -1l0 0 0 0zm0 0l0 0 0 0 1 0 0 0 0 0 0 0 0 0 0 0 0 0 0 0 5 -2 0 0 0 0 0 0 0 0 0 0 0 0 0 0 0 0 0 0 0 0 0 0 0 0 0 0 0 0 0 0 0 0 0 0 0 0 0 0 0 0 0 0 0 0 0 0 0 0 0 0 0 0 0 0 0 0 0 0 0 0 0 0 0 0c-2,1 -3,1 -5,2l0 0 0 0 0 0 0 0 0 0 0 0 0 0 0 0 -1 0 0 0 0 0z"/>
   <path class="fil25" d="M7809 159c-1,-1 -2,-1 -2,-2 0,1 1,1 2,2zm-3 -2c0,0 -1,0 -1,-1 0,1 1,1 1,1z"/>
   <path class="fil26" d="M7896 185c0,0 0,0 0,0l-3 -18c-8,2 -16,3 -25,3 -32,0 -62,-13 -62,-13 4,2 11,6 18,15 0,0 0,0 0,0 -5,-7 -11,-11 -15,-13 -1,-1 -2,-1 -2,-2 -1,0 -1,0 -1,0 0,0 0,0 0,0 0,0 -1,0 -1,-1 -1,0 -1,0 -1,0 -14,-3 -29,-6 -45,-10 1,0 5,-3 10,-9 46,-9 93,-24 129,-46 2,1 3,2 4,3 13,10 28,15 42,15 1,0 1,0 2,0 1,17 -1,39 -4,54 0,0 -1,0 -1,0 -9,2 -23,6 -36,6 -4,0 -8,0 -12,-2l2 14 1 4zm110 -94c0,0 0,0 0,0 0,0 0,0 0,0l0 0z"/>
   <path class="fil27" d="M7942 163c3,-15 5,-37 4,-54 1,0 3,0 4,-1 1,14 0,30 -4,46 -1,3 -1,6 -2,9 -1,0 -1,0 -2,0z"/>
   <path class="fil28" d="M7887 2l0 0c0,0 0,0 0,0l0 0c0,0 0,0 0,0zm2 0c6,-1 10,-2 17,-2 1,0 2,0 3,0 -7,0 -14,1 -20,2z"/>
   <path class="fil29" d="M7944 163c1,-3 1,-6 2,-9 4,-16 5,-32 4,-46 1,0 2,0 3,0 19,-2 38,-11 53,-23 0,2 0,4 0,6 0,0 0,0 0,0 0,0 0,0 0,0 0,0 -16,61 -62,72zm62 -81c0,-1 -1,-1 -1,-2l0 0c0,1 1,1 1,2l0 0zm-1 -7c0,-1 0,-2 -1,-3 -3,-24 -15,-45 -36,-58 -3,-2 -7,-4 -11,-5 -10,-5 -21,-8 -34,-9 -4,0 -8,0 -12,0 -8,0 -16,1 -24,2l0 0c0,0 0,0 0,0 0,0 1,0 2,0 6,-1 13,-2 20,-2 1,0 2,0 2,0 58,0 88,32 94,75l0 0z"/>
   <path class="fil30" d="M7751 145c-24,-5 -50,-9 -75,-12 21,2 41,6 62,9 0,0 0,0 0,0 0,0 0,0 0,0 1,0 2,1 4,1 3,1 6,1 9,2zm-125 -15l0 0 0 0 0 0z"/>
   <path class="fil31" d="M7759 146c-2,0 -5,-1 -8,-1 -3,-1 -6,-1 -9,-2 6,1 12,2 17,3l0 0zm-21 -4c0,0 0,0 0,0 -21,-3 -41,-7 -62,-9 -5,0 -10,-1 -14,-1 -3,0 -6,-1 -8,-1 12,-8 26,-20 27,-34 17,-4 53,-13 89,-18 6,-1 12,-2 18,-2 0,0 0,0 1,0 0,3 0,6 0,10 0,6 -1,12 -2,18 -4,14 -12,25 -18,32 -11,2 -21,4 -31,5zm-84 -11c-9,0 -17,-1 -25,-1 0,0 0,0 0,0 9,0 14,0 25,1zm-28 -1c0,0 0,0 0,0l0 0c0,0 0,0 0,0l0 0z"/>
   <path class="fil32" d="M7742 143c-2,0 -3,-1 -4,-1 0,0 0,0 0,0 1,0 2,1 4,1z"/>
   <path class="fil33" d="M7759 146l0 0c-5,-1 -11,-2 -17,-3 -2,0 -3,-1 -4,-1 10,-1 20,-3 31,-5 -5,6 -9,9 -10,9z"/>
   <path class="fil34" d="M7639 49c2,0 4,0 7,0 19,-1 39,-4 59,-7 -20,3 -40,6 -59,7 0,0 0,0 0,0 -3,0 -5,0 -7,0l0 0zm66 -7c0,0 0,0 0,0 0,0 0,0 0,0z"/>
   <path class="fil35" d="M7852 11c4,-1 6,-1 6,-1l1 0c8,-4 18,-6 28,-8l0 0c0,0 0,0 0,0 0,0 0,0 0,0 -10,2 -20,4 -28,8l-1 0c0,0 -2,0 -6,1z"/>
   <path class="fil36" d="M7847 13c2,-1 4,-1 5,-2 4,-1 6,-1 6,-1l1 0c8,-4 18,-6 28,-8 0,0 0,0 0,0 0,0 0,0 0,0 -9,2 -18,4 -27,7l0 0c-1,1 -6,2 -13,4z"/>
   <path class="fil37" d="M7887 2c0,0 0,0 0,0 0,0 0,0 0,0 0,0 0,0 0,0l0 0z"/>
   <path class="fil38" d="M7887 2c0,0 0,0 0,0l0 0c0,0 0,0 0,0 0,0 0,0 0,0z"/>
   <path class="fil39" d="M8004 72c-1,-7 -3,-14 -5,-21l0 0c-6,-15 -17,-28 -31,-37 21,13 33,34 36,58zm-117 -70c0,0 0,0 0,0 0,0 0,0 0,0 8,-1 16,-2 24,-2 4,0 8,0 12,0 -3,0 -5,0 -8,0 0,0 -1,0 -2,0l0 0c-9,0 -17,1 -24,2 -1,0 -1,0 -2,0z"/>
   <path class="fil40" d="M7898 91c-6,-5 -14,-8 -22,-11 -2,0 -3,0 -5,-1 -1,0 -1,0 -2,0 -13,-3 -27,-5 -42,-5 -11,0 -21,1 -31,2 -3,0 -5,0 -7,1 -1,-1 -1,-2 -1,-2 0,-1 0,-1 0,-2 2,0 5,0 8,-1 9,0 19,-1 29,-1 15,0 29,1 42,4 1,0 2,0 3,0 1,0 3,1 4,1 10,3 19,6 26,11 0,0 1,1 2,1 -1,1 -2,2 -4,3zm108 -6c0,-1 0,-2 0,-3 0,1 0,2 0,3 0,0 0,0 0,0zm-1 -5c0,0 0,-1 0,-1 0,-2 0,-3 0,-4 0,1 0,2 0,4 0,0 0,1 0,1zm-300 -38c0,0 0,0 0,0 0,0 0,0 0,0zm0 0c18,-2 37,-5 54,-9 36,-7 67,-15 85,-19 0,-1 1,-1 2,-1l0 0c1,0 1,0 1,0 -17,4 -50,13 -88,20l0 0c-17,4 -36,7 -54,9z"/>
   <path class="fil41" d="M7944 109c-14,0 -29,-5 -42,-15 -1,-1 -2,-2 -4,-3 2,-1 3,-2 4,-3 12,7 25,10 39,10 1,0 2,0 3,0 1,3 1,7 2,11 -1,0 -1,0 -2,0z"/>
   <path class="fil42" d="M7946 109c-1,-4 -1,-8 -2,-11 2,0 3,0 5,0l0 0c0,3 1,7 1,10 -1,1 -3,1 -4,1z"/>
   <path class="fil43" d="M7950 108c0,-3 -1,-7 -1,-10 20,-2 40,-10 56,-19 0,-3 0,-5 -1,-7 1,1 1,2 1,3 0,1 0,2 0,4 0,0 0,1 0,1 0,1 1,1 1,2 0,1 0,2 0,3 -15,12 -34,21 -53,23 -1,0 -2,0 -3,0zm18 -94c-12,-7 -27,-12 -45,-14 13,1 24,4 34,9 4,1 8,3 11,5z"/>
   <path class="fil44" d="M7681 97c1,-1 1,-2 1,-4 0,-1 0,-3 0,-4 12,-2 50,-10 89,-14 5,-1 11,-2 17,-2l0 0c0,1 0,1 0,2 0,0 0,1 1,2 -1,0 -1,0 -1,0 -6,0 -12,1 -18,2 -36,5 -72,14 -89,18z"/>
   <path class="fil45" d="M7646 49c0,0 0,0 0,0 19,-1 39,-4 59,-7 0,0 0,0 0,0 0,0 0,0 0,0 7,-1 13,-2 20,-3l0 0 1 0 1 0 0 0 0 0 1 0 1 0 0 0 1 -1 1 0 0 0 1 0 0 0 1 0 0 0 1 0 0 0 1 0 1 -1 0 0 1 0 0 0 1 0 0 0 1 0 1 0 0 0 1 0 0 -1 0 0 1 0 1 0 0 0 1 0 1 0 0 0 1 0 1 -1 0 0 1 0 0 0 1 0 1 0 0 0 0 0 2 -1 0 0 1 0 0 0 1 0 1 0 0 0 0 0 1 0 1 -1 0 0 1 0 1 0 -1 0 -1 0 0 0 -1 1 -1 0 0 0 0 0 -1 0 -1 0 0 0 -1 0 0 0 -2 1 0 0 0 0 -1 0 -1 0 0 0 -1 0 0 0 -1 1 -1 0 0 0 -1 0 -1 0 0 0 -1 0 -1 0 0 0 0 1 -1 0 0 0 -1 0 -1 0 0 0 -1 0 0 0 -1 0 0 0 -1 1 -1 0 0 0 -1 0 0 0 -1 0 0 0 -1 0 0 0 -1 0 -1 1 0 0 -1 0 -1 0 0 0 0 0 -1 0 -1 0 0 0c-27,5 -54,8 -79,10zm113 -16l0 0z"/>
   <path class="fil46" d="M7902 88c-1,0 -2,-1 -2,-1 -7,-5 -16,-8 -26,-11 -1,0 -3,-1 -4,-1 -1,0 -2,0 -3,0 -13,-3 -27,-4 -42,-4 -10,0 -20,1 -29,1 -3,1 -6,1 -8,1l0 0c-2,-8 -5,-15 -9,-20 9,-2 18,-5 25,-6 25,-7 50,-12 74,-20 -6,-2 -12,-3 -19,-3 -27,0 -60,13 -88,20 -6,-6 -12,-9 -12,-9l0 -2c38,-7 71,-16 88,-20 7,-2 12,-3 13,-4l0 0c9,-3 18,-5 27,-7 16,12 33,32 46,61 -9,9 -19,18 -31,25z"/>
   <path class="fil47" d="M7941 98c-14,0 -27,-3 -39,-10 12,-7 22,-16 31,-25 4,10 8,22 11,35 0,0 0,0 0,0 -1,0 -2,0 -3,0z"/>
   <path class="fil48" d="M7933 63c-13,-29 -30,-49 -46,-61 0,0 0,0 0,0 15,11 36,30 49,56 -1,2 -2,3 -3,5z"/>
   <path class="fil49" d="M7944 98c0,0 0,0 0,0 -3,-13 -7,-25 -11,-35 1,-2 2,-3 3,-5 6,12 11,25 13,40 0,0 0,0 0,0 0,0 0,0 0,0 -2,0 -3,0 -5,0z"/>
   <path class="fil50" d="M7949 98c0,0 0,0 0,0 -2,-15 -7,-28 -13,-40 -13,-26 -34,-45 -49,-56 1,0 1,0 2,0 7,-1 15,-2 24,-2l0 0c1,0 2,0 2,0 3,0 5,0 8,0 18,2 33,7 45,14 14,9 25,22 31,37l0 0c2,7 4,14 5,21 1,2 1,4 1,7 -16,9 -36,17 -56,19l0 0z"/>
   <path class="fil51" d="M7682 89c-2,-20 -15,-36 -36,-40 36,-2 76,-9 113,-16l0 2c0,0 6,3 12,9 -7,2 -14,4 -20,4 0,0 -29,5 -41,5 -1,0 -1,0 -1,0 -2,0 -4,0 -5,0 -6,0 -6,2 -2,10 0,2 4,3 9,3 15,0 44,-7 68,-13 4,5 7,12 9,20 -6,0 -12,1 -17,2 -39,4 -77,12 -89,14zm77 -56l0 0zm29 40l0 0z"/>
   <path class="fil52" d="M7630 49c0,0 0,0 0,0 3,0 6,0 9,0 -3,0 -6,0 -9,0z"/>
   <path class="fil53" d="M7654 131c0,0 0,0 0,0 0,0 0,0 0,0 0,0 0,0 0,0z"/>
   <path class="fil54" d="M7654 131c0,0 0,0 0,0 -11,-1 -16,-1 -25,-1 26,-1 44,-14 48,-32 1,0 3,-1 4,-1 -1,14 -15,26 -27,34z"/>
   <polygon class="fil55" points="7626,130 7626,130 7626,130 7626,130 "/>
   <path class="fil56" d="M7626 130l0 0c0,0 0,0 0,0 0,0 0,0 0,0z"/>
   <path class="fil57" d="M7639 49c2,0 4,0 7,0 0,0 0,0 0,0 -3,0 -5,0 -7,0z"/>
   <path class="fil58" d="M7677 98c0,-3 1,-5 1,-8l0 0c0,0 1,-1 4,-1 0,1 0,3 0,4 0,2 0,3 -1,4 -1,0 -3,1 -4,1z"/>
   <path class="fil59" d="M7630 49c0,0 0,0 0,0 3,0 6,0 9,0 2,0 4,0 7,0 0,0 0,0 0,0 -5,0 -11,0 -16,0z"/>
   <path class="fil60" d="M7678 90l0 0c0,0 0,0 0,0 0,-22 -19,-39 -48,-41 5,0 11,0 16,0 21,4 34,20 36,40 -3,0 -4,1 -4,1z"/>
   <path class="fil61" d="M7627 130c0,0 0,0 0,0 -1,0 -1,0 -1,0l0 0c0,0 0,0 0,0l0 0c-2,0 -6,-1 -11,-2 -6,-7 -11,-14 -14,-22 15,2 29,3 35,4 0,0 1,0 1,0 13,0 23,-16 23,-23 0,-8 -12,-19 -23,-19l-1 0 0 0c-5,0 -21,1 -36,2 1,-6 3,-12 7,-17 10,-2 16,-4 20,-4 1,0 2,0 3,0 0,0 0,0 0,0 0,0 0,0 0,0 29,2 48,19 48,41 0,0 0,0 0,0 0,3 -1,5 -1,8 -4,18 -22,31 -48,32 0,0 0,0 0,0 0,0 -1,0 -1,0 0,0 0,0 -1,0zm-1 0l0 0zm-11 -2l0 0zm45 -41l0 0zm-53 -34c-22,6 -51,15 -57,22 6,-7 35,-16 57,-22zm-57 22l-3 23 3 -23zm-3 23l0 0zm83 -49l0 0zm0 0l0 0z"/>
   <path class="fil62" d="M7615 128c-22,-5 -60,-17 -68,-27 0,-1 0,-2 0,-3l3 -23c6,-7 35,-16 57,-22 -4,5 -6,11 -7,17 -22,1 -45,3 -45,3 -8,0 12,6 12,14 0,7 -22,14 -15,14 0,0 1,0 3,0 7,1 27,3 46,5 3,8 8,15 14,22zm-60 -27l0 0z"/>
   <path class="fil63" d="M7620 103c-10,0 -20,-6 -30,-7 -1,-1 -3,-1 -6,-1 -9,0 -20,2 -29,6l0 0c-2,0 -3,0 -3,0 -7,0 15,-7 15,-14 0,-8 -20,-14 -12,-14 0,0 23,-2 45,-3 15,-1 31,-2 36,-2l0 0 1 0c11,0 23,11 23,19l0 0c0,-8 -12,-19 -23,-19l-1 0 0 0c11,10 7,32 -14,35 -1,0 -1,0 -2,0z"/>
   <path class="fil64" d="M7637 110c0,0 -1,0 -1,0 -6,-1 -20,-2 -35,-4 -19,-2 -39,-4 -46,-5 9,-4 20,-6 29,-6 3,0 5,0 6,1 10,1 20,7 30,7 1,0 1,0 2,0 21,-3 25,-25 14,-35l0 0 1 0c11,0 23,11 23,19 0,7 -10,23 -23,23z"/>
   <path class="fil65" d="M7526 87c0,7 6,14 14,14l65 0c8,0 14,-7 14,-14 0,-8 -6,-14 -14,-14l-65 0c-8,0 -14,6 -14,14z"/>
   <path class="fil66" d="M7540 96c-5,0 -9,-4 -9,-9 0,-5 4,-10 9,-10l65 0c5,0 10,5 10,10 0,5 -5,9 -10,9l-65 0z"/>
   <path class="fil67" d="M7919 372c0,0 0,0 0,0 0,-1 0,-1 0,-2 0,1 0,2 0,2 0,0 0,0 0,0 0,0 0,0 0,0zm16 -1c0,-1 0,-2 0,-3 0,-2 -1,-5 -1,-8 -3,-14 11,-48 2,-50 -3,0 -6,0 -8,0 -58,0 3,-39 -7,-42 -39,-10 -36,-19 -26,-25 12,-1 25,-2 37,-5 0,0 1,1 1,2 5,8 9,18 12,30 2,9 4,19 4,31 0,4 1,9 0,14 0,14 -1,30 -5,48 0,2 -1,4 -1,6 -3,1 -5,1 -8,2zm24 -5c3,-15 5,-33 5,-53 0,20 -2,38 -5,53 0,0 0,0 0,0zm5 -53c0,0 0,0 0,0 0,0 0,0 0,0zm0 0c0,0 0,0 0,0 0,0 0,0 0,0zm0 -19c0,0 0,0 0,0 0,0 0,0 0,0zm0 0c0,0 0,0 0,0 0,0 0,0 0,0zm0 0c-2,-20 -5,-42 -11,-67 0,0 0,0 0,0 6,25 9,47 11,67zm-100 -48c0,-1 -1,-2 -1,-2 0,0 0,-1 0,-1 0,0 0,0 0,0 0,1 1,2 1,3z"/>
   <path class="fil68" d="M7836 207c0,0 0,-1 -1,-1 1,0 1,1 1,1 0,0 0,0 0,0l0 0zm-1 -1c0,0 0,0 0,-1 0,-7 -2,-14 -4,-20 2,6 4,13 4,20 0,1 0,1 0,1zm-4 -21c0,0 0,0 0,0 0,0 0,0 0,0z"/>
   <path class="fil69" d="M7836 207c0,0 0,0 0,0 0,0 0,-1 -1,-1 0,0 0,0 0,0 0,0 0,0 0,-1 0,-7 -2,-14 -4,-20 0,0 0,0 0,0 0,0 0,0 0,0 -2,-5 -4,-10 -7,-13 21,5 42,9 63,12 2,0 6,0 9,1l4 20 -64 2zm19 -6c0,0 0,0 0,0l18 0c4,0 8,-3 8,-7 0,-4 -4,-8 -8,-8l-18 0c0,0 0,0 0,0l-9 0c-2,0 -4,1 -5,2 -2,2 -2,4 -2,6 0,3 1,5 3,6 1,1 3,1 4,1l9 0zm-13 -1l0 0z"/>
   <path class="fil70" d="M7896 185c-3,-1 -7,-1 -9,-1 -21,-3 -42,-7 -63,-12 -7,-9 -14,-13 -18,-15 0,0 30,13 62,13 9,0 17,-1 25,-3l3 18z"/>
   <path class="fil71" d="M7873 201l-18 0c0,0 0,0 0,0l9 0c4,0 8,-3 8,-7 0,-4 -4,-8 -8,-8l-9 0c0,0 0,0 0,0l18 0c4,0 8,4 8,8 0,4 -4,7 -8,7zm-1 -7l0 0z"/>
   <path class="fil72" d="M7842 200l0 0c-2,-1 -3,-3 -3,-6 0,-2 0,-4 2,-6 1,-1 3,-2 5,-2l13 0c-1,8 -8,14 -17,14zm17 -14l5 0 -5 0zm5 0c4,0 8,4 8,8 0,-4 -4,-8 -8,-8zm8 8l0 0z"/>
   <path class="fil73" d="M7864 201l-18 0c-1,0 -3,0 -4,-1 9,0 16,-6 17,-14l5 0c4,0 8,4 8,8 0,4 -4,7 -8,7z"/>
   <path class="fil74" d="M7936 415c0,0 0,0 0,0 3,-3 6,-7 9,-12 -3,5 -6,9 -9,12z"/>
   <path class="fil75" d="M7930 418c0,0 0,0 0,0 0,0 0,0 0,0 2,-1 4,-2 6,-3 0,0 0,0 0,0 -2,1 -4,2 -6,3z"/>
   <path class="fil76" d="M7930 418c6,-18 10,-34 13,-49 5,-1 11,-2 16,-3 -4,16 -9,28 -14,37 -3,5 -6,9 -9,12 -2,1 -4,2 -6,3 0,0 0,0 0,0zm34 -105c0,0 0,0 0,0 0,0 0,0 0,0zm0 0c0,0 0,0 0,0 0,0 0,0 0,0zm0 0c0,-6 0,-12 0,-19 0,7 0,13 0,19zm0 -19c0,0 0,0 0,0 0,0 0,0 0,0zm0 0c0,0 0,0 0,0 0,0 0,0 0,0zm-32 -56c-6,-10 -12,-17 -17,-22 -9,-8 -15,-11 -15,-11l0 0 -4 -20 0 0c15,4 35,12 53,28l0 0c1,5 3,9 4,14 -4,5 -12,8 -20,11 -1,0 -1,0 -1,0z"/>
   <path class="fil77" d="M7946 202c-2,-4 -3,-7 -4,-11 -1,-2 -1,-4 -2,-6 2,6 4,11 6,17zm-7 -20c0,-1 -1,-2 -1,-2l0 0 0 0c0,0 1,1 1,2z"/>
   <path class="fil78" d="M7949 213c-18,-16 -38,-24 -53,-28l-1 -4 -2 -14c4,2 8,2 12,2 13,0 27,-4 36,-6 0,0 1,0 1,0 -1,8 -3,13 -4,16 0,0 0,0 0,1 0,0 0,0 0,0 0,0 0,0 0,0l0 0c0,0 1,1 1,2 0,1 1,2 1,3 1,2 1,4 2,6 1,4 2,7 4,11 1,3 2,7 3,11zm-53 -28l0 0zm42 -5l0 0z"/>
   <path class="fil79" d="M7938 180l0 0zm0 0c0,0 0,0 0,0 3,-1 5,-2 8,-2 -3,0 -5,1 -8,2l0 0zm0 -1c1,-3 3,-8 4,-16 1,0 1,0 2,0 -2,5 -4,11 -6,16z"/>
   <path class="fil80" d="M7938 180c0,-1 0,-1 0,-1 2,-5 4,-11 6,-16 46,-11 62,-72 62,-72 0,41 -19,75 -60,87 -3,0 -5,1 -8,2 0,0 0,0 0,0z"/>
   <path class="fil81" d="M7943 369c0,-2 1,-4 1,-6 4,-18 5,-34 5,-48 1,-5 0,-10 0,-14 0,-12 -2,-22 -4,-31 -3,-12 -7,-22 -12,-30 0,-1 -1,-2 -1,-2 0,0 0,0 1,0 8,-3 16,-6 20,-11 6,25 9,47 11,67 0,0 0,0 0,0 0,0 0,0 0,0 0,0 0,0 0,0 0,0 0,0 0,0 0,7 0,13 0,19 0,0 0,0 0,0 0,0 0,0 0,0 0,0 0,0 0,0 0,0 0,0 0,0 0,20 -2,38 -5,53 -5,1 -11,2 -16,3z"/>
   <path class="fil82" d="M7912 233l-1 0 1 0c0,0 0,0 0,0z"/>
   <path class="fil83" d="M7922 414c0,-4 0,-7 0,-11 0,4 0,7 0,11 0,0 0,0 0,0z"/>
   <path class="fil84" d="M7922 414c0,-4 0,-7 0,-11 0,-11 -1,-21 -3,-31 5,0 11,0 16,-1 1,15 -2,33 -13,43z"/>
   <path class="fil85" d="M7863 243c0,0 0,0 0,0 -1,-1 -2,-3 -3,-4 1,1 2,3 3,4l0 0z"/>
   <path class="fil86" d="M7875 243c-4,0 -8,0 -10,0l0 0c-1,0 -2,0 -2,0l0 0c-1,-1 -2,-3 -3,-4 -6,-8 -11,-15 -15,-20 9,4 19,7 30,9 12,3 24,3 36,5 6,1 -8,5 -16,10 -8,0 -14,0 -20,0z"/>
   <path class="fil87" d="M7919 372c0,0 0,-1 0,-2 -9,-1 -16,-6 -18,-15 -2,-4 -2,-7 -2,-9 0,-1 0,-2 0,-2 1,-2 1,-4 1,-6 0,-5 -2,-11 -7,-13 0,0 -7,-3 -10,-13 -1,-3 -1,-7 -1,-9 0,-3 0,-5 0,-5 1,-2 1,-4 1,-6 0,-6 -3,-11 -7,-13 0,0 -9,-3 -12,-14 -1,-2 -1,-6 -1,-9 0,-3 0,-7 1,-10 0,-1 -1,-2 -1,-3 0,0 0,0 0,0 0,0 1,0 2,0l0 0c2,0 6,0 10,0 6,0 12,0 20,0 -10,6 -13,15 26,25 10,3 -51,42 7,42 2,0 5,0 8,0 9,2 -5,36 -2,50 0,3 1,6 1,8 0,1 0,2 0,3 -5,1 -11,1 -16,1zm0 -2l0 0zm-55 -124l0 0z"/>
   <path class="fil88" d="M7646 147l1 0 0 0c-1,0 -1,0 -1,0z"/>
   <g style="clip-path:url(#id0)">
    <image x="7768" y="21" width="113.908" height="34.5687" xlink:href="1648-line-a3378752-69b4-495d-af46-ef83a56b5b1b_Images\1648-line-a3378752-69b4-495d-af46-ef83a56b5b1b_ImgID1.png"/>
   </g>
   <g style="clip-path:url(#id1)">
    <image x="7694" y="40" width="88.8781" height="29.8462" xlink:href="1648-line-a3378752-69b4-495d-af46-ef83a56b5b1b_Images\1648-line-a3378752-69b4-495d-af46-ef83a56b5b1b_ImgID2.png"/>
   </g>
  </g>
  <g id="_539687168">
   <g>
    <rect class="fil89" x="388" y="205" width="7064.87" height="74.0914" rx="140" ry="36"/>
    <path class="fil90" d="M409 195l7022 0c12,0 22,10 22,22l0 1c0,12 -10,22 -22,22l-7022 0c-12,0 -21,-10 -21,-22l0 -1c0,-12 9,-22 21,-22z"/>
   </g>
   <g>
    <rect class="fil89" x="388" y="323" width="7064.87" height="74.0914" rx="140" ry="36"/>
    <path class="fil90" d="M409 314l7022 0c12,0 22,10 22,22l0 1c0,12 -10,21 -22,21l-7022 0c-12,0 -21,-9 -21,-21l0 -1c0,-12 9,-22 21,-22z"/>
   </g>
  </g>
  <g id="_539688632">
   <g>
    <rect class="fil89" x="8242" y="205" width="7460.71" height="74.0914" rx="148" ry="36"/>
    <path class="fil90" d="M8263 195l7418 0c12,0 21,10 21,22l0 1c0,12 -9,22 -21,22l-7418 0c-12,0 -21,-10 -21,-22l0 -1c0,-12 9,-22 21,-22z"/>
   </g>
   <g>
    <rect class="fil89" x="8242" y="323" width="7460.71" height="74.0914" rx="148" ry="36"/>
    <path class="fil90" d="M8263 314l7418 0c12,0 21,10 21,22l0 1c0,12 -9,21 -21,21l-7418 0c-12,0 -21,-9 -21,-21l0 -1c0,-12 9,-22 21,-22z"/>
   </g>
  </g>
  <rect class="fil91" y="133" width="563" height="311"/>
 </g>
</svg>
