<?xml version="1.0" encoding="UTF-8"?>
<!DOCTYPE svg PUBLIC "-//W3C//DTD SVG 1.1//EN" "http://www.w3.org/Graphics/SVG/1.1/DTD/svg11.dtd">
<!-- Creator: CorelDRAW Home & Student X8 -->
<svg xmlns="http://www.w3.org/2000/svg" xml:space="preserve" width="179.426mm" height="6.7734mm" version="1.1" style="shape-rendering:geometricPrecision; text-rendering:geometricPrecision; image-rendering:optimizeQuality; fill-rule:evenodd; clip-rule:evenodd"
viewBox="0 0 15702 593"
 xmlns:xlink="http://www.w3.org/1999/xlink">
 <defs>
  <style type="text/css">
   <![CDATA[
    .fil91 {fill:none}
    .fil89 {fill:#8B5B0C}
    .fil22 {fill:#303030;fill-rule:nonzero}
    .fil88 {fill:#7D7D7D;fill-rule:nonzero}
    .fil21 {fill:#B2B2B2;fill-rule:nonzero}
    .fil20 {fill:#B9B9B9;fill-rule:nonzero}
    .fil19 {fill:silver;fill-rule:nonzero}
    .fil18 {fill:#C6C6C6;fill-rule:nonzero}
    .fil17 {fill:#CDCDCD;fill-rule:nonzero}
    .fil16 {fill:#D2D2D2;fill-rule:nonzero}
    .fil15 {fill:#D8D8D8;fill-rule:nonzero}
    .fil14 {fill:#DDDDDD;fill-rule:nonzero}
    .fil13 {fill:#E1E1E1;fill-rule:nonzero}
    .fil12 {fill:#E6E6E6;fill-rule:nonzero}
    .fil11 {fill:#EAEAEA;fill-rule:nonzero}
    .fil10 {fill:#EDEDED;fill-rule:nonzero}
    .fil9 {fill:#F1F1F1;fill-rule:nonzero}
    .fil8 {fill:#F4F4F4;fill-rule:nonzero}
    .fil7 {fill:#F6F6F6;fill-rule:nonzero}
    .fil6 {fill:#F9F9F9;fill-rule:nonzero}
    .fil5 {fill:#FBFBFB;fill-rule:nonzero}
    .fil4 {fill:#FCFCFC;fill-rule:nonzero}
    .fil3 {fill:#FDFDFD;fill-rule:nonzero}
    .fil2 {fill:#FEFEFE;fill-rule:nonzero}
    .fil25 {fill:white;fill-rule:nonzero}
    .fil90 {fill:#CCCCCC;fill-opacity:0.168627}
    .fil29 {fill:url(#id2)}
    .fil24 {fill:url(#id3)}
    .fil64 {fill:url(#id4)}
    .fil61 {fill:url(#id5)}
    .fil39 {fill:url(#id6)}
    .fil63 {fill:url(#id7)}
    .fil66 {fill:url(#id8)}
    .fil50 {fill:url(#id9)}
    .fil71 {fill:url(#id10)}
    .fil47 {fill:url(#id11)}
    .fil55 {fill:url(#id12)}
    .fil31 {fill:url(#id13)}
    .fil83 {fill:url(#id14)}
    .fil36 {fill:url(#id15)}
    .fil52 {fill:url(#id16)}
    .fil53 {fill:url(#id17)}
    .fil78 {fill:url(#id18)}
    .fil86 {fill:url(#id19)}
    .fil35 {fill:url(#id20)}
    .fil0 {fill:url(#id21)}
    .fil62 {fill:url(#id22)}
    .fil73 {fill:url(#id23)}
    .fil32 {fill:url(#id24)}
    .fil84 {fill:url(#id25)}
    .fil68 {fill:url(#id26)}
    .fil69 {fill:url(#id27)}
    .fil44 {fill:url(#id28)}
    .fil82 {fill:url(#id29)}
    .fil42 {fill:url(#id30)}
    .fil51 {fill:url(#id31)}
    .fil56 {fill:url(#id32)}
    .fil79 {fill:url(#id33)}
    .fil27 {fill:url(#id34)}
    .fil54 {fill:url(#id35)}
    .fil77 {fill:url(#id36)}
    .fil58 {fill:url(#id37)}
    .fil1 {fill:url(#id38)}
    .fil23 {fill:url(#id39)}
    .fil75 {fill:url(#id40)}
    .fil67 {fill:url(#id41)}
    .fil34 {fill:url(#id42)}
    .fil45 {fill:url(#id43)}
    .fil33 {fill:url(#id44)}
    .fil37 {fill:url(#id45)}
    .fil43 {fill:url(#id46)}
    .fil85 {fill:url(#id47)}
    .fil72 {fill:url(#id48)}
    .fil74 {fill:url(#id49)}
    .fil38 {fill:url(#id50)}
    .fil60 {fill:url(#id51)}
    .fil57 {fill:url(#id52)}
    .fil49 {fill:url(#id53)}
    .fil48 {fill:url(#id54)}
    .fil65 {fill:url(#id55)}
    .fil26 {fill:url(#id56)}
    .fil46 {fill:url(#id57)}
    .fil28 {fill:url(#id58)}
    .fil30 {fill:url(#id59)}
    .fil80 {fill:url(#id60)}
    .fil81 {fill:url(#id61)}
    .fil87 {fill:url(#id62)}
    .fil41 {fill:url(#id63)}
    .fil40 {fill:url(#id64)}
    .fil70 {fill:url(#id65)}
    .fil59 {fill:url(#id66)}
    .fil76 {fill:url(#id67)}
   ]]>
  </style>
    <clipPath id="id0" style="clip-rule:nonzero">
     <path d="M7778 53c-2,-3 -5,-6 -7,-9 27,-7 60,-20 87,-20 7,0 13,1 19,3 -24,8 -49,13 -74,20 -7,1 -16,4 -25,6l0 0z"/>
    </clipPath>
    <clipPath id="id1" style="clip-rule:nonzero">
     <path d="M7711 66c-6,0 -9,-1 -10,-3 -4,-8 -4,-10 2,-10 1,0 3,0 5,0 0,0 1,0 1,0 12,0 41,-5 41,-5 6,0 13,-2 21,-4 2,3 5,6 7,9 -24,6 -53,13 -67,13l0 0z"/>
    </clipPath>
  <linearGradient id="id2" gradientUnits="userSpaceOnUse" x1="7886.01" y1="89.7697" x2="8005.08" y2="89.7697">
   <stop offset="0" style="stop-opacity:1; stop-color:#919396"/>
   <stop offset="0.0901961" style="stop-opacity:1; stop-color:#919396"/>
   <stop offset="1" style="stop-opacity:1; stop-color:#231F20"/>
  </linearGradient>
  <linearGradient id="id3" gradientUnits="userSpaceOnUse" x1="7625" y1="209.005" x2="8005.09" y2="209.005">
   <stop offset="0" style="stop-opacity:1; stop-color:#C91E1E"/>
   <stop offset="1" style="stop-opacity:1; stop-color:#420C1E"/>
  </linearGradient>
  <linearGradient id="id4" gradientUnits="userSpaceOnUse" x1="7549.78" y1="89.0171" x2="7659.43" y2="89.0171">
   <stop offset="0" style="stop-opacity:1; stop-color:#696A6D"/>
   <stop offset="1" style="stop-opacity:1; stop-color:#1F1C1D"/>
  </linearGradient>
  <linearGradient id="id5" gradientUnits="userSpaceOnUse" x1="7678.43" y1="87.0218" x2="7540.22" y2="93.9965">
   <stop offset="0" style="stop-opacity:1; stop-color:#828487"/>
   <stop offset="1" style="stop-opacity:1; stop-color:#6F7173"/>
  </linearGradient>
  <linearGradient id="id6" gradientUnits="userSpaceOnUse" x1="7886.02" y1="89.7697" x2="8005.08" y2="89.7697">
   <stop offset="0" style="stop-opacity:1; stop-color:#63666A"/>
   <stop offset="0.0901961" style="stop-opacity:1; stop-color:#63666A"/>
   <stop offset="1" style="stop-opacity:1; stop-color:#151313"/>
  </linearGradient>
  <linearGradient id="id7" gradientUnits="userSpaceOnUse" x1="7555.57" y1="89.0258" x2="7659.43" y2="89.0258">
   <stop offset="0" style="stop-opacity:1; stop-color:#757679"/>
   <stop offset="1" style="stop-opacity:1; stop-color:#231F20"/>
  </linearGradient>
  <linearGradient id="id8" gradientUnits="userSpaceOnUse" x1="7610.5" y1="85.0703" x2="7535.02" y2="87.9494">
   <stop offset="0" style="stop-opacity:1; stop-color:#434345"/>
   <stop offset="0.0196078" style="stop-opacity:1; stop-color:#434345"/>
   <stop offset="1" style="stop-opacity:1; stop-color:#696A6D"/>
  </linearGradient>
  <linearGradient id="id9" gradientUnits="userSpaceOnUse" x1="7886.02" y1="89.7697" x2="8005.08" y2="89.7697">
   <stop offset="0" style="stop-opacity:1; stop-color:#3B3D40"/>
   <stop offset="0.0901961" style="stop-opacity:1; stop-color:#3B3D40"/>
   <stop offset="1" style="stop-opacity:1; stop-color:#0D0B0B"/>
  </linearGradient>
  <linearGradient id="id10" gradientUnits="userSpaceOnUse" xlink:href="#id7" x1="7863.82" y1="204.55" x2="7862.36" y2="183.18">
  </linearGradient>
  <linearGradient id="id11" gradientUnits="userSpaceOnUse" x1="7625.06" y1="209.013" x2="8005.08" y2="209.013">
   <stop offset="0" style="stop-opacity:1; stop-color:#7D0808"/>
   <stop offset="1" style="stop-opacity:1; stop-color:#130408"/>
  </linearGradient>
  <linearGradient id="id12" gradientUnits="userSpaceOnUse" x1="7625.01" y1="207.359" x2="7799.44" y2="207.359">
   <stop offset="0" style="stop-opacity:1; stop-color:#A30E0E"/>
   <stop offset="1" style="stop-opacity:1; stop-color:#20060E"/>
  </linearGradient>
  <linearGradient id="id13" gradientUnits="userSpaceOnUse" x1="7625" y1="209.005" x2="8005.1" y2="209.005">
   <stop offset="0" style="stop-opacity:1; stop-color:#BE1818"/>
   <stop offset="1" style="stop-opacity:1; stop-color:#350A18"/>
  </linearGradient>
  <linearGradient id="id14" gradientUnits="userSpaceOnUse" xlink:href="#id13" x1="7692.95" y1="208.978" x2="7985.9" y2="208.978">
  </linearGradient>
  <linearGradient id="id15" gradientUnits="userSpaceOnUse" x1="7624.99" y1="209.031" x2="8005.1" y2="209.031">
   <stop offset="0" style="stop-opacity:1; stop-color:#B31212"/>
   <stop offset="1" style="stop-opacity:1; stop-color:#280712"/>
  </linearGradient>
  <linearGradient id="id16" gradientUnits="userSpaceOnUse" xlink:href="#id15" x1="7625" y1="213.958" x2="8005.13" y2="213.958">
  </linearGradient>
  <linearGradient id="id17" gradientUnits="userSpaceOnUse" xlink:href="#id15" x1="7624.45" y1="202.616" x2="8012.09" y2="202.616">
  </linearGradient>
  <linearGradient id="id18" gradientUnits="userSpaceOnUse" xlink:href="#id12" x1="7760.32" y1="211.105" x2="7947.92" y2="211.105">
  </linearGradient>
  <linearGradient id="id19" gradientUnits="userSpaceOnUse" xlink:href="#id13" x1="7638.2" y1="209.013" x2="7995.38" y2="209.013">
  </linearGradient>
  <linearGradient id="id20" gradientUnits="userSpaceOnUse" x1="7624.99" y1="209.092" x2="8005.11" y2="209.092">
   <stop offset="0" style="stop-opacity:1; stop-color:#B11313"/>
   <stop offset="1" style="stop-opacity:1; stop-color:#2A0813"/>
  </linearGradient>
  <linearGradient id="id21" gradientUnits="userSpaceOnUse" x1="7771.6" y1="852.051" x2="7839.38" y2="975.32">
   <stop offset="0" style="stop-opacity:1; stop-color:#171616"/>
   <stop offset="0.0901961" style="stop-opacity:1; stop-color:#171616"/>
   <stop offset="1" style="stop-opacity:1; stop-color:#2F2F32"/>
  </linearGradient>
  <linearGradient id="id22" gradientUnits="userSpaceOnUse" x1="7676.64" y1="87.0218" x2="7542.3" y2="93.9965">
   <stop offset="0" style="stop-opacity:1; stop-color:#75777A"/>
   <stop offset="1" style="stop-opacity:1; stop-color:#646567"/>
  </linearGradient>
  <linearGradient id="id23" gradientUnits="userSpaceOnUse" xlink:href="#id4" x1="7813.12" y1="198.031" x2="7855.89" y2="193.664">
  </linearGradient>
  <linearGradient id="id24" gradientUnits="userSpaceOnUse" xlink:href="#id13" x1="7624.84" y1="208.69" x2="8005.46" y2="208.69">
  </linearGradient>
  <linearGradient id="id25" gradientUnits="userSpaceOnUse" xlink:href="#id13" x1="7635.7" y1="208.996" x2="8001.92" y2="208.996">
  </linearGradient>
  <linearGradient id="id26" gradientUnits="userSpaceOnUse" xlink:href="#id7" x1="7967.52" y1="290.338" x2="7883.4" y2="311.236">
  </linearGradient>
  <linearGradient id="id27" gradientUnits="userSpaceOnUse" x1="7625.01" y1="209.005" x2="8005.09" y2="209.005">
   <stop offset="0" style="stop-opacity:1; stop-color:#A70C0C"/>
   <stop offset="1" style="stop-opacity:1; stop-color:#1A050C"/>
  </linearGradient>
  <linearGradient id="id28" gradientUnits="userSpaceOnUse" xlink:href="#id12" x1="7625" y1="209.013" x2="8005.11" y2="209.013">
  </linearGradient>
  <linearGradient id="id29" gradientUnits="userSpaceOnUse" xlink:href="#id13" x1="7672.91" y1="211.009" x2="7989.22" y2="211.009">
  </linearGradient>
  <linearGradient id="id30" gradientUnits="userSpaceOnUse" xlink:href="#id11" x1="7624.84" y1="209.066" x2="8005.12" y2="209.066">
  </linearGradient>
  <linearGradient id="id31" gradientUnits="userSpaceOnUse" xlink:href="#id11" x1="7625.01" y1="209.013" x2="8005.1" y2="209.013">
  </linearGradient>
  <linearGradient id="id32" gradientUnits="userSpaceOnUse" xlink:href="#id12" x1="7625" y1="207.359" x2="8009.18" y2="207.359">
  </linearGradient>
  <linearGradient id="id33" gradientUnits="userSpaceOnUse" xlink:href="#id11" x1="7625.17" y1="209.005" x2="8005.05" y2="209.005">
  </linearGradient>
  <linearGradient id="id34" gradientUnits="userSpaceOnUse" xlink:href="#id12" x1="7647.35" y1="208.996" x2="8000.57" y2="208.996">
  </linearGradient>
  <linearGradient id="id35" gradientUnits="userSpaceOnUse" xlink:href="#id12" x1="7625.01" y1="209.013" x2="8005.1" y2="209.013">
  </linearGradient>
  <linearGradient id="id36" gradientUnits="userSpaceOnUse" xlink:href="#id15" x1="7624.87" y1="209.013" x2="8005.12" y2="209.013">
  </linearGradient>
  <linearGradient id="id37" gradientUnits="userSpaceOnUse" xlink:href="#id11" x1="7625.01" y1="208.961" x2="8005.07" y2="208.961">
  </linearGradient>
  <linearGradient id="id38" gradientUnits="userSpaceOnUse" xlink:href="#id21" x1="7771.61" y1="852.094" x2="7839.38" y2="975.381">
  </linearGradient>
  <linearGradient id="id39" gradientUnits="userSpaceOnUse" xlink:href="#id7" x1="7917.16" y1="468.932" x2="7926.88" y2="421.308">
  </linearGradient>
  <linearGradient id="id40" gradientUnits="userSpaceOnUse" x1="7917.16" y1="468.941" x2="7926.88" y2="421.317">
   <stop offset="0" style="stop-opacity:1; stop-color:#464749"/>
   <stop offset="1" style="stop-opacity:1; stop-color:#151313"/>
  </linearGradient>
  <linearGradient id="id41" gradientUnits="userSpaceOnUse" xlink:href="#id7" x1="7967.31" y1="290.347" x2="7883.34" y2="311.245">
  </linearGradient>
  <linearGradient id="id42" gradientUnits="userSpaceOnUse" xlink:href="#id20" x1="7625" y1="208.847" x2="8005.1" y2="208.847">
  </linearGradient>
  <linearGradient id="id43" gradientUnits="userSpaceOnUse" xlink:href="#id12" x1="7625" y1="209.005" x2="8005.1" y2="209.005">
  </linearGradient>
  <linearGradient id="id44" gradientUnits="userSpaceOnUse" xlink:href="#id20" x1="7625.02" y1="209.013" x2="8005.05" y2="209.013">
  </linearGradient>
  <linearGradient id="id45" gradientUnits="userSpaceOnUse" xlink:href="#id15" x1="7526.64" y1="223.672" x2="8049.95" y2="223.672">
  </linearGradient>
  <linearGradient id="id46" gradientUnits="userSpaceOnUse" xlink:href="#id6" x1="7886.01" y1="89.7697" x2="8005.09" y2="89.7697">
  </linearGradient>
  <linearGradient id="id47" gradientUnits="userSpaceOnUse" xlink:href="#id13" x1="7625.24" y1="208.978" x2="8004.95" y2="208.978">
  </linearGradient>
  <linearGradient id="id48" gradientUnits="userSpaceOnUse" xlink:href="#id7" x1="7813.12" y1="198.039" x2="7855.89" y2="193.664">
  </linearGradient>
  <linearGradient id="id49" gradientUnits="userSpaceOnUse" xlink:href="#id4" x1="7813.08" y1="198.127" x2="7855.86" y2="193.76">
  </linearGradient>
  <linearGradient id="id50" gradientUnits="userSpaceOnUse" x1="7624.41" y1="204.069" x2="8005.37" y2="204.069">
   <stop offset="0" style="stop-opacity:1; stop-color:#930B0B"/>
   <stop offset="1" style="stop-opacity:1; stop-color:#18040B"/>
  </linearGradient>
  <linearGradient id="id51" gradientUnits="userSpaceOnUse" x1="7625.01" y1="208.987" x2="8005.07" y2="208.987">
   <stop offset="0" style="stop-opacity:1; stop-color:#4B0505"/>
   <stop offset="1" style="stop-opacity:1; stop-color:#0B0205"/>
  </linearGradient>
  <linearGradient id="id52" gradientUnits="userSpaceOnUse" xlink:href="#id12" x1="7625" y1="206.169" x2="8005.09" y2="206.169">
  </linearGradient>
  <linearGradient id="id53" gradientUnits="userSpaceOnUse" xlink:href="#id51" x1="7625.05" y1="209.031" x2="8005.08" y2="209.031">
  </linearGradient>
  <linearGradient id="id54" gradientUnits="userSpaceOnUse" x1="7625.01" y1="209.013" x2="8005.09" y2="209.013">
   <stop offset="0" style="stop-opacity:1; stop-color:#660707"/>
   <stop offset="1" style="stop-opacity:1; stop-color:#0E0207"/>
  </linearGradient>
  <linearGradient id="id55" gradientUnits="userSpaceOnUse" x1="7529.53" y1="85.1578" x2="7592.29" y2="87.2143">
   <stop offset="0" style="stop-opacity:1; stop-color:#ADAFB2"/>
   <stop offset="1" style="stop-opacity:1; stop-color:#C4C6C8"/>
  </linearGradient>
  <linearGradient id="id56" gradientUnits="userSpaceOnUse" xlink:href="#id13" x1="7625" y1="209.013" x2="8005.09" y2="209.013">
  </linearGradient>
  <linearGradient id="id57" gradientUnits="userSpaceOnUse" xlink:href="#id50" x1="7625.01" y1="209.013" x2="8005.1" y2="209.013">
  </linearGradient>
  <linearGradient id="id58" gradientUnits="userSpaceOnUse" xlink:href="#id12" x1="7625.01" y1="208.182" x2="8005.08" y2="208.182">
  </linearGradient>
  <linearGradient id="id59" gradientUnits="userSpaceOnUse" xlink:href="#id2" x1="7886.02" y1="89.7784" x2="8005.09" y2="89.7784">
  </linearGradient>
  <linearGradient id="id60" gradientUnits="userSpaceOnUse" xlink:href="#id6" x1="7886.02" y1="89.7697" x2="8005.08" y2="89.7697">
  </linearGradient>
  <linearGradient id="id61" gradientUnits="userSpaceOnUse" xlink:href="#id40" x1="7967.3" y1="290.347" x2="7883.56" y2="311.245">
  </linearGradient>
  <linearGradient id="id62" gradientUnits="userSpaceOnUse" x1="7959.68" y1="290.347" x2="7881.78" y2="311.245">
   <stop offset="0" style="stop-opacity:1; stop-color:#5E5E61"/>
   <stop offset="1" style="stop-opacity:1; stop-color:#1C191A"/>
  </linearGradient>
  <linearGradient id="id63" gradientUnits="userSpaceOnUse" xlink:href="#id12" x1="7624.98" y1="208.978" x2="8005.1" y2="208.978">
  </linearGradient>
  <linearGradient id="id64" gradientUnits="userSpaceOnUse" xlink:href="#id15" x1="7625" y1="209.005" x2="8005.1" y2="209.005">
  </linearGradient>
  <linearGradient id="id65" gradientUnits="userSpaceOnUse" x1="7625.01" y1="209.005" x2="8005.1" y2="209.005">
   <stop offset="0" style="stop-opacity:1; stop-color:#960A0A"/>
   <stop offset="1" style="stop-opacity:1; stop-color:#15040A"/>
  </linearGradient>
  <linearGradient id="id66" gradientUnits="userSpaceOnUse" xlink:href="#id11" x1="7625.01" y1="208.926" x2="8004.98" y2="208.926">
  </linearGradient>
  <linearGradient id="id67" gradientUnits="userSpaceOnUse" xlink:href="#id15" x1="7624.99" y1="209.013" x2="8005.09" y2="209.013">
  </linearGradient>
 </defs>
 <g id="Layer_x0020_1">
  <metadata id="CorelCorpID_0Corel-Layer"/>
  <g id="_270140624">
   <path class="fil0" d="M7794 593c-147,0 -266,-19 -266,-41 0,-23 119,-42 266,-42 148,0 267,19 267,42 0,22 -119,41 -267,41zm6 -81c-142,0 -259,18 -259,39 0,22 117,40 259,40 141,0 256,-18 256,-40 0,-21 -115,-39 -256,-39z"/>
   <path class="fil1" d="M7800 591c-142,0 -259,-18 -259,-40 0,-21 117,-39 259,-39 141,0 256,18 256,39 0,22 -115,40 -256,40zm5 -78c-135,0 -250,17 -250,38 0,21 115,39 250,39 136,0 245,-18 245,-39 0,-21 -109,-38 -245,-38z"/>
   <path class="fil2" d="M7805 590c-135,0 -250,-18 -250,-39 0,-21 115,-38 250,-38 136,0 245,17 245,38 0,21 -109,39 -245,39zm6 -75c-130,0 -242,16 -242,36 0,20 112,37 242,37 129,0 233,-17 233,-37 0,-20 -104,-36 -233,-36z"/>
   <path class="fil3" d="M7811 588c-130,0 -242,-17 -242,-37 0,-20 112,-36 242,-36 129,0 233,16 233,36 0,20 -104,37 -233,37zm5 -72c-124,0 -234,16 -234,35 0,20 110,35 234,35 124,0 223,-15 223,-35 0,-19 -99,-35 -223,-35z"/>
   <path class="fil4" d="M7816 586c-124,0 -234,-15 -234,-35 0,-19 110,-35 234,-35 124,0 223,16 223,35 0,20 -99,35 -223,35zm5 -68c-118,0 -225,15 -225,33 0,19 107,34 225,34 118,0 212,-15 212,-34 0,-18 -94,-33 -212,-33z"/>
   <path class="fil5" d="M7821 585c-118,0 -225,-15 -225,-34 0,-18 107,-33 225,-33 118,0 212,15 212,33 0,19 -94,34 -212,34zm6 -66c-113,0 -217,14 -217,32 0,18 104,32 217,32 112,0 200,-14 200,-32 0,-18 -88,-32 -200,-32z"/>
   <path class="fil6" d="M7827 583c-113,0 -217,-14 -217,-32 0,-18 104,-32 217,-32 112,0 200,14 200,32 0,18 -88,32 -200,32zm5 -63c-106,0 -209,14 -209,31 0,17 103,30 209,30 107,0 190,-13 190,-30 0,-17 -83,-31 -190,-31z"/>
   <path class="fil7" d="M7832 581c-106,0 -209,-13 -209,-30 0,-17 103,-31 209,-31 107,0 190,14 190,31 0,17 -83,30 -190,30zm5 -59c-100,0 -200,13 -200,29 0,16 100,29 200,29 101,0 179,-13 179,-29 0,-16 -78,-29 -179,-29z"/>
   <path class="fil8" d="M7837 580c-100,0 -200,-13 -200,-29 0,-16 100,-29 200,-29 101,0 179,13 179,29 0,16 -78,29 -179,29zm6 -57c-95,0 -192,13 -192,28 0,15 97,27 192,27 95,0 168,-12 168,-27 0,-15 -73,-28 -168,-28z"/>
   <path class="fil9" d="M7843 578c-95,0 -192,-12 -192,-27 0,-15 97,-28 192,-28 95,0 168,13 168,28 0,15 -73,27 -168,27zm5 -53c-89,0 -184,11 -184,26 0,14 95,26 184,26 89,0 157,-12 157,-26 0,-15 -68,-26 -157,-26z"/>
   <path class="fil10" d="M7848 577c-89,0 -184,-12 -184,-26 0,-15 95,-26 184,-26 89,0 157,11 157,26 0,14 -68,26 -157,26zm6 -51c-84,0 -176,11 -176,25 0,13 92,24 176,24 83,0 145,-11 145,-24 0,-14 -62,-25 -145,-25z"/>
   <path class="fil11" d="M7854 575c-84,0 -176,-11 -176,-24 0,-14 92,-25 176,-25 83,0 145,11 145,25 0,13 -62,24 -145,24zm5 -47c-77,0 -167,10 -167,23 0,12 90,22 167,22 77,0 135,-10 135,-22 0,-13 -58,-23 -135,-23z"/>
   <path class="fil12" d="M7859 573c-77,0 -167,-10 -167,-22 0,-13 90,-23 167,-23 77,0 135,10 135,23 0,12 -58,22 -135,22zm5 -44c-71,0 -159,10 -159,21 0,12 88,22 159,22 72,0 124,-10 124,-22 0,-11 -52,-21 -124,-21z"/>
   <path class="fil13" d="M7864 572c-71,0 -159,-10 -159,-22 0,-11 88,-21 159,-21 72,0 124,10 124,21 0,12 -52,22 -124,22zm6 -41c-66,0 -151,8 -151,19 0,11 85,20 151,20 65,0 112,-9 112,-20 0,-11 -47,-19 -112,-19z"/>
   <path class="fil14" d="M7870 570c-66,0 -151,-9 -151,-20 0,-11 85,-19 151,-19 65,0 112,8 112,19 0,11 -47,20 -112,20zm5 -38c-60,0 -142,8 -142,18 0,10 82,18 142,18 60,0 102,-8 102,-18 0,-10 -42,-18 -102,-18z"/>
   <path class="fil15" d="M7875 568c-60,0 -142,-8 -142,-18 0,-10 82,-18 142,-18 60,0 102,8 102,18 0,10 -42,18 -102,18zm6 -34c-55,0 -135,7 -135,16 0,9 80,17 135,17 54,0 90,-8 90,-17 0,-9 -36,-16 -90,-16z"/>
   <path class="fil16" d="M7881 567c-55,0 -135,-8 -135,-17 0,-9 80,-16 135,-16 54,0 90,7 90,16 0,9 -36,17 -90,17zm5 -32c-48,0 -126,7 -126,15 0,8 78,15 126,15 48,0 80,-7 80,-15 0,-8 -32,-15 -80,-15z"/>
   <path class="fil17" d="M7886 565c-48,0 -126,-7 -126,-15 0,-8 78,-15 126,-15 48,0 80,7 80,15 0,8 -32,15 -80,15zm5 -29c-42,0 -117,7 -117,14 0,8 75,14 117,14 43,0 69,-6 69,-14 0,-7 -26,-14 -69,-14z"/>
   <path class="fil18" d="M7891 564c-42,0 -117,-6 -117,-14 0,-7 75,-14 117,-14 43,0 69,7 69,14 0,8 -26,14 -69,14zm6 -26c-37,0 -110,5 -110,12 0,7 73,12 110,12 36,0 57,-5 57,-12 0,-7 -21,-12 -57,-12z"/>
   <path class="fil19" d="M7897 562c-37,0 -110,-5 -110,-12 0,-7 73,-12 110,-12 36,0 57,5 57,12 0,7 -21,12 -57,12zm5 -23c-31,0 -101,5 -101,11 0,6 70,10 101,10 31,0 47,-4 47,-10 0,-6 -16,-11 -47,-11z"/>
   <path class="fil20" d="M7902 560c-31,0 -101,-4 -101,-10 0,-6 70,-11 101,-11 31,0 47,5 47,11 0,6 -16,10 -47,10zm5 -19c-24,0 -92,4 -92,9 0,5 68,9 92,9 25,0 36,-4 36,-9 0,-5 -11,-9 -36,-9z"/>
   <path class="fil21" d="M7907 559c-24,0 -92,-4 -92,-9 0,-5 68,-9 92,-9 25,0 36,4 36,9 0,5 -11,9 -36,9z"/>
   <path class="fil22" d="M7919 440c-12,26 8,64 36,43l-4 -9c0,0 -31,19 -27,-34l-5 0z"/>
   <path class="fil23" d="M7926 448c-4,0 -9,-1 -11,-2l0 0c2,-8 5,-24 7,-30 1,1 3,2 5,2 1,0 1,0 2,0 0,0 0,0 0,0 2,-1 4,-2 6,-3 -2,11 -3,22 -7,32 -1,1 -1,1 -2,1z"/>
   <path class="fil24" d="M7927 418c-2,0 -4,-1 -5,-2 0,0 0,-1 -1,-1l0 -1c0,0 0,0 0,0 11,-10 14,-28 13,-43 3,-1 5,-1 8,-1 -3,14 -7,30 -13,48 -1,0 -1,0 -2,0zm17 -15l0 0 0 0 1 -1 0 0 0 0 0 -1 1 0 0 -1 0 0 0 0 0 -1 0 0 1 0 0 0 0 -1 0 0 0 0 0 0 0 -1 0 0c4,-8 8,-18 11,-31 0,0 0,0 0,0 4,-15 6,-33 6,-53 0,0 0,0 0,0 0,0 0,0 0,0l0 0 0 0 0 0 0 0 0 0 0 0 0 0 0 0 0 0 0 0c0,20 -2,38 -6,53 -3,13 -6,23 -11,31l0 0 0 1 0 0 0 0 0 0 0 1 0 0 -1 0 0 0 0 1 0 0 0 0 0 1 -1 0 0 1 0 0 0 0 -1 1 0 0 0 0zm20 -90l0 0 0 0 0 0 0 0 0 0 0 0 0 0 0 0zm0 0c0,0 0,0 0,0l0 0 0 0zm0 0l0 -1 0 -1 -1 0 0 0 0 0 0 0 0 -2 0 0 0 0 0 0 0 -2 0 0 0 0 0 -1 0 -1 0 0 0 0 0 -1 0 0 0 0 0 0 0 -1 0 -1 0 0 0 0 0 -2 0 0 0 0c0,-1 0,-3 0,-4l0 0 0 0 0 -1 0 0 0 -1 0 0 0 0 0 0 0 0 0 0 0 0 0 0 0 0 0 0 0 0 0 0 0 0 0 0 0 0 0 0 0 0 0 0 0 0 0 0 0 0 0 0 0 0 0 0 0 0 0 0 0 0 0 0 0 0 0 0 0 0 0 0 0 0 0 0 0 0 0 1 0 0 0 1 0 0 0 0c0,1 0,3 0,4l0 0 0 0 0 2 0 0 0 0 0 1 0 1 0 0 0 0 0 0 0 1 0 0 0 0 0 1 0 1 0 0 0 0 0 2 0 0 0 0 0 0 0 2 0 0 0 0 0 0 1 0 0 1 0 1zm-1 -19l0 0 0 0 0 0 0 0 0 0 0 0 0 0 0 0 0 0 0 0 0 0 0 0 0 0 0 0 0 0 0 0 0 0 0 0 0 0 0 0 0 0 0 0 0 0 0 0 0 0 0 0 0 0 0 0 0 0 0 0 0 0 0 0zm0 0l0 0 0 0 0 0 0 0zm0 0l0 0 0 -1 0 -1 0 -1 0 0 -1 -1 0 -1 0 0 0 -1 0 -1 0 -1 0 0 0 -1 0 0 0 -2 0 -1 0 0 0 -1 0 -1c-2,-16 -5,-34 -10,-53 0,0 0,0 0,0 -1,-5 -3,-9 -4,-14 -1,-3 -2,-6 -3,-9l0 0 0 0 0 0 0 0 0 -1 0 0 0 0 0 0 0 0 0 0 0 0 0 -1 0 0 0 0 0 0 0 0 0 0 0 0 0 0 0 0 0 0 0 0 0 1 0 0 0 0 0 0 0 0 0 0 0 0 0 1 0 0 0 0 0 0 0 0c3,8 5,16 7,23 5,19 8,37 10,53l0 1 0 1 0 0 0 1 0 2 0 0 0 1 0 0 0 1 0 1 0 1 0 0 0 1 1 1 0 0 0 1 0 1 0 1 0 0zm-15 -81l0 0zm-27 190l0 -1 0 0 0 -1 0 0 0 0 0 0 0 -1 0 0 0 0 0 -1 0 0c0,-1 0,-2 0,-3l0 0c0,-8 -1,-16 -3,-24 0,0 0,0 0,0 2,8 3,16 3,24l0 0c0,1 0,2 0,3l0 0 0 1 0 0 0 0 0 1 0 0 0 0 0 0 0 1 0 0 0 1zm-3 -31l0 0c0,-1 0,-1 0,-2l0 0 0 0 0 0 0 0 0 0 0 0 0 0 0 0c0,1 0,1 0,2l0 0zm-3 -2l0 0 0 0 0 0 0 0 0 0 -1 0 0 0 0 -1 0 0 0 0 0 0 0 0 0 0 -1 0 0 0 0 0 0 0 0 0 0 0 0 0 0 0 -1 0 0 0 0 0 0 0 0 0 0 0c-2,-1 -4,-2 -5,-3l0 0 0 -1 0 0 -1 0 0 0 0 0 0 0 0 0 0 0 0 0 0 0 0 0 0 0 0 0 0 0 0 -1 0 0 -1 0 0 0 0 0 0 0 0 0 0 0 0 0 1 0 0 0 0 1 0 0 0 0 0 0 0 0 0 0 0 0 0 0 0 0 0 0 0 0 0 0 1 0 0 0 0 1 0 0c1,1 3,2 5,3l0 0 0 0 0 0 0 0 0 0 1 0 0 0 0 0 0 0 0 0 0 0 0 0 0 0 1 0 0 0 0 0 0 0 0 0 0 0 0 1 0 0 1 0 0 0 0 0 0 0 0 0 0 0zm-17 -23l0 0 0 0 0 0 0 0 0 0 0 0 0 0 0 0 0 0 0 0 0 0 0 0 0 0c0,-2 0,-3 0,-3 3,-6 1,-12 -2,-16l0 0 0 0 0 0 0 0 -1 0 1 0 0 0 0 0 0 0 0 0c2,3 4,6 4,10 0,2 -1,4 -2,6 0,0 0,1 0,2l0 1 0 0 0 0 0 0 0 0 0 0 0 0 0 0 0 0 0 0 0 0 0 0 0 0 0 0zm-12 -27l0 0 0 -1 0 0 -1 0 0 0 0 0 0 0 0 0 0 0 0 0 0 0 0 0 0 0 0 0 0 0 0 -1 0 0 0 0 0 0 0 0 0 0 0 0 0 0c-1,-2 -2,-3 -3,-6 0,0 0,-1 -1,-2l0 0 0 0 0 0 0 -1 0 0 0 0 0 0 0 0 0 0 0 0 0 0 0 0 0 0 0 0 0 0 0 0 0 0 0 0 0 0 0 0 0 0 0 0 0 0 0 0 0 0 0 0 0 0 0 0 0 0 0 0 0 0 0 0 0 0 0 0 0 1 0 0 0 0 0 0c1,1 1,2 1,2 1,3 2,4 3,6l0 0 0 0 0 0 0 0 0 0 0 0 0 0 0 1 0 0 0 0 0 0 0 0 0 0 0 0 0 0 0 0 0 0 0 0 0 0 1 0 0 0 0 1 0 0zm-4 -32l0 0 0 0 0 -1 0 0 0 0 0 0 0 0 0 0 0 0 0 0 0 0 -1 0 0 -1 0 0 0 0 0 0 0 0 0 0 0 0 0 0 0 0 0 0 0 0 0 0 0 0 0 0 0 0 0 0 0 0 0 -1 0 0 0 0 0 0 0 0 0 0 0 0 0 0 0 0 0 0 0 0 0 0 0 0 0 0 0 0 0 0 0 0 0 0 0 0 0 0 0 0 -1 -1 0 0 0 0 0 0 0 0 0 0 0 0 0 0 0 0 0 0 0 0 0 0 0 0 0 -1 0 0 0 0 0 0 0 0 0 0 0 0 0 0 0 0 0 0 -1 0 0 0 0 0 0 0 0 0 0 0 0 0 0 0 0 0 0 0 0 0 0 0 0 0 0 0 0 -1 0 0 0 0 0 0 0 0 0 0 0 0 0 0 0 0 0 0 0 0 0 0 0 0 0 1 0 0 0 0 0 0 0 0 0 0 0 0 0 0 0 0 0 0 0 0 0 0 0 0 0 0 1 0 0 0 0 0 0 0 0 0 0 0 0 0 0 0 0 0 0 0 0 1 0 0 0 0 0 0 0 0 0 0 0 0 0 0 0 0 0 0 0 0 0 0 0 0 1 1 0 0 0 0 0 0 0 0 0 0 0 0 0 0 0 0 0 0 0 0 0 0 0 0 0 0 0 0 0 0 0 0 0 0 0 0 0 0 0 0 0 1 0 0 0 0 0 0 0 0 0 0 0 0 0 0 0 0 0 0 0 0 0 0 0 0 0 0 0 0 0 0 0 0 0 1 1 0 0 0 0 0 0 0 0 0 0 0 0 0 0 0 0 0 0 1 0 0 0 0zm-14 -14l0 0 0 0 0 0 0 0 0 0 0 0 0 0 0 0 0 0 0 0 0 0 -1 0 0 0 0 -1 0 0 0 0 0 0 0 0 0 0 0 -1 0 0c-1,-1 -2,-2 -3,-4l0 0 0 0 0 0 0 0 0 0 0 -1 0 0 0 0 0 0 0 0 0 0 0 0 0 0 -1 0 0 0 0 -1 0 0 0 0 0 0 0 0 0 0 0 0 0 0 0 0 0 0 0 0 0 0 0 0 0 1 0 0 1 0 0 0 0 0 0 0 0 0 0 0 0 0 0 0 0 1 0 0 0 0 0 0 0 0 0 0c1,2 2,3 3,4l0 0 0 1 0 0 0 0 0 0 0 0 0 0 0 1 0 0 1 0 0 0 0 0 0 0 0 0 0 0 0 0 0 0 0 0 0 0 0 0 0 0zm-5 -8l0 -1 0 0 0 0 0 0 0 0 0 0 0 0 0 0 0 0 0 0 0 0 0 0 0 0 0 1zm31 -23c8,-5 22,-9 17,-10l0 0c0,0 0,0 0,0l0 0c-13,-2 -25,-2 -37,-5 -11,-2 -21,-5 -30,-9 4,5 9,11 14,19l0 0 0 0 1 1 -1 -1 0 0 0 0c-5,-8 -10,-14 -14,-19 -4,-6 -7,-10 -9,-12l64 -2 -4 -20c0,0 0,0 0,0l4 20c0,0 6,3 15,11 5,5 11,12 17,22 -11,3 -25,4 -37,5zm1 -58l0 0zm-65 0l0 0 0 0 0 0 0 0zm0 0l0 0 0 0 0 0 0 0 0 -1 0 0 0 0 0 0 0 0 0 0c-2,-5 -5,-9 -7,-12 -4,-5 -8,-9 -12,-11l0 0 0 -1 0 0 0 0 -1 0 0 0 0 0 0 0 0 0 0 -1 -1 0 0 0 0 0 0 0 0 0 -1 0 1 0 0 0 0 0 0 0 0 0 1 0 0 1 0 0 0 0 0 0 0 0 1 0 0 0 0 0 0 1 0 0c4,2 8,6 12,11 0,0 0,0 0,0 2,3 5,7 7,12l0 0 0 0 0 0 0 0 0 0 0 1 0 0 0 0 0 0 0 0zm109 0l0 0 0 0 0 0 0 0 0 0 0 0 0 0 0 0 0 -1 0 0 0 0 0 0 0 0 0 0 0 0 0 0 0 0 0 0 0 0 0 0 0 0 0 0 0 0 0 0 0 0 0 0 0 0 0 0 0 0 0 0 0 0 -1 -2 0 0 0 0 0 0 0 0 0 0 0 0 0 0 0 0 0 0 0 0 0 0 0 0 0 0 0 0 1 2 0 0 0 0 0 0 0 0 0 0 0 0 0 0 0 0 0 0 0 0 0 0 0 0 0 0 0 0 0 0 0 0 0 0 0 0 0 0 0 0 0 0 0 0 0 1 0 0 0 0 0 0 0 0 0 0 0 0 0 0 0 0zm-2 -5l0 0c47,-10 68,-46 68,-89 0,0 0,0 0,0 0,0 0,0 0,0 0,-2 0,-4 0,-6 0,0 0,0 0,0 0,2 0,4 0,6 0,43 -21,79 -68,89zm68 -89l0 0zm0 -6c0,-1 0,-2 0,-3 0,1 0,2 0,3zm0 -3l0 0zm-199 75l0 0 0 0 0 0 0 0 0 0 0 0 0 0 0 0 0 0 0 0 0 0 0 0 0 0 0 0 0 0 0 0 0 0 0 0 0 0 0 0 0 0 0 0 0 0 0 0 0 0 0 0 -1 0 0 0 0 0 0 0 0 0 0 0 0 0 0 0 0 0 0 0 0 0 0 0 0 0 0 0 0 0 0 0 0 0 0 0 0 0 0 0 0 0 0 0 0 0 0 0 0 0 0 0 0 0 0 0 0 0 0 0 0 0 0 0 0 0 0 0 0 0 0 0 0 0 0 0 0 0 0 0 0 0 0 0 0 0 0 0 0 0 0 0 0 0 0 0 0 0 0 0 0 0 0 0 0 0 0 0 0 0 0 0 0 0 0 0 0 0 0 0 0 0 0 0 0 0 1 0 0 0 0 0 0 0 0 0 0 0 0 0 0 0 0 0 0 0 0 0 0 0 0 0 0 0 0 0 0 0 0 0 0 0 0 0 0 0 0 0 0 0 0 0 0 0 0 0 0 0 0 0zm-1 0l0 0 0 0zm0 0l0 0 0 0 0 0 0 0 0 0 0 0 0 0 0 0 0 0 0 0 0 0 0 0 0 0 0 0zm-1 -1l0 0 0 0 0 0 0 0 0 0 0 0 0 0 0 0 0 0 0 0 0 0 0 0c-1,0 -1,0 -1,0 -9,-2 -18,-4 -27,-6l0 0 -3 -1 0 0 -1 0 0 0c-5,-1 -9,-2 -13,-3 -2,0 -3,0 -5,0l0 0 0 0 0 0 0 -1 0 0 0 0 0 0 0 0 0 0 0 0 0 0 -1 0 0 0 0 0 0 0 0 0 0 0 0 0 0 0 0 0 0 0 0 0 0 0 0 0 0 0 0 0 0 0 -1 0 0 0 0 0 0 0 0 0 0 0 0 0 0 0 0 0 0 0 0 0 0 0 0 0 0 0 0 0 -1 0 0 0 0 0 0 0 0 0 0 0 0 0 0 0 0 0 0 0 0 0 0 0 0 0 0 0 -1 0 1 0 0 0 0 0 0 0 0 0 0 0 0 0 0 0 0 0 0 0 0 0 0 0 0 0 0 0 1 0 0 0 0 0 0 0 0 0 0 0 0 0 0 0 0 0 0 0 0 0 0 0 0 0 0 0 0 0 1 0 0 0 0 0 0 0 0 0 0 0 0 0 0 0 0 0 0 0 0 0 0 0 0 0 0 0 0 0 0 0 1 0 0 0 0 0 0 0 0 0 0 0 0 0 0 0 0 1 0 0 0 0 0 0 5 0c4,1 8,2 13,3l0 0 1 0 0 0 3 1 0 0c9,2 18,4 27,6 0,0 0,0 1,0l0 0 0 0 0 0 0 0 0 0 0 0 0 0 0 0 0 0 0 0 0 0 0 0zm-45 -10l0 0zm9 -9c6,-7 14,-18 18,-32 2,-6 3,-12 3,-18 0,-4 -1,-7 -1,-10 2,-1 4,-1 7,-1 10,-1 21,-2 31,-2 15,0 29,2 42,5 1,0 2,0 2,0 2,1 4,1 5,1 8,3 16,6 22,11 -36,22 -83,37 -129,46zm-93 -4l0 0 0 0 0 0 0 0 -1 0 0 0 0 0 0 0 0 0 -1 0 0 0 0 0 0 0 0 0 0 0 -1 0 0 0 0 0 0 0 0 0 -2 0 0 0 0 0 0 0 0 0 -1 0 0 0 0 0 -1 -1 0 0c-1,0 -2,0 -4,0l0 0 -2 0 -1 0c-11,-1 -23,-2 -33,-2l0 0 0 0 0 0 -1 0 1 0 0 0 0 0 0 0 0 0c8,0 16,1 25,1 0,0 0,0 0,0 0,0 0,0 0,0 3,0 5,1 8,1l0 0 1 0 2 0 0 0c2,0 3,0 4,0l0 0 1 1 0 0 0 0 1 0 0 0 0 0 0 0 0 0 2 0 0 0 0 0 0 0 0 0 1 0 0 0 0 0 0 0 0 0 0 0 1 0 0 0 0 0 0 0 0 0 1 0 0 0 0 0 0 0 0 0zm-49 -3l0 0 0 0 -1 0 0 0c0,0 0,0 1,0l0 0 0 0 0 0zm79 -88c18,-2 36,-5 53,-9 -17,4 -35,7 -53,9l0 0zm53 -9c36,-7 67,-15 85,-19 -18,4 -49,12 -85,19zm85 -19c1,-1 1,-1 2,-1 -1,0 -1,0 -2,1zm2 -1l1 0 -1 0zm1 0l0 0 0 0 0 0 0 0 0 0 0 0 0 0 0 0 0 0 0 0 5 -2 0 0 0 0 0 0 0 0 0 0 0 0 0 0 0 0 0 0 0 0 0 0 0 0 0 0 1 0 0 0 0 0 0 0 0 0 -1 0 0 0 0 0 0 0 0 0 0 0 0 0 0 0 0 0 0 0 0 0 0 0 0 0 0 0c-2,1 -3,1 -5,2l0 0 0 0 0 0 0 0 0 0 0 0 0 0 0 0 0 0 0 0 0 0z"/>
   <path class="fil25" d="M7808 159c-1,-1 -1,-1 -2,-2 1,1 1,1 2,2zm-3 -2c0,0 -1,0 -1,-1 0,1 1,1 1,1z"/>
   <path class="fil26" d="M7895 185c0,0 0,0 0,0l-3 -18c-8,3 -16,3 -25,3 -32,0 -62,-13 -62,-13 4,2 12,6 18,15 0,0 0,0 0,0 -5,-7 -11,-11 -15,-13 -1,-1 -1,-1 -2,-2 0,0 -1,0 -1,0 0,0 0,0 0,0 0,0 -1,0 -1,-1 -1,0 -1,0 -1,0 -14,-3 -29,-6 -44,-10 0,0 4,-3 9,-9 46,-9 93,-24 129,-46 2,1 3,2 4,3 13,10 28,15 42,15 1,0 1,0 2,0 1,17 -1,39 -4,54 0,0 0,0 -1,0 -9,2 -23,6 -35,6 -5,0 -9,0 -13,-2l3 14 0 4zm110 -94c0,0 0,0 0,0 0,0 0,0 0,0l0 0z"/>
   <path class="fil27" d="M7941 163c3,-15 5,-37 4,-54 1,0 3,0 4,-1 1,14 0,30 -4,47 -1,2 -1,5 -2,8 -1,0 -1,0 -2,0z"/>
   <path class="fil28" d="M7886 2l0 0c0,0 0,0 0,0l0 0c0,0 0,0 0,0zm2 0c6,-1 10,-2 18,-2 0,0 1,0 2,0 -7,0 -14,1 -20,2z"/>
   <path class="fil29" d="M7943 163c1,-3 1,-6 2,-8 4,-17 5,-33 4,-47 1,0 2,0 3,0 19,-2 38,-11 53,-23 0,2 0,4 0,6 0,0 0,0 0,0 0,0 0,0 0,0 0,0 -16,61 -62,72zm62 -81c0,-1 0,-1 0,-2l0 0c0,1 0,1 0,2l0 0zm-1 -7c0,-1 0,-2 0,-3 -4,-24 -16,-45 -37,-58 -3,-2 -7,-4 -10,-5 -10,-5 -22,-8 -35,-9 -4,0 -8,0 -12,0 -8,0 -16,1 -24,2l0 0c0,0 0,0 0,0 1,0 1,0 2,0 6,-1 13,-2 20,-2 1,0 2,0 2,0 58,0 88,32 94,75l0 0z"/>
   <path class="fil30" d="M7750 145c-24,-5 -50,-9 -75,-12 21,2 42,6 62,9 0,0 0,0 0,0 0,0 0,0 0,0 1,0 3,1 4,1 3,1 6,1 9,2zm-125 -15l0 0 0 0 0 0z"/>
   <path class="fil31" d="M7759 146c-3,0 -6,-1 -9,-1 -3,-1 -6,-1 -9,-2 6,1 12,2 18,3l0 0zm-22 -4c0,0 0,0 0,0 -20,-3 -41,-7 -62,-9 -5,0 -9,-1 -14,-1 -3,0 -5,-1 -8,-1 12,-8 26,-20 28,-34 16,-4 52,-13 88,-18 6,-1 12,-2 18,-2 0,0 0,0 1,0 0,3 1,6 1,10 0,6 -1,12 -3,18 -4,14 -12,25 -18,32 -11,2 -21,4 -31,5zm-84 -11c-9,0 -17,-1 -25,-1 0,0 0,0 0,0 9,0 14,0 25,1zm-27 -1c-1,0 -1,0 -1,0l0 0c0,0 0,0 0,0l1 0z"/>
   <path class="fil32" d="M7741 143c-1,0 -3,-1 -4,-1 0,0 0,0 0,0 1,0 3,1 4,1z"/>
   <path class="fil33" d="M7759 146l0 0c-6,-1 -12,-2 -18,-3 -1,0 -3,-1 -4,-1 10,-1 20,-3 31,-5 -5,6 -9,9 -9,9z"/>
   <path class="fil34" d="M7638 49c2,0 4,0 7,0 19,-1 39,-4 59,-7 -20,3 -40,6 -59,7 0,0 0,0 0,0 -3,0 -5,0 -7,0l0 0zm66 -7c0,0 0,0 1,0 -1,0 -1,0 -1,0z"/>
   <path class="fil35" d="M7852 11c3,-1 5,-1 5,-1l1 0c9,-4 18,-6 28,-8l0 0c0,0 0,0 0,0 0,0 0,0 0,0 -10,2 -19,4 -28,8l-1 0c0,0 -2,0 -5,1z"/>
   <path class="fil36" d="M7846 13c2,-1 4,-1 6,-2 3,-1 5,-1 5,-1l1 0c9,-4 18,-6 28,-8 0,0 0,0 0,0 0,0 0,0 0,0 -9,2 -18,4 -26,7l-1 0c-1,1 -6,2 -13,4z"/>
   <path class="fil37" d="M7886 2c0,0 0,0 0,0 0,0 0,0 0,0 0,0 0,0 0,0l0 0z"/>
   <path class="fil38" d="M7886 2c0,0 0,0 0,0l0 0c0,0 0,0 0,0 0,0 0,0 0,0z"/>
   <path class="fil39" d="M8004 72c-2,-7 -4,-14 -6,-21l0 0c-6,-15 -16,-28 -31,-37 21,13 33,34 37,58zm-118 -70c0,0 0,0 0,0 0,0 0,0 0,0 8,-1 16,-2 24,-2 4,0 8,0 12,0 -3,0 -5,0 -8,0 0,0 -1,0 -2,0l0 0c-8,0 -16,1 -24,2 -1,0 -1,0 -2,0z"/>
   <path class="fil40" d="M7897 91c-6,-5 -14,-8 -22,-11 -1,0 -3,0 -5,-1 0,0 -1,0 -2,0 -13,-3 -27,-5 -42,-5 -10,0 -21,1 -31,2 -3,0 -5,0 -7,1 0,-1 -1,-2 -1,-2 0,-1 0,-1 0,-2 3,0 5,0 8,-1 10,0 19,-1 29,-1 15,0 30,1 42,4 1,0 2,0 3,0 1,0 3,1 4,1 10,3 19,6 26,11 1,0 1,1 2,1 -1,1 -2,2 -4,3zm108 -6c0,-1 0,-2 0,-3 0,1 0,2 0,3 0,0 0,0 0,0zm0 -5c0,0 -1,-1 -1,-1 0,-2 0,-3 0,-4 0,1 0,2 0,4 0,0 1,1 1,1zm-301 -38c0,0 0,0 0,0 0,0 0,0 0,0zm1 0c18,-2 36,-5 53,-9 36,-7 67,-15 85,-19 1,-1 1,-1 2,-1l1 0c0,0 0,0 0,0 -17,4 -50,13 -88,20l0 0c-17,4 -35,7 -53,9z"/>
   <path class="fil41" d="M7943 109c-14,0 -29,-5 -42,-15 -1,-1 -2,-2 -4,-3 2,-1 3,-2 4,-3 12,7 25,10 39,10 1,0 2,0 3,0 1,3 1,7 2,11 -1,0 -1,0 -2,0z"/>
   <path class="fil42" d="M7945 109c-1,-4 -1,-8 -2,-11 2,0 3,0 5,0l0 0c1,3 1,7 1,10 -1,1 -3,1 -4,1z"/>
   <path class="fil43" d="M7949 108c0,-3 0,-7 -1,-10 20,-2 40,-10 56,-19 0,-3 0,-5 0,-7 0,1 0,2 0,3 0,1 0,2 0,4 0,0 1,1 1,1 0,1 0,1 0,2 0,1 0,2 0,3 -15,12 -34,21 -53,23 -1,0 -2,0 -3,0zm18 -94c-12,-7 -27,-12 -45,-14 13,1 25,4 35,9 3,1 7,3 10,5z"/>
   <path class="fil44" d="M7681 97c0,-1 0,-2 0,-4 0,-1 0,-3 0,-4 12,-2 50,-10 89,-14 5,-1 11,-1 17,-2l0 0c0,1 0,1 0,2 0,0 1,1 1,2 -1,0 -1,0 -1,0 -6,0 -12,1 -18,2 -36,5 -72,14 -88,18z"/>
   <path class="fil45" d="M7645 49c0,0 0,0 0,0 19,-1 39,-4 59,-7 0,0 0,0 0,0 0,0 0,0 1,0 6,-1 13,-2 19,-3l1 0 0 0 1 0 0 0 0 0 1 0 1 0 0 0 1 -1 1 0 0 0 1 0 0 0 1 0 0 0 1 0 0 0 1 0 1 -1 0 0 1 0 0 0 1 0 0 0 1 0 1 0 0 0 1 0 0 -1 1 0 0 0 1 0 0 0 1 0 1 0 0 0 2 0 0 -1 0 0 1 0 0 0 1 0 1 0 0 0 1 0 1 -1 0 0 1 0 1 0 0 0 1 0 0 0 0 0 1 0 1 -1 0 0 1 0 1 0 -1 0 -1 0 0 0 -1 1 -1 0 0 0 0 0 -1 0 0 0 -1 0 -1 0 0 0 -1 1 -1 0 0 0 -1 0 -1 0 0 0 -1 0 0 0 0 1 -2 0 0 0 -1 0 -1 0 0 0 -1 0 0 0 -1 0 0 1 -1 0 0 0 -1 0 -1 0 0 0 -1 0 0 0 -1 0 0 0 -1 1 -1 0 0 0 -1 0 0 0 -1 0 0 0 -1 0 0 0 -1 0 -1 1 0 0 -1 0 -1 0 0 0 0 0 -1 0 0 0 -1 0c-27,5 -54,8 -79,10zm113 -16l0 0z"/>
   <path class="fil46" d="M7901 88c-1,0 -1,-1 -2,-1 -7,-5 -16,-8 -26,-11 -1,0 -3,-1 -4,-1 -1,0 -2,0 -3,0 -12,-3 -27,-4 -42,-4 -10,0 -19,1 -29,1 -3,1 -5,1 -8,1l0 0c-2,-8 -5,-15 -9,-20 9,-2 18,-5 25,-6 25,-7 50,-12 74,-20 -6,-2 -12,-3 -19,-3 -27,0 -60,13 -87,20 -7,-6 -12,-9 -12,-9l-1 -2c38,-7 71,-16 88,-20 7,-2 12,-3 13,-4l1 0c8,-3 17,-5 26,-7 16,12 33,32 46,61 -9,9 -19,18 -31,25z"/>
   <path class="fil47" d="M7940 98c-14,0 -27,-3 -39,-10 12,-7 22,-16 31,-25 4,10 8,22 11,35 0,0 0,0 0,0 -1,0 -2,0 -3,0z"/>
   <path class="fil48" d="M7932 63c-13,-29 -30,-49 -46,-61 0,0 0,0 0,0 15,11 36,30 49,56 -1,2 -2,3 -3,5z"/>
   <path class="fil49" d="M7943 98c0,0 0,0 0,0 -3,-13 -7,-25 -11,-35 1,-2 2,-3 3,-5 6,12 11,25 13,40 0,0 0,0 0,0 0,0 0,0 0,0 -2,0 -3,0 -5,0z"/>
   <path class="fil50" d="M7948 98c0,0 0,0 0,0 -2,-15 -7,-28 -13,-40 -13,-26 -34,-45 -49,-56 1,0 1,0 2,0 8,-1 16,-2 24,-2l0 0c1,0 2,0 2,0 3,0 5,0 8,0 18,2 33,7 45,14 15,9 25,22 31,37l0 0c2,7 4,14 6,21 0,2 0,4 0,7 -16,9 -36,17 -56,19l0 0z"/>
   <path class="fil51" d="M7681 89c-2,-20 -15,-36 -36,-40 36,-2 77,-9 113,-16l1 2c0,0 5,3 12,9 -8,2 -15,4 -21,4 0,0 -29,5 -41,5 0,0 -1,0 -1,0 -2,0 -4,0 -5,0 -6,0 -6,2 -2,10 1,2 4,3 10,3 14,0 43,-7 67,-13 4,5 7,12 9,20 -6,1 -12,1 -17,2 -39,4 -77,12 -89,14zm77 -56l0 0zm29 40l0 0z"/>
   <path class="fil52" d="M7630 49c0,0 -1,0 -1,0 3,0 6,0 9,0 -3,0 -6,0 -8,0z"/>
   <path class="fil53" d="M7653 131c0,0 0,0 0,0 0,0 0,0 0,0 0,0 0,0 0,0z"/>
   <path class="fil54" d="M7653 131c0,0 0,0 0,0 -11,-1 -16,-1 -25,-1 26,-1 44,-14 48,-32 1,0 3,-1 5,-1 -2,14 -16,26 -28,34z"/>
   <polygon class="fil55" points="7625,130 7625,130 7625,130 7625,130 "/>
   <path class="fil56" d="M7625 130l0 0c0,0 0,0 0,0 0,0 0,0 0,0z"/>
   <path class="fil57" d="M7638 49c2,0 4,0 7,0 0,0 0,0 0,0 -3,0 -5,0 -7,0z"/>
   <path class="fil58" d="M7676 98c0,-3 1,-5 1,-8l0 0c0,0 1,-1 4,-1 0,1 0,3 0,4 0,2 0,3 0,4 -2,0 -4,1 -5,1z"/>
   <path class="fil59" d="M7630 49c0,0 0,0 0,0 2,0 5,0 8,0 2,0 4,0 7,0 0,0 0,0 0,0 -5,0 -10,0 -15,0z"/>
   <path class="fil60" d="M7677 90l0 0c0,0 0,0 0,0 0,-22 -19,-39 -47,-41 5,0 10,0 15,0 21,4 34,20 36,40 -3,0 -4,1 -4,1z"/>
   <path class="fil61" d="M7626 130c0,0 0,0 0,0 0,0 0,0 0,0l-1 0c0,0 0,0 0,0l0 0c-2,0 -5,-1 -11,-2 -5,-7 -11,-14 -14,-22 15,2 29,3 35,4 0,0 1,0 1,0 13,0 23,-16 23,-23 0,-8 -11,-19 -23,-19l-1 0 0 0c-5,0 -20,1 -36,2 1,-6 3,-12 7,-17 10,-2 16,-4 20,-4 1,0 2,0 3,0 0,0 1,0 1,0 0,0 0,0 0,0 28,2 47,19 47,41 0,0 0,0 0,0 0,3 -1,5 -1,8 -4,18 -22,31 -48,32 0,0 0,0 0,0 0,0 0,0 -1,0 0,0 0,0 -1,0zm-1 0l0 0zm-11 -2l0 0zm45 -41l0 0zm-53 -34c-22,6 -51,15 -57,22 6,-7 35,-16 57,-22zm-57 22l-3 23 3 -23zm-3 23l0 0zm83 -49l0 0zm1 0l0 0z"/>
   <path class="fil62" d="M7614 128c-21,-5 -60,-17 -68,-27 0,-1 0,-2 0,-3l3 -23c6,-7 35,-16 57,-22 -4,5 -6,11 -7,17 -22,1 -45,3 -45,3 -8,0 12,6 12,14 0,7 -22,14 -15,14 0,0 1,0 3,0 7,1 28,3 46,5 3,8 9,15 14,22zm-60 -27l0 0z"/>
   <path class="fil63" d="M7619 103c-10,0 -20,-6 -30,-7 -1,-1 -3,-1 -6,-1 -8,0 -20,2 -29,6l0 0c-2,0 -3,0 -3,0 -7,0 15,-7 15,-14 0,-8 -20,-14 -12,-14 0,0 23,-2 45,-3 16,-1 31,-2 36,-2l0 0 1 0c12,0 23,11 23,19l0 0c0,-8 -11,-19 -23,-19l-1 0 0 0c11,10 7,32 -14,35 0,0 -1,0 -2,0z"/>
   <path class="fil64" d="M7636 110c0,0 -1,0 -1,0 -6,-1 -20,-2 -35,-4 -18,-2 -39,-4 -46,-5 9,-4 21,-6 29,-6 3,0 5,0 6,1 10,1 20,7 30,7 1,0 2,0 2,0 21,-3 25,-25 14,-35l0 0 1 0c12,0 23,11 23,19 0,7 -10,23 -23,23z"/>
   <path class="fil65" d="M7525 87c0,7 6,14 14,14l66 0c7,0 14,-7 14,-14 0,-8 -7,-14 -14,-14l-66 0c-8,0 -14,6 -14,14z"/>
   <path class="fil66" d="M7539 96c-5,0 -9,-4 -9,-9 0,-5 4,-10 9,-10l66 0c5,0 9,5 9,10 0,5 -4,9 -9,9l-66 0z"/>
   <path class="fil67" d="M7918 372c0,0 0,0 0,0 0,-1 0,-1 0,-2 0,1 0,2 0,2 0,0 0,0 0,0 0,0 0,0 0,0zm16 -1c0,-1 0,-2 0,-3 0,-2 -1,-5 -1,-8 -3,-14 11,-48 2,-50 -3,0 -5,0 -8,0 -58,0 3,-39 -7,-42 -39,-10 -36,-19 -26,-25 12,-1 26,-2 37,-5 0,0 1,1 1,2 5,8 9,18 12,30 2,9 4,19 4,31 1,4 1,9 1,14 -1,14 -2,30 -6,48 0,2 0,4 -1,7 -3,0 -5,0 -8,1zm24 -5c4,-15 6,-33 6,-53 0,20 -2,38 -6,53 0,0 0,0 0,0zm6 -53c0,0 0,0 0,0 0,0 0,0 0,0zm0 0c0,0 0,0 0,0 0,0 0,0 0,0zm-1 -19c0,0 0,0 0,0 0,0 0,0 0,0zm0 0c0,0 0,0 0,0 0,0 0,0 0,0zm0 0c-2,-20 -5,-42 -11,-67 0,0 0,0 0,0 6,25 9,47 11,67zm-100 -48c0,-1 -1,-2 -1,-2 0,0 0,-1 0,-1 0,0 0,0 0,0 0,1 1,2 1,3z"/>
   <path class="fil68" d="M7835 207c0,0 0,-1 0,-1 0,0 0,1 0,1 0,0 0,0 0,0l0 0zm-1 -1c0,0 0,0 0,-1 0,-7 -2,-14 -4,-20 2,6 4,13 4,20 0,1 0,1 0,1zm-4 -21c0,0 0,0 0,0 0,0 0,0 0,0z"/>
   <path class="fil69" d="M7835 207c0,0 0,0 0,0 0,0 0,-1 0,-1 0,0 0,0 -1,0 0,0 0,0 0,-1 0,-7 -2,-14 -4,-20 0,0 0,0 0,0 0,0 0,0 0,0 -2,-5 -4,-10 -7,-13 21,5 42,9 63,12 3,0 6,0 9,1l4 20 -64 2zm19 -6c0,0 0,0 0,0l18 0c4,0 8,-3 8,-7 0,-4 -4,-8 -8,-8l-18 0c0,0 0,0 0,0l-9 0c-2,0 -4,1 -5,2 -1,2 -2,4 -2,6 0,3 1,5 3,6 2,1 3,1 4,1l9 0zm-13 -1l0 0z"/>
   <path class="fil70" d="M7895 185c-3,-1 -6,-1 -9,-1 -21,-3 -42,-7 -63,-12 -6,-9 -14,-13 -18,-15 0,0 30,13 62,13 9,0 17,0 25,-3l3 18z"/>
   <path class="fil71" d="M7872 201l-18 0c0,0 0,0 0,0l9 0c5,0 8,-3 8,-7 0,-4 -3,-8 -8,-8l-9 0c0,0 0,0 0,0l18 0c4,0 8,4 8,8 0,4 -4,7 -8,7zm-1 -7l0 0z"/>
   <path class="fil72" d="M7841 200l0 0c-2,-1 -3,-3 -3,-6 0,-2 1,-4 2,-6 1,-1 3,-2 5,-2l13 0c-1,8 -8,14 -17,14zm17 -14l5 0 -5 0zm5 0c5,0 8,4 8,8 0,-4 -3,-8 -8,-8zm8 8l0 0z"/>
   <path class="fil73" d="M7863 201l-18 0c-1,0 -2,0 -4,-1 9,0 16,-6 17,-14l5 0c5,0 8,4 8,8 0,4 -3,7 -8,7z"/>
   <path class="fil74" d="M7935 415c0,0 0,0 0,0 3,-3 6,-7 9,-12 -3,5 -6,9 -9,12z"/>
   <path class="fil75" d="M7929 418c0,0 0,0 0,0 0,0 0,0 0,0 2,-1 4,-2 6,-3 0,0 0,0 0,0 -2,1 -4,2 -6,3z"/>
   <path class="fil76" d="M7929 418c6,-18 10,-34 13,-48 6,-1 11,-3 16,-4 -3,16 -9,29 -14,37 -3,5 -6,9 -9,12 -2,1 -4,2 -6,3 0,0 0,0 0,0zm35 -105c0,0 0,0 0,0 0,0 0,0 0,0zm0 0c0,0 0,0 0,0 0,0 0,0 0,0zm0 0c-1,-6 -1,-12 -1,-19 0,7 0,13 1,19zm-1 -19c0,0 0,0 0,0 0,0 0,0 0,0zm0 0c0,0 0,0 0,0 0,0 0,0 0,0zm-32 -56c-6,-10 -12,-17 -17,-22 -9,-8 -15,-11 -15,-11l0 0 -4 -20 0 0c15,4 35,12 53,28l0 0c1,5 3,9 4,14 -4,5 -12,8 -20,11 -1,0 -1,0 -1,0z"/>
   <path class="fil77" d="M7945 202c-1,-4 -3,-7 -4,-11 0,-2 -1,-4 -2,-6 2,6 4,11 6,17zm-7 -20c0,-1 -1,-2 -1,-2l0 0 0 0c0,0 1,1 1,2z"/>
   <path class="fil78" d="M7948 213c-18,-16 -38,-24 -53,-28l0 -4 -3 -14c4,2 8,2 13,2 12,0 26,-4 35,-6 1,0 1,0 1,0 -1,8 -3,13 -4,16 0,0 0,0 0,1 0,0 0,0 0,0 0,0 0,0 0,0l0 0c0,0 1,1 1,2 0,1 1,2 1,3 1,2 2,4 2,6 1,4 3,7 4,11 1,3 2,7 3,11zm-53 -28l0 0zm42 -5l0 0z"/>
   <path class="fil79" d="M7937 180l0 0zm0 0c0,0 0,0 0,0 3,-1 5,-2 8,-2 -3,0 -5,1 -8,2l0 0zm0 -1c1,-3 3,-8 4,-16 1,0 1,0 2,0 -2,5 -4,11 -6,16z"/>
   <path class="fil80" d="M7937 180c0,-1 0,-1 0,-1 2,-5 4,-11 6,-16 46,-11 62,-72 62,-72 0,41 -19,75 -60,87 -3,0 -5,1 -8,2 0,0 0,0 0,0z"/>
   <path class="fil81" d="M7942 370c1,-3 1,-5 1,-7 4,-18 5,-34 6,-48 0,-5 0,-10 -1,-14 0,-12 -2,-22 -4,-31 -3,-12 -7,-22 -12,-30 0,-1 -1,-2 -1,-2 0,0 0,0 1,0 8,-3 16,-6 20,-11 6,25 9,47 11,67 0,0 0,0 0,0 0,0 0,0 0,0 0,0 0,0 0,0 0,0 0,0 0,0 0,7 0,13 1,19 0,0 0,0 0,0 0,0 0,0 0,0 0,0 0,0 0,0 0,0 0,0 0,0 0,20 -2,38 -6,53 -5,1 -10,3 -16,4z"/>
   <path class="fil82" d="M7911 233l0 0 0 0c0,0 0,0 0,0z"/>
   <path class="fil83" d="M7921 414c1,-4 1,-7 0,-11 1,4 1,7 0,11 0,0 0,0 0,0z"/>
   <path class="fil84" d="M7921 414c1,-4 1,-7 0,-11 0,-11 -1,-21 -3,-31 5,0 11,0 16,-1 1,15 -2,33 -13,43z"/>
   <path class="fil85" d="M7862 243c0,0 0,0 0,0 -1,-1 -2,-3 -3,-4 1,1 2,3 3,4l0 0z"/>
   <path class="fil86" d="M7874 244c-4,0 -8,-1 -10,-1l0 0c-1,0 -2,0 -2,0l0 0c-1,-1 -2,-3 -3,-4 -6,-8 -11,-15 -15,-20 9,4 19,7 30,9 12,3 24,3 37,5 5,1 -9,5 -17,10 -8,0 -14,1 -20,1z"/>
   <path class="fil87" d="M7918 372c0,0 0,-1 0,-2 -9,-1 -16,-6 -18,-15 -2,-4 -2,-7 -2,-9 0,-1 0,-2 0,-2 1,-2 2,-4 2,-6 0,-5 -3,-11 -8,-13 0,0 -7,-2 -10,-13 -1,-3 -1,-7 -1,-9 0,-3 0,-5 0,-5 1,-2 1,-4 1,-6 0,-6 -3,-11 -7,-13 0,0 -8,-3 -12,-13 -1,-3 -1,-7 -1,-10 0,-3 0,-7 1,-10 0,-1 -1,-2 -1,-3 0,0 0,0 0,0 0,0 1,0 2,0l0 0c2,0 6,1 10,1 6,0 12,-1 20,-1 -10,6 -13,15 26,25 10,3 -51,42 7,42 3,0 5,0 8,0 9,2 -5,36 -2,50 0,3 1,6 1,8 0,1 0,2 0,3 -5,1 -11,1 -16,1zm0 -2l0 0zm-55 -124l0 0z"/>
   <path class="fil88" d="M7646 147l0 0 0 0c-1,0 -1,0 0,0z"/>
   <g style="clip-path:url(#id0)">
    <image x="7767" y="21" width="113.915" height="34.571" xlink:href="line_b_Images\line_b_ImgID1.png"/>
   </g>
   <g style="clip-path:url(#id1)">
    <image x="7693" y="40" width="88.884" height="29.8482" xlink:href="line_b_Images\line_b_ImgID2.png"/>
   </g>
  </g>
  <rect class="fil89" x="386" y="263" width="7065.34" height="27.192" rx="140" ry="13"/>
  <path class="fil90" d="M394 259l7050 0c4,0 8,4 8,8l0 1c0,4 -4,8 -8,8l-7050 0c-4,0 -8,-4 -8,-8l0 -1c0,-4 4,-8 8,-8z"/>
  <rect class="fil89" x="388" y="306" width="7065.34" height="27.192" rx="140" ry="13"/>
  <path class="fil90" d="M394 303l7050 0c4,0 8,3 8,8l0 0c0,5 -4,8 -8,8l-7050 0c-4,0 -8,-3 -8,-8l0 0c0,-5 4,-8 8,-8z"/>
  <rect class="fil89" x="8241" y="263" width="7461.21" height="27.192" rx="148" ry="13"/>
  <path class="fil90" d="M8249 259l7445 0c4,0 8,4 8,8l0 1c0,4 -4,8 -8,8l-7445 0c-5,0 -8,-4 -8,-8l0 -1c0,-4 3,-8 8,-8z"/>
  <rect class="fil89" x="8241" y="306" width="7461.21" height="27.192" rx="148" ry="13"/>
  <path class="fil90" d="M8249 303l7445 0c4,0 8,3 8,8l0 0c0,5 -4,8 -8,8l-7445 0c-5,0 -8,-3 -8,-8l0 0c0,-5 3,-8 8,-8z"/>
  <rect class="fil91" y="133" width="563" height="311"/>
 </g>
</svg>
