<?xml version="1.0" encoding="UTF-8"?>
<!DOCTYPE svg PUBLIC "-//W3C//DTD SVG 1.1//EN" "http://www.w3.org/Graphics/SVG/1.1/DTD/svg11.dtd">
<!-- Creator: CorelDRAW Home & Student X8 -->
<svg xmlns="http://www.w3.org/2000/svg" xml:space="preserve" width="28.4988mm" height="24.7102mm" version="1.1" style="shape-rendering:geometricPrecision; text-rendering:geometricPrecision; image-rendering:optimizeQuality; fill-rule:evenodd; clip-rule:evenodd"
viewBox="0 0 124 108"
 xmlns:xlink="http://www.w3.org/1999/xlink">
 <defs>
  <style type="text/css">
   <![CDATA[
    .fil0 {fill:red}
    .fil1 {fill:red;fill-rule:nonzero}
   ]]>
  </style>
   <clipPath id="id0">
    <path d="M76 48c0,0 -1,0 -1,0 0,0 0,0 0,0 0,-1 1,-2 1,-3 0,0 0,0 0,0 1,0 1,1 1,1 1,0 1,1 0,2 0,0 0,0 -1,0l0 0z"/>
   </clipPath>
   <clipPath id="id1">
    <path d="M75 48c0,-1 0,-2 0,-2 1,0 1,-1 1,-1 0,1 -1,2 -1,3l0 0z"/>
   </clipPath>
 </defs>
 <g id="Layer_x0020_1">
  <metadata id="CorelCorpID_0Corel-Layer"/>
  <path class="fil0" d="M24 74c0,0 0,0 0,0 0,0 0,0 0,0l0 0zm0 0c0,0 0,0 0,0 0,0 0,0 0,0zm0 0l0 0zm-23 0c0,0 -1,0 -1,0l0 -5c0,0 0,-1 1,-1 0,1 0,1 0,2 0,2 0,4 0,4l0 0c0,0 0,0 0,0zm0 -6c0,0 0,0 0,0 0,0 0,1 1,1 -1,0 -1,0 -1,-1zm0 2l0 0zm0 4l0 0zm23 -1l0 0 1 0c0,0 0,0 0,0l0 0c0,0 0,0 0,0l0 0 0 0c0,0 1,0 1,0l0 0 0 0 0 0c0,0 0,0 0,0l0 0c0,0 0,0 0,0l0 0c0,-1 0,-1 1,-1l0 0c0,0 0,0 0,0l0 0c0,0 0,0 0,0l0 0c0,0 1,0 1,0l0 0c0,0 1,0 1,0l0 0c0,-1 1,-1 1,-1l0 0 0 0 0 0c0,0 0,0 0,0l0 0 1 0 0 0c0,-1 0,-1 0,-1l0 0c0,0 0,0 0,0l0 0c1,0 1,0 1,-1l0 0c0,0 0,0 0,0l0 0c0,0 0,0 0,0l0 0c0,0 0,0 0,0l0 0c0,0 0,0 0,0l0 0c0,0 1,0 1,0l0 0c0,0 0,0 0,-1l0 0c0,0 0,0 0,0 0,0 0,0 0,0l0 0c0,0 0,0 0,0l0 0 0 0c0,0 0,0 0,0l0 -1c0,0 0,0 1,0l0 0 0 0 0 0c0,0 0,0 0,0 0,0 0,0 0,0 0,-1 0,-1 0,-1 0,0 0,0 0,0 0,0 0,0 0,0 0,0 0,0 0,0 0,0 0,0 0,-1 0,0 0,0 0,0 0,0 0,0 0,0 0,0 0,0 0,0 0,0 0,0 0,0 0,-1 0,-1 0,-1 0,0 0,0 0,0 0,0 0,0 0,0 0,0 0,0 0,0 0,0 0,0 0,0 0,0 0,0 0,1 0,0 0,0 0,0 0,0 0,0 0,0 0,0 0,0 0,0 0,0 0,0 0,0 0,1 0,1 0,1 0,0 0,0 0,0 0,0 0,0 0,0l0 0c0,0 0,0 0,1 0,0 0,0 0,0 0,0 0,0 0,0l0 0c0,0 0,0 0,0l0 0 -1 0c0,0 0,0 0,1l0 0c0,0 0,0 0,0l0 0 0 0 0 0c0,0 0,0 0,0l0 0 0 0 0 1 0 0 -1 0 0 0 0 0 0 0 0 0 0 0c0,0 0,0 0,0l0 0c0,0 0,0 0,0l0 0c0,1 0,1 -1,1l0 0c0,0 0,0 0,0l0 0c0,0 0,0 0,1l0 0 -1 0 0 0c0,0 0,0 0,0l0 0 0 0 0 0c0,0 -1,0 -1,1l0 0c0,0 -1,0 -1,0l0 0c0,0 -1,0 -1,0l0 0c0,0 0,0 0,0l0 0c0,0 0,0 0,0l0 0c-1,0 -1,0 -1,1l0 0c0,0 0,0 0,0l0 0c0,0 0,0 0,0l0 0 0 0 0 0c0,0 -1,0 -1,0l0 0c0,0 0,0 0,0 0,0 0,0 0,0l0 0c0,0 0,0 0,0 0,0 0,0 -1,0zm-22 -4c0,0 0,0 0,0 0,0 0,0 0,0l0 0zm0 0l1 0 0 0 0 0 0 0 0 0 0 0 0 0 0 0 1 0 0 0 0 0 0 0 0 0 0 0 0 0 0 0 0 0 0 0 1 -1 0 0 0 0 0 0 0 0 0 0 0 0 0 0 0 0 0 0 1 0 0 0 0 0 0 0 0 0 0 0 0 0 0 0 0 0 0 0 1 0 0 0 0 0 0 0 0 0 0 0 0 0 0 0 0 0 0 0 1 0 0 0 0 0 0 0 0 0 0 0 0 0 0 0 0 0 0 0 0 0 0 0 1 -1 0 0 0 0 0 0 0 0 0 0 0 0 0 0 0 0 0 0 1 0 0 0 0 0 0 0 0 0 0 0 0 0 0 0 0 0 0 0 0 0 0 0 1 -1 0 0 0 0 0 0 0 0 0 0 0 0 0 0 0 0 0 0 0 0 0 0 1 0 0 0 0 0 0 0 0 0 0 0 0 -1 0 0 0 0 0 0 1 0 0 0 0 0 0 0 0 -1 0 0 0 0 1 0 -1 0 0 0 0 0 0 1 0 0 0 0 0 0 -1 0 0 0 0 0 0 0 0 1 0 0 0 0 0 0 0 0 0 0 -1 0 0 0 0 0 0 0 0 0 0 0 0 0 0 0 0 0 0 0 0 0 0 0 -1 1 0 0 0 0 0 0 0 0 0 0 0 0 0 0 0 0 0 0 0 0 0 0 -1 0 0 0 0 0 0 0 0 0 0 0 0 0 0 0 0 0 0 0 -1 1 0 0 0 0 0 0 0 0 0 0 0 0 0 0 0 0 0 0 0 0 0 0 -1 0 0 0 0 0 0 0 0 0 0 0 0 0 0 0 0 0 0 0 -1 0 0 0 0 0 0 0 0 0 0 0 0 0 0 0 0 0 0 0 -1 0 0 0 0 0 0 0 0 0 0 0 0 0 0 0 0 0 0 0 -1 1 0 0 0 0 0 0 0 0 0 0 0 0 0 0 0 0 0 0 -1 0 0 0 0 0 0 0 0 0 0 0 0 0 0 0 -1 0zm13 -5l-1 0 0 0c0,-3 1,-6 3,-8 2,-2 11,-4 11,-4l1 0c1,1 1,1 2,2 -1,-1 -1,-1 -2,-2 0,0 0,0 0,0 -3,1 -9,3 -11,4 -2,2 -3,5 -3,8 0,0 0,0 0,0zm-1 0l0 0zm20 0c0,0 0,0 0,0 0,0 0,0 0,0zm0 0c0,0 0,0 0,0 0,0 0,0 0,0zm4 -6c0,0 0,0 0,0 0,0 0,0 1,0 7,-3 16,-6 23,-9 1,-1 4,-2 7,-3l0 0 0 0 0 0 0 0 0 0 0 0 1 -1c1,0 2,-1 3,-1 0,0 0,0 0,0 -2,1 -3,1 -4,2l0 0 0 0 0 0 0 0 0 0 0 0 0 0 0 0c-2,1 -5,2 -6,3 -3,1 -6,2 -9,4 -2,1 -4,1 -6,2 -1,0 -2,0 -2,1 -1,0 -3,1 -4,1 -1,0 -1,0 -2,1 -1,0 -1,0 -2,0zm28 -2c-1,0 -1,0 -1,0 -1,0 -2,0 -3,0 1,0 2,0 3,0 0,0 0,0 1,0 0,0 0,0 0,0zm-1 0l0 0zm20 -18c0,0 0,0 0,0 1,-1 1,-1 1,-1 17,-8 36,-18 36,-18 0,0 0,0 1,0 0,0 0,0 0,0 0,0 0,0 0,0 0,0 0,0 0,0l0 0 0 0 0 0c0,0 0,0 0,0 0,0 0,0 0,0 0,0 -8,4 -19,9 -5,3 -11,6 -17,9l0 0c0,0 -1,0 -2,1zm2 -1l0 0z"/>
  <path class="fil1" d="M34 64c0,0 0,0 0,0 0,0 0,0 0,0zm0 0c1,-5 -3,-9 -7,-9l0 0c4,0 8,4 7,9z"/>
  <path class="fil0" d="M25 73l0 0c0,0 0,0 0,0 0,0 0,0 0,0 0,0 0,0 -1,0 6,0 10,-4 10,-9 0,0 0,0 0,0 0,0 0,0 0,0 0,0 0,0 0,0 1,-5 -3,-9 -7,-9 0,0 0,0 0,0 3,0 6,2 7,4 1,1 1,3 1,4 0,0 0,1 0,1 0,0 0,0 0,0 0,5 -5,9 -10,9 0,0 0,0 0,0zm9 -14l0 0zm1 5l0 0z"/>
  <path class="fil0" d="M24 74l0 0c0,0 0,0 0,0 0,0 0,0 0,0zm0 0c-2,0 -4,0 -6,-1 2,1 4,1 6,1zm-6 -1c0,0 0,0 0,0 0,0 0,0 0,0zm0 0c0,0 0,0 0,0 0,0 0,0 0,0z"/>
  <path class="fil0" d="M24 74c0,0 0,0 0,0 -2,0 -4,0 -6,-1 0,0 0,0 0,0 0,0 0,0 0,0 0,0 0,0 0,0 0,0 0,0 0,0 0,0 0,0 0,0l0 0c-2,-1 -3,-3 -4,-5 1,0 1,0 1,0 1,2 2,4 4,5 2,1 3,1 5,1 0,0 0,0 0,0 0,0 0,0 0,0z"/>
  <path class="fil0" d="M2 69l0 0c0,0 0,0 0,0 0,0 0,0 0,0zm0 0c0,0 0,0 0,0 0,0 0,0 0,0zm12 -5c0,0 0,0 0,0 0,0 0,0 0,0z"/>
  <path class="fil0" d="M3 69c0,0 0,0 -1,0l0 0c0,0 0,0 0,0 0,0 0,0 0,0 5,0 9,-2 12,-5 0,0 0,0 0,0l1 0c-3,3 -7,5 -12,5zm-1 0l0 0zm12 -5l0 0z"/>
  <path class="fil0" d="M25 75c0,0 0,0 0,0 0,0 0,0 0,0l0 0zm0 -2c0,0 1,0 1,0 0,0 0,0 0,0l0 0c0,0 0,0 0,0l0 0c4,-1 7,-3 8,-6l0 0 0 0 0 0c1,0 1,0 1,0l0 0c0,0 0,0 0,-1l0 0c0,0 0,0 0,0l0 0 0 0 0 0c0,0 0,-1 0,-1l0 0 0 0 0 0c0,0 0,0 0,0 0,0 0,0 0,0 0,-1 0,-1 0,-1 0,0 0,0 0,0 0,0 0,0 0,0 0,0 0,0 0,0 0,0 0,0 0,0 0,0 0,0 0,1 0,0 0,0 0,0 0,0 0,0 0,0l0 0c0,0 0,0 0,0l0 0c0,0 0,1 0,1l0 0c0,0 0,0 0,0l0 0c0,0 0,0 0,0l0 0c0,1 0,1 0,1l0 0c0,0 0,0 -1,0l0 0 0 0 0 0c-1,3 -4,5 -8,6l0 0c0,0 0,0 0,0l0 0c0,0 0,0 0,0 0,0 -1,0 -1,0zm0 0c0,0 0,0 0,0 0,0 0,0 0,0zm0 0c0,0 0,0 -1,0l0 0c0,0 -1,-1 -2,-1l0 0c0,0 0,0 -1,0l0 0c0,0 -1,-1 -2,-2l0 0c0,0 0,0 0,0 0,0 0,0 0,0l0 0 0 0 0 0 -1 0 0 0 0 -1 0 0 0 0 0 0c0,0 0,0 0,0l0 0c0,0 0,-1 -1,-1l0 0 0 0 0 0 0 -1 0 0 0 0 0 0 0 0 0 0 0 0 0 0 0 0 0 0 0 0 0 -1 0 0 0 0 0 0 0 0 0 0 0 0 0 0 0 0 0 0 0 -1 0 0 0 0 0 0 0 0 0 0 0 0 0 0c0,0 0,0 0,0 0,0 0,0 0,0l0 0 0 0 0 0 0 0 0 0 0 0 0 0 0 1 0 0 0 0 0 0 0 0 0 0 0 0 0 0 0 0 0 0 0 1 0 0 0 0 0 0 0 0 0 0 0 0 0 0 0 0 0 0 0 0 0 1 0 0 0 0 0 0c1,0 1,1 1,1l0 0c0,0 0,0 0,0l0 0 0 0 0 0 0 1 0 0 1 0 0 0 0 0 0 0c0,0 0,0 0,0 0,0 0,0 0,0l0 0c1,1 2,2 2,2l0 0c1,0 1,0 1,0l0 0c1,0 2,1 2,1l0 0 0 0c1,0 1,0 1,0zm-8 -8c-3,1 -9,5 -14,5 -1,0 -2,0 -2,0 0,-1 0,-1 0,-2 0,1 0,1 1,1 0,0 0,0 0,0 0,0 0,0 0,0 1,0 1,0 1,0 5,0 9,-2 12,-5 0,0 0,0 0,0 0,-3 1,-6 3,-8 2,-1 8,-3 11,-4 0,0 0,0 0,0 1,1 1,1 2,2 2,2 4,3 7,4 0,0 0,0 0,0 1,0 1,0 2,0 1,-1 1,-1 2,-1l0 1c-2,1 -5,1 -8,1 -1,-2 -4,-4 -7,-4 0,0 0,0 0,0 -1,0 -1,0 -1,0 -5,0 -9,5 -9,9 0,0 0,1 0,1zm-16 5l0 0zm41 -13c1,0 3,-1 4,-1 -1,0 -3,1 -4,1zm4 -1c0,-1 1,-1 2,-1l-1 2c0,0 -1,0 -1,0l0 -1zm2 -1c2,-1 4,-1 6,-2 -2,1 -4,1 -6,2zm6 -2c3,-2 6,-3 9,-4 1,-1 4,-2 6,-3l0 1c-4,2 -9,5 -15,7l0 -1zm15 -7l0 0zm-35 13l0 0zm-7 -4l0 0zm-3 18l0 0zm17 -12l0 0 0 0 0 0 0 0 0 0 0 0 0 0 0 0c0,0 0,-1 1,-1l0 0 0 0 0 0 0 0 0 0 0 0 0 0 0 0 0 0 0 0c-1,0 -1,1 -1,1l0 0 0 0 0 0 0 0 0 0 0 0 0 0 0 0zm13 -5l0 0 0 0 0 0c2,0 5,0 7,0 1,0 2,0 3,0l0 0 0 0 0 0 0 0 0 0 0 0 0 0 1 0 0 0 0 0 0 0 0 0 -1 0 0 0 0 0 0 0 0 0 0 0 0 0 0 0c0,0 -1,0 -2,0 0,0 -1,0 -1,0 -2,0 -5,0 -7,0l0 0 0 0zm11 0l0 0zm13 -5c0,0 0,0 0,0l2 -1 0 0 0 0 0 0 0 0 0 0 0 -1 0 0 0 0 0 0 0 0 0 0 0 0 0 0 0 0 0 0 0 0 0 0 0 0 0 0 0 0 0 0 0 0 0 0 0 0 0 0 0 0 0 0 0 0 0 0 0 0 0 0 0 0 0 0 0 0 0 0 0 0 0 0 0 0 0 0 0 0 0 0 0 0 0 0 0 0 0 0 0 0 0 1 0 0 0 0 0 0 0 0 0 0 -2 1zm3 -2c1,-2 2,-3 2,-5 1,0 1,0 1,0 13,-6 39,-24 40,-25 0,1 0,1 0,1 0,0 -27,18 -43,29zm43 -30l0 0 0 0 0 0 0 0 0 0 0 0 0 0 0 0 0 0 0 0 0 0 0 0 0 0 0 0 0 0 0 0 0 0 0 0 0 0 0 0 0 0 0 0 0 0 0 0 0 0 0 0 0 0c0,0 -1,0 -1,0l0 0 0 0 0 0 0 0 0 0 0 0 0 0 0 0 0 0 0 0 0 0 0 0 0 0 0 0 0 0 0 0 0 0 0 0 0 0 0 0 0 0 0 0 0 0 0 0 0 0 0 0 0 0 0 0 0 0 0 0 0 0 0 0 0 0 0 0 0 0 0 0 0 0 0 0 0 0 0 0 0 0 0 0 0 0 0 0 0 0 0 0 0 0 0 0 0 0 0 0 0 0 0 0 0 0 0 0 0 0 0 0 0 0 0 0 0 0 0 0 0 0 0 0 0 0 0 0 0 0 0 0 0 0 0 0 0 0 0 0 0 0 0 0 0 0 0 0 0 0 0 0 0 0 0 0 0 0 0 0 0 0 0 0 0 0 0 0 0 0 0 0 0 0 0 0 0 0 0 0 0 0 0 0 0 0 0 0 0 0 0 0 0 0 0 0 0 0 0 0 0 0 0 0 0 0 0 0 0 0 0 0 0 0 0 0 0 0 0 0 0 0 0 0 0 0 0 0 0 0 0 0 0 0 0 0 0 0 0 0 0 0 0 0 0 0 0 0 0 0 0 0 0 0 0 0 0 0 0 0 0 0 0 0 0 0 0 0 0 0 0 0 0 0 0 0 0 0 0 0 0 0 0 0 0 0 0 0 0 0c0,0 1,0 1,0l0 0 0 0 0 0 0 0 0 0 0 0 0 0 0 0 0 0 0 0 0 0 0 0 0 0 0 0 0 0 0 0 0 0 0 0 0 0 0 0 0 0 0 0 0 0 0 0 0 0 0 0 0 0zm-1 0l0 0 0 0 0 0zm-36 18c0,0 0,0 0,0 4,-2 7,-3 11,-5l0 0 0 0 0 0 0 0 0 0 0 -1 0 0 1 0 0 0 0 0 0 0 0 0 0 0 0 0 1 0 0 0 0 0 0 0 0 -1 0 0 1 0 0 0 0 0 0 0 0 0 0 0 0 0 0 0 1 0 0 0 0 0 0 0 0 -1 0 0 1 0 0 0 0 0 0 0 0 0 0 0 0 0 1 0 0 0 0 0 0 -1 0 1 0 0 0 0 -1 0 0 0 0 0 0 0 0 0 0 0 0 0 -1 0 0 0 0 1 0 0 0 0 0 0 -1 0 0 0 0 0 0 0 0 0 0 0 0 0 0 0 -1 0 0 0 0 1 0 0 0 0 0 0 -1 0 0 0 0 0 0 0 0 0 0 0 0 0 -1 0 0 0 0 1 0 0 0 0 0 0 0 0 0 0c-4,2 -7,3 -11,5zm0 0l0 0z"/>
  <path class="fil1" d="M25 75l0 0c0,0 0,0 0,0 0,0 0,0 0,0zm0 0c0,0 -1,0 -1,-1l0 0c0,1 1,1 1,1z"/>
  <path class="fil0" d="M24 74c-2,0 -3,0 -5,-1 -2,-1 -3,-3 -4,-5 0,0 0,0 -1,0l0 0c1,0 1,0 1,0 1,2 2,4 4,5 2,1 3,1 5,1l0 0z"/>
  <path class="fil0" d="M25 73l0 0c0,0 0,0 0,0 0,0 0,0 0,0zm0 0c0,0 0,0 0,0 0,0 0,0 0,0z"/>
  <path class="fil0" d="M42 60c0,0 0,0 0,0l0 0c0,0 0,0 0,0 0,0 0,0 0,0zm3 -2c0,0 1,0 1,0l0 0c0,0 1,0 1,0l0 0c0,0 0,0 1,0 -1,0 -2,0 -3,0z"/>
  <path class="fil0" d="M25 75c0,0 0,0 0,0 0,0 -1,0 -1,-1 -2,0 -3,0 -5,-1 -2,-1 -3,-3 -4,-5 0,0 0,0 -1,0 -4,3 -13,6 -13,6 0,0 0,-2 0,-4 0,0 1,0 2,0 5,0 11,-4 14,-5 0,4 3,8 8,8 0,0 0,0 0,0 0,0 0,0 0,0 0,0 0,0 0,0 5,0 10,-4 10,-9 0,0 0,0 0,0 0,0 0,-1 0,-1 0,-1 0,-3 -1,-4 3,0 6,0 8,-1l0 2c0,0 0,0 0,0 -1,0 -1,1 -1,1 -4,3 -5,8 -9,11 0,0 0,0 0,0 -2,2 -4,3 -7,3 0,0 0,0 0,0zm-1 -1l0 0zm-23 0l0 0zm24 -1l0 0zm10 -9l0 0zm7 -4l0 0zm-1 1l0 0zm5 -3l0 -1c0,0 1,0 1,0l0 1c0,0 -1,0 -1,0zm1 0l0 0zm7 -2l0 -2c6,-2 11,-5 15,-7l-5 7c0,1 0,1 1,2 -2,0 -3,0 -4,0 -2,0 -5,0 -7,0z"/>
  <path class="fil0" d="M69 46l0 0c0,0 2,-1 4,-2 0,0 0,0 0,0 -1,1 -1,1 -2,1l0 0 0 0c0,0 -1,1 -2,1l0 0z"/>
  <path class="fil0" d="M69 47l0 -1c1,0 2,-1 2,-1l0 0c0,0 -1,1 -2,2zm0 -1l0 0zm2 -1l0 0z"/>
  <path class="fil0" d="M71 45c1,0 1,0 2,-1 -1,0 -1,1 -1,1 0,0 0,0 -1,0z"/>
  <path class="fil0" d="M66 56c-1,0 -1,0 -1,0 -1,-1 -1,-1 -1,-2l5 -7c1,-1 2,-2 2,-2 1,0 1,0 1,0 -4,6 -7,10 -7,10 0,0 1,0 1,1zm-1 0l0 0zm6 -11l0 0zm-6 10l0 0z"/>
  <path class="fil0" d="M104 28c11,-5 19,-9 19,-9 0,0 -8,4 -19,9zm19 -9c0,0 0,0 0,0 0,0 0,0 0,0zm0 0l0 0 0 0z"/>
  <path class="fil0" d="M84 44c1,-3 3,-7 3,-7 6,-3 12,-6 17,-9 11,-5 19,-9 19,-9 0,0 0,0 0,0 0,0 0,0 0,0l0 0 0 0 0 0c0,0 1,0 1,0 -1,1 -27,19 -40,25z"/>
  <path class="fil0" d="M80 49c0,0 1,0 1,0l0 0c0,0 -1,0 -1,0z"/>
  <path class="fil0" d="M78 51c1,-2 2,-4 3,-6l0 0c0,0 0,0 1,-1 0,0 1,0 2,0 0,0 0,0 -1,0 0,2 -1,3 -2,5l0 0c0,0 -1,0 -1,0 0,1 -1,1 -2,2z"/>
  <path class="fil0" d="M85 38c0,0 0,0 0,0 1,-1 2,-1 2,-1l0 0c0,1 -1,1 -2,1z"/>
  <path class="fil0" d="M85 38c0,0 0,0 0,0 1,0 2,0 2,-1l0 0c0,0 0,0 0,0 -1,1 -1,1 -2,1z"/>
  <path class="fil0" d="M82 44c1,-2 2,-4 3,-6 1,0 1,0 2,-1 0,0 -2,4 -3,7 -1,0 -2,0 -2,0z"/>
  <path class="fil0" d="M56 108c-5,0 -8,-4 -9,-5 -2,-3 -2,-6 -1,-8l0 0 1 0c0,1 -1,1 -1,2 0,1 0,1 0,1 1,2 1,3 2,5 0,1 4,4 8,5 0,0 0,0 0,0zm-8 -5l0 0zm8 3c0,0 0,0 0,0 0,0 0,0 0,0 4,-1 8,-4 9,-9 1,-5 -3,-10 -7,-10l0 0c0,0 0,0 0,0l0 0c0,0 0,0 0,0 1,0 1,0 2,0 0,0 0,0 0,0 0,0 0,0 0,0 0,0 0,0 0,0 0,0 0,0 0,0 0,0 0,0 0,0 0,0 0,0 0,0 4,1 7,5 6,10 -1,5 -5,9 -10,9zm0 0l0 0zm2 -19l0 0zm2 0l0 0zm-15 6l0 0 -1 0 1 -2c0,0 1,0 2,0 0,0 0,0 0,0 0,0 -1,0 -1,0 0,0 0,0 0,0l-1 2zm-1 0l0 0 0 0zm0 0l0 0zm3 -2l0 0 0 0zm0 0l0 0zm-1 0l0 0zm2 0c0,0 0,0 0,0l0 -1 0 1zm0 -1c0,0 0,0 0,0 0,0 0,0 0,0zm0 0c3,-4 8,-5 11,-8 -3,3 -8,4 -11,8zm11 -8c4,-4 7,-13 7,-20 0,7 -3,16 -7,20zm7 -20c0,-1 0,-2 0,-3 0,1 0,2 0,3zm0 -7l0 0 0 0c0,0 1,-1 1,-2 0,0 0,0 0,0 1,0 1,-1 2,-2 0,0 0,0 0,-1 0,0 0,0 0,0 1,-1 2,-2 2,-3 1,0 1,0 1,0 0,-1 0,-1 1,-2 0,0 1,-1 1,-2 1,-1 2,-2 2,-3 1,0 1,0 1,0 0,0 0,-1 0,-1 0,0 1,-1 1,-1 0,-1 0,-1 0,-1 1,-1 2,-2 3,-3 1,-1 1,-2 2,-3 2,-3 4,-6 6,-9 0,0 0,0 0,-1l0 0c1,0 1,0 1,0 0,0 0,0 0,-1 1,-1 1,-1 2,-2 0,-1 0,-1 0,-1 0,0 1,0 1,0 0,0 0,0 0,0 0,0 0,0 0,-1 0,0 0,0 0,0 0,0 0,0 0,0 0,0 0,0 0,0 1,-2 2,-3 3,-4 0,-1 0,-1 1,-1 0,0 0,0 0,0 2,-4 4,-6 5,-8l1 -1c0,0 0,0 0,-1 1,0 1,0 1,0l0 -1c0,0 0,0 0,0 0,0 0,0 0,0 0,0 0,0 0,0 0,0 0,0 0,0l0 0c0,0 0,0 0,0 0,0 -1,0 -1,0 0,0 -7,10 -15,22 -2,3 -4,6 -6,9 -1,1 -1,2 -2,3 -1,1 -2,2 -3,4 -1,2 -3,4 -4,6 0,0 0,0 0,0 0,0 0,0 0,0 -1,0 -1,1 -1,1 -4,6 -7,10 -7,10l1 0zm-1 0l0 0zm39 -55l0 0 0 0zm0 0l0 0z"/>
  <path class="fil0" d="M47 95l-1 0 0 0c-1,-1 -2,-2 -2,-2l0 0 1 0 0 0c0,0 1,1 2,2 0,0 0,0 0,0z"/>
  <path class="fil0" d="M48 91l0 0c0,0 0,0 0,0l0 -1c0,0 0,0 0,0 3,-4 8,-5 11,-8 4,-4 7,-13 7,-20 0,-1 0,-2 0,-3 0,-2 0,-3 -1,-4l1 0c1,1 1,2 1,4 0,1 0,2 0,3 0,7 -3,16 -7,20 -3,3 -8,4 -11,8 0,0 0,0 -1,1zm18 -36l0 0z"/>
  <g>
   <path class="fil0" d="M57 108c-1,0 -1,0 -1,0 -4,-1 -8,-4 -8,-5 0,-1 0,-5 0,-6 0,0 0,1 0,1 1,4 4,7 8,8 0,0 0,0 0,0 0,0 0,0 0,0 5,0 9,-4 10,-9 1,-5 -2,-9 -6,-10 6,-9 6,-13 9,-26 1,-3 3,-7 5,-12 1,1 2,1 2,1 1,0 2,-1 2,-1 1,-1 1,-2 1,-2 0,-1 0,-2 -1,-2 0,0 0,-1 0,-1 0,0 -1,0 -1,0 1,-1 1,-2 2,-3l0 0c0,1 1,2 2,3 0,1 0,1 0,1 -1,2 -2,4 -3,6 0,0 0,0 0,0 -2,4 -4,7 -5,9 -3,7 -7,15 -9,23 -1,3 2,8 5,10 0,0 -3,9 -4,11 -3,3 -6,4 -8,4zm-1 0l0 0zm-8 -5l0 0zm8 3l0 0zm36 -88l0 -1 1 0 0 0 0 0 0 0 0 0 0 0 0 0 0 0 0 0 0 0 0 0 0 0 0 0 0 0 0 0 0 0 0 0 0 0 0 0 0 0 0 0 0 0 0 0 -1 1zm-46 73l0 0 0 0 0 0 0 0 0 0 0 0 0 0 0 0 0 0 0 0 0 0 0 0 0 0 0 0 0 0 0 0 0 0 0 0 0 0 0 0 0 0 0 0 0 0 0 0 0 0 0 0 0 0 0 0 0 0 0 0 0 0 0 0 0 0 0 0 0 0 0 0 0 0 0 0 0 0 0 0 1 0 0 0 0 0 0 0 0 0 0 0 0 0 0 0 0 0 0 0 0 0 0 0 0 0 0 0 0 0 0 0 0 0 0 0 0 0c0,0 0,0 0,0l0 0c0,0 0,0 0,0l0 0 0 0 0 0 0 0 0 0 0 0 0 0 0 0 0 0 0 0 0 0 0 0 0 0 0 0 0 0 0 0 0 0 0 0 -1 0 0 0 0 0 0 0 0 0 0 0 0 0 0 0 0 0 0 0 0 0 0 0 0 0 0 0 0 0 0 0 0 0 0 0 0 0 0 0 0 0 0 0 0 0 0 0 0 0 0 0 0 0 0 0 0 0 0 0 0 0 0 0 0 0 0 0 0 0 0 0 0 0 0 0 0 0 0 0 0 0zm8 -3l0 0 0 0 0 0 0 0 0 0 0 0 0 0 0 0 0 0 0 0 0 0 0 0 0 0 0 0 0 0 0 0c1,-1 1,-1 2,-1l0 0 0 0 0 0 0 0 0 0 0 0 0 0 0 0 0 0 0 0 0 0 0 0 0 0 0 0 0 0 0 0 0 0 0 0 0 0 0 0 0 0 0 0 0 0 0 0 0 0 0 0 0 0 0 0 0 0 0 0 0 0 0 0 0 0 0 0 0 0 0 0 0 0 0 0 0 0 0 0 0 0 0 0 0 0 0 0 0 0 0 0 0 0 0 0 0 0 0 0 0 0 0 0 0 0 0 0 0 0 0 0 0 0 0 0 0 0 0 0 0 0 0 0 0 0 0 0 0 0 0 0 0 0 0 0 0 0c0,0 0,0 -1,0 0,0 0,0 -1,1l0 0 0 0 0 0 0 0 0 0 0 0 0 0 0 0 0 0 0 0 0 0 0 0 0 0 0 0 0 0 0 0zm4 -1l0 0 0 0 0 0 0 0 0 0c0,0 0,0 0,0 0,0 0,0 0,0l0 0 0 0 0 0 0 0zm0 0c0,0 0,0 0,0 0,0 0,0 0,0zm0 0l0 0zm9 -34l0 0 0 0 0 0c1,0 1,-1 2,-2 0,0 0,0 0,-1l0 0 0 0 0 0 0 0 0 0 0 0 0 0 0 0 0 0 0 0 0 0 0 0 0 0 0 0 0 0 0 0 0 0 0 0 0 0 0 0 0 0 -2 3 0 0 0 0zm4 -6l0 0 0 0 0 0 0 0 0 0 0 0 0 0 0 0 0 0 0 0 0 0 1 0 0 0 0 0 0 0 0 0 0 0 0 0 0 0 0 0 0 0 0 0 0 0 0 0 0 0 0 0 0 0 0 0 0 0 0 0 0 0 0 0 0 0 0 0 -1 0 0 0 0 0 0 0 0 0 0 0 0 0 0 0 0 0 0 0 0 0 0 0zm2 -2l0 0 0 0 0 0 0 0 0 0 0 0 0 0 0 0 0 0 0 0 0 0 0 0 0 0 0 0 0 0 0 0 0 0 0 0 0 0 0 0 0 0 0 0 0 0 0 0 0 0 0 0 0 0 0 0 0 0 0 0 0 0 0 0 0 0 0 0 0 0 0 0 0 0 0 0 0 0 0 -1 0 0 0 0 0 0 0 0 0 0 0 0 0 0 1 0 0 0 0 0 0 0 0 0 0 0 0 0 0 0 0 0 0 0 0 0 0 0 0 0 0 0 0 0 0 0 0 0 0 0 0 0 0 0 0 0 0 0 0 0 0 0 0 0 0 0 0 0 0 0 0 0 0 0 0 0 0 0 0 0 0 0 0 0 0 0 0 0 0 0 0 0 0 -1 0 0 0 0 0 0 0 0 0 0 0 0 0 0 0 0 0 0 0 0 0 1 0 0 0 0 0 0 0 0 0 0 0 0 0 0 0 0 0 0 0 0 0 0 0 0 0 0 0 0 0 0 0 0 0 0 0 0 0 0 0 0 0 0 0 0 0 0 0 0 0 0 0 0 0 0 0 0 0 0 0 0 0 0 0 0 0 0 0 0 0 0 0 0 0 0 0 0 -1 0 0 0 0 0 0 0 0 0 0 0 0 0 0 0 0 1 0 0 0 0 0 0 0 0 0 0 0 0 0 0 0 0 0 0 0 0 0 0 0 0 0 0 0 0 0 0 0 0 0 0 0 0 0 0 0 0 0 0 0 0 0 0 0 0 0 0 0 0 0 0 0 0 0 0 0 0 0 0 0 0 0 0 0 0 0 0 0 0 0 0 0 0 0 0zm3 -5c1,0 1,0 1,0 0,0 0,-1 0,-1 0,0 1,-1 1,-1l0 0 0 0 0 0 0 0 0 0 0 0 0 0 0 0 0 0 0 0 -2 2zm2 -3c1,-1 2,-2 3,-3 -1,1 -2,2 -3,3l0 0zm3 -3c1,-1 1,-2 2,-3l0 0 0 0 0 0 0 0 0 0 0 0 0 0 0 0 0 0 0 0 -2 3 0 0zm8 -12c0,0 0,0 0,-1 0,1 0,1 0,1l0 0zm0 -1l0 0 0 0 0 0 0 0 0 0 0 0 0 0 0 0 0 0 0 0 0 0 0 0 0 0 0 0 0 0 0 0 0 0 0 0 0 0 0 0 0 0 0 0 0 0zm3 -3l0 0 0 0 0 0 0 0 0 0 0 0 0 0 0 0 0 0 0 0 0 0 0 0 0 0 0 0 0 0zm0 0l0 0 0 0 0 0 0 0 0 0 0 0 0 0 0 0 0 0 0 0 0 0 0 0 0 0 0 0 0 0zm1 -1l0 0 0 0 0 0 0 0 0 0 0 0 0 0 0 0 0 -1 0 0 0 0 0 0 0 0 0 0 0 0 0 0 0 1 0 0 0 0 0 0 0 0 0 0 0 0 0 0 0 0zm0 -1l0 0 0 0 0 0 0 0 0 0 0 0c1,-2 2,-3 3,-4 -1,1 -2,2 -3,4l0 0 0 0 0 0 0 0 0 0zm4 -5l0 0 0 0 0 0c0,0 0,0 0,0 1,-2 3,-4 4,-6l0 0 0 0 0 0 0 0 0 0 0 0 0 0 0 0 0 0 0 -1 0 0 0 0 0 0 0 0 0 0 0 0 1 0 0 0 0 0 0 0 0 0 0 0 0 0 0 0 0 0 0 -1 0 0 0 0 0 0 0 0 0 0 0 0 0 0 0 0 0 0 0 0 0 0 0 0 0 0 0 0 1 -1 0 0 0 0 0 0 0 0 0 0 0 0 0 0 0 0 0 0 0 0 0 0 0 0 0 0 0 0 0 0 0 0 0 0 0 0 0 0 0 0 0 0 0 0 0 0 0 0 0 0 0 0 0 0 0 0 0 0 0 0 0 0 0 0 0 0 0 0 0 0 0 0 0 0 0 0 0 0 0 0 0 0 0 -1 0 0 0 0 0 0 0 0 0 1 0 0 0 0 0 0 0 0 0 0 0 0 0 0 0 0 0 0 0 0 0 0 0 0 0 0 0 0 0 0 0 0 0 0 0 0 0 0 0 0 0 0 0 0 0 0 0 0 0 0 0 0 0 0 0 0 0 0 0 0 0 0 0 0 0 0 0 0 0 0 0 0 0 0 0 0 0 0 0 0 -1 1 0 0 0 0 0 0 0 0 0 0 0 0 0 0 0 0 0 0 0 0 0 0 0 0 0 0 0 1 0 0 0 0 0 0 0 0 0 0 0 0 0 0 0 0 -1 0 0 0 0 0 0 0 0 0 0 0 0 0 0 1 0 0 0 0 0 0 0 0 0 0 0 0 0 0 0 0 0 0c-1,2 -3,4 -4,6l0 0 0 0 0 0zm9 -10l0 0 0 0c0,0 0,0 0,0 0,0 0,0 0,0l0 0 0 0 0 0 0 0zm0 0l0 0zm-2 0l0 -1 0 0 0 0 0 0 0 0 0 0 0 0 0 0 0 0 0 0 0 0 0 0 0 0 0 0 0 0 0 0 0 0 0 0 0 0 0 0 0 0 0 0 0 0 0 0 0 0 0 0 0 0 0 0 0 0 0 0 0 0 0 0 0 0 0 0 0 0 0 0 0 0 0 0 0 0 0 0 0 0 0 0 0 0 0 0 0 0 0 0 0 0 0 0 0 1zm0 -1c0,0 0,0 0,0 0,0 0,0 0,0zm0 0l0 0zm1 0l0 0 0 0 0 0 0 0 0 0 0 0 0 0 0 0 0 0 0 0 0 0 0 0 0 0 0 0 0 0 0 0 0 0 0 0 0 0 0 0 0 0 0 0 0 0 0 0 0 0 0 0 0 0 0 0 0 0 0 0 0 0 0 0 0 0 0 0 0 0 0 0 0 0 0 0 0 0 0 0 0 0 0 0 0 0 0 0 0 0 0 0 0 0 0 0 0 0 0 0 0 0 0 0 0 0 0 0 0 0 0 0 0 0 0 0 0 0 0 0 0 0 0 0 0 0 0 0 0 0 0 0 0 0 0 0 0 0 0 0 0 0 0 0 0 0 0 0 0 0 0 0 0 0 0 0 0 0 0 0 0 0 0 0 0 0 0 0 0 0 0 0 0 0 0 0 0 0 0 0 0 0 0 0 0 0 0 0 0 0 0 0 0 0 0 0 0 0 0 0 0 0 0 0 0 0 0 0 0 0 0 0 0 0 0 0 0 0 0 0 0 0 0 0 0 0 0 0 0 0 0 0 0 0 0 0 0 0 0 0 0 0 0 0 0 0 0 0zm0 0l0 0 0 0zm0 0l0 0 0 0 0 0 0 0 0 0 0 0 0 0 0 0 0 0 0 0 0 0 0 0 0 0 0 0 0 0 0 0 0 0 0 0 0 0 0 0 0 0 0 0 0 0 0 0 0 0 0 0 0 0 0 0 0 0 0 0 0 0 0 0 0 0 0 0 0 0 0 0 0 0 0 0 0 0 0 0 0 0 0 0 0 0 0 0 0 0 0 0 0 0 0 0 0 0 0 0zm-1 0l0 0 0 0c0,0 0,0 0,0z"/>
  </g>
  <path class="fil0" d="M76 50c0,0 -1,0 -2,-1 0,0 1,-1 1,-1 0,0 0,0 0,0 0,0 1,0 1,0 1,0 1,0 1,0 1,-1 1,-2 0,-2 0,0 0,-1 -1,-1 0,0 0,0 0,0 0,0 1,-1 1,-1 0,0 1,0 1,0 0,0 0,0 0,0l0 0c1,1 1,3 0,4 -1,1 -2,1 -2,1 -1,0 -1,0 -2,0 1,1 2,1 2,1 1,0 2,-1 2,-1 1,-1 1,-2 1,-2 0,0 0,1 -1,2 0,0 -1,1 -2,1z"/>
  <path class="fil0" d="M106 1l0 0c0,0 0,0 0,0z"/>
  <path class="fil0" d="M81 45c0,0 0,0 0,-1 -1,-1 -2,-2 -2,-3l0 0c0,-1 1,-2 2,-4l0 0 4 0 1 0c-2,3 -3,6 -5,8l0 0zm2 -12c1,0 1,-1 2,-2l3 0 1 -1c0,1 -1,2 -1,3l0 0 -1 0 -4 0zm8 -12c6,-9 12,-17 15,-20 0,0 0,0 0,0l0 0 0 0 0 0 0 1c-2,2 -6,10 -11,19l0 0 -2 0 -2 0 0 0z"/>
  <path class="fil0" d="M105 0c0,0 0,0 0,0l0 0c0,0 0,0 0,0z"/>
  <path class="fil0" d="M79 47c0,-1 0,-2 -1,-2 0,0 0,-1 0,-1 0,0 0,1 0,1 1,0 1,1 1,2z"/>
  <path class="fil0" d="M76 50c0,0 -1,0 -2,-1 1,0 1,0 2,0 0,0 1,0 2,-1 1,-1 1,-3 0,-4l0 0c0,0 0,0 0,0 0,0 0,1 0,1 1,0 1,1 1,2 0,0 0,1 -1,2 0,0 -1,1 -2,1z"/>
  <g style="clip-path:url(#id0)">
   <image x="74" y="45" width="4.81212" height="4.26776" xlink:href="0700-menuC-5fff86b3-1d4f-4b05-b364-35352ada742b_Images\0700-menuC-5fff86b3-1d4f-4b05-b364-35352ada742b_ImgID1.png"/>
  </g>
  <path class="fil0" d="M48 97l0 0 0 0c0,-3 2,-6 4,-8 0,0 1,0 1,-1 0,0 1,0 1,0 -3,1 -6,5 -6,9l0 0 0 0z"/>
  <path class="fil0" d="M46 91c0,0 0,0 0,0 0,0 0,0 0,0l0 0 0 0z"/>
  <path class="fil0" d="M47 91l0 0c0,0 0,0 1,0 0,0 0,0 0,0l0 0 -1 0 0 0 0 0z"/>
  <path class="fil0" d="M48 91c0,0 0,0 0,0 0,0 0,0 0,0l0 0 0 0c0,0 0,0 0,0l0 0z"/>
  <path class="fil0" d="M48 91c0,0 0,0 0,0l0 0c0,0 0,0 0,0z"/>
  <path class="fil0" d="M60 87c0,0 0,0 0,0 0,0 0,0 0,0l0 0zm0 0c0,0 0,0 0,0 0,0 0,0 0,0zm0 0c0,0 0,0 0,0 0,0 0,0 0,0zm0 0c-1,0 -1,0 -2,0 1,0 1,0 2,0z"/>
  <path class="fil0" d="M56 87c1,0 1,0 2,0l0 0c-1,0 -1,0 -2,0z"/>
  <path class="fil0" d="M66 55c0,0 1,-1 1,-2 0,1 0,1 0,1 0,0 -1,1 -1,1zm3 -5c1,-1 2,-2 2,-3 0,0 0,1 0,1 0,0 0,1 -1,1 0,0 0,0 0,1 0,0 0,0 -1,0zm3 -3c0,-1 0,-1 1,-2 -1,1 -1,1 -1,2 0,0 0,0 0,0zm2 -4c1,-1 2,-2 2,-3 0,1 0,1 -1,2 0,0 0,1 -1,1zm4 -5c0,-1 0,-1 0,-1 0,0 0,0 0,0 0,1 0,1 0,1zm5 -7c2,-3 4,-6 6,-9 -2,3 -4,6 -6,9 0,0 0,0 0,0zm6 -10c1,0 1,0 1,0 0,0 0,0 0,0l-1 0zm1 -1c1,-1 1,-1 2,-2 0,0 0,0 0,0 -1,0 -1,1 -1,1 0,1 -1,1 -1,1zm3 -3c0,0 0,0 0,0 0,0 0,0 0,0zm0 -1c0,0 0,0 0,0 0,0 0,0 0,0zm3 -4c0,-1 0,-1 1,-1 0,0 -1,0 -1,0 0,0 0,0 0,1zm7 -11c1,0 1,0 1,0l0 0c0,0 0,0 -1,0z"/>
  <path class="fil0" d="M105 0l0 0 0 0 0 0c0,0 0,0 0,0l0 0 0 0c0,0 0,0 0,0 0,0 0,0 0,0z"/>
  <path class="fil0" d="M104 0c0,0 0,0 0,0 0,0 0,0 0,0zm1 0l0 0 0 0 0 0c0,0 0,0 0,0l0 0 0 0zm-1 0c0,0 0,0 0,0l0 0z"/>
  <path class="fil0" d="M104 0l0 0c1,0 1,0 1,0 0,0 0,0 -1,0z"/>
  <path class="fil0" d="M48 103c-1,-2 -1,-3 -2,-5 0,0 0,0 0,-1 0,-1 1,-1 1,-2 -1,-1 -2,-2 -2,-2l1 -2 0 0 0 0c0,0 0,0 0,0 0,0 1,0 1,0l0 0 0 0 0 0 1 0c0,0 0,0 0,0 0,0 0,0 0,0 0,0 0,0 0,0 1,-1 1,-1 1,-1 3,-4 8,-5 11,-8 4,-4 7,-13 7,-20 0,-1 0,-2 0,-3 0,-2 0,-3 -1,-4 0,0 1,-1 1,-1 0,0 0,0 0,-1 1,0 1,-1 2,-3 1,0 1,0 1,0 0,-1 0,-1 0,-1 1,0 1,-1 1,-1 0,0 0,-1 0,-1 1,0 1,0 1,0 0,0 0,0 0,0 0,-1 0,-1 1,-2 0,0 1,-1 1,-2 1,0 1,-1 1,-1 1,-1 1,-1 1,-2 1,-1 2,-2 2,-2 0,0 0,0 0,-1l2 0c-1,2 -2,4 -1,4l0 0c-1,1 -1,2 -2,3 0,0 -1,0 -1,0 -1,0 -1,0 -2,1 -1,1 -1,3 0,4 0,0 0,0 0,0 -2,5 -4,9 -5,12 -3,13 -3,17 -9,26 0,0 0,0 0,0 0,0 0,0 0,0 0,0 0,0 0,0 0,0 0,0 0,0 0,0 0,0 0,0 0,0 0,0 0,0 -1,0 -1,0 -2,0 0,0 0,0 0,0l0 0c0,0 0,0 0,0 0,0 0,0 0,0l0 0c-1,0 -1,0 -2,0 -1,0 -1,0 -2,1 0,0 -1,0 -1,0 0,1 -1,1 -1,1 -2,2 -4,5 -4,8l0 0c0,1 0,5 0,6zm-1 -8l0 0zm-1 -4l0 0zm2 0l0 0zm18 -36l0 0zm12 -18c0,0 0,0 0,0 0,0 0,0 0,0zm0 0l0 0zm-18 50l0 0zm-2 0l0 0zm0 0l0 0zm-10 10l0 0zm33 -63c1,-1 1,-2 2,-3 0,0 0,0 0,0l1 0c0,1 -1,2 -2,3l-1 0zm2 -3c2,-3 4,-6 6,-9 -2,3 -4,6 -6,9zm6 -9l0 0zm-7 12l0 0zm7 -13c0,0 0,0 0,0l1 0c0,0 0,0 0,0 0,0 0,0 0,-1 0,0 1,0 1,-1 0,0 0,-1 1,-1 0,0 0,0 0,0 0,-1 0,-1 1,-1 0,0 0,0 0,0 0,0 0,-1 0,-1 0,0 0,0 0,0 1,-1 2,-3 3,-4 0,-1 0,-1 0,-1 0,0 1,0 1,0 3,-4 5,-8 6,-10 1,0 1,0 1,0l0 0c0,-1 0,-1 0,-1 0,0 0,0 0,0 0,0 0,0 0,0l0 0c0,0 0,0 0,0l0 0c1,0 1,0 1,0 0,0 0,0 0,0 0,0 0,0 0,0 0,0 0,0 0,0l0 0 0 0 0 0 0 0 0 0c0,1 0,1 0,1 -3,4 -9,12 -15,20l-1 0zm15 -21l0 0zm0 0l0 0zm1 0l0 0zm-15 21l0 0z"/>
  <path class="fil0" d="M106 1l0 0c-1,0 -1,-1 -1,-1 0,0 1,1 1,1z"/>
  <path class="fil0" d="M106 1c0,0 0,0 0,0 0,0 0,0 0,0l0 0 0 0c0,0 0,0 0,0z"/>
  <path class="fil0" d="M74 49c0,0 0,0 0,0 -1,-1 -1,-3 0,-4 1,-1 1,-1 2,-1 0,0 1,0 1,0 0,0 -1,1 -1,1 0,0 0,1 -1,1 0,0 0,1 0,2 0,0 -1,1 -1,1z"/>
  <path class="fil0" d="M106 1l-1 0 0 -1c0,0 0,0 0,0 0,0 0,1 1,1z"/>
  <path class="fil0" d="M79 41l0 0c-1,0 0,-2 1,-4l1 0c-1,2 -2,3 -2,4zm1 -4l0 0zm2 -3l0 0c1,-1 2,-2 2,-3l1 0 0 0c-1,1 -1,2 -2,2l0 0 -1 1zm2 -3l0 0zm6 -10l0 0c6,-8 12,-16 15,-20 0,0 0,0 0,-1l0 1 1 0c0,0 0,0 0,0 0,0 0,0 0,0 -3,3 -9,11 -15,20l-1 0zm15 -21l0 0z"/>
  <g style="clip-path:url(#id1)">
   <image x="74" y="45" width="3.28792" height="3.83228" xlink:href="0700-menuC-5fff86b3-1d4f-4b05-b364-35352ada742b_Images\0700-menuC-5fff86b3-1d4f-4b05-b364-35352ada742b_ImgID2.png"/>
  </g>
  <path class="fil0" d="M89 22c0,0 0,0 0,-1l0 0c0,1 0,1 0,1z"/>
  <path class="fil0" d="M85 31c2,-3 4,-7 6,-10l0 0 2 0 2 0c-2,3 -4,6 -6,9l0 0 -1 1 -3 0z"/>
  <path class="fil0" d="M83 31c2,-3 4,-6 6,-9 0,0 0,0 0,-1l1 0c-2,4 -4,7 -6,10l0 0 -1 0z"/>
  <path class="fil0" d="M84 31l0 0c2,-3 4,-6 6,-10l0 0 1 0c-2,3 -4,7 -6,10l0 0 -1 0z"/>
  <path class="fil0" d="M78 37c1,-1 2,-2 3,-3l0 0c-1,1 -2,2 -3,3z"/>
  <path class="fil0" d="M81 37c1,-1 2,-2 2,-4l4 0 1 0c-1,2 -2,3 -2,4l0 0 -1 0 -4 0 0 0z"/>
  <path class="fil0" d="M78 37c0,0 0,0 0,0 1,-1 2,-2 3,-3l1 0c-1,1 -1,2 -2,3l0 0 -2 0z"/>
  <path class="fil0" d="M80 37l0 0c1,-1 1,-2 2,-3l0 0 1 -1 0 0c0,2 -1,3 -2,4l-1 0z"/>
  <path class="fil0" d="M48 58l0 0 0 -1 0 0 0 0 0 0 0 0c2,0 4,-1 5,-1l0 0 1 0 0 0 0 0 0 0 0 0 0 0 0 0 0 0 0 0 0 0 0 0 0 0 0 0 -1 0 0 0c-1,0 -3,1 -5,1l0 0 0 0 0 0 0 0 0 1 0 0zm6 -2l0 0zm-7 1l1 -2c2,-1 4,-1 6,-2l0 1c-2,1 -4,2 -7,3z"/>
  <path class="fil0" d="M47 58l0 -1c3,-1 5,-2 7,-3l0 2c-2,0 -4,1 -6,2 -1,0 -1,0 -1,0z"/>
  <path class="fil0" d="M42 60c1,-1 2,-1 3,-2 -1,1 -2,1 -3,2zm0 -2l0 -1c1,0 3,-1 4,-1l0 1c-1,0 -3,1 -4,1z"/>
  <path class="fil0" d="M42 60l0 -2c1,0 3,-1 4,-1l0 1 0 0c0,0 -1,0 -1,0 -1,1 -2,1 -3,2 0,0 0,0 0,0z"/>
 </g>
</svg>
