<?xml version="1.0" encoding="UTF-8"?>
<!DOCTYPE svg PUBLIC "-//W3C//DTD SVG 1.1//EN" "http://www.w3.org/Graphics/SVG/1.1/DTD/svg11.dtd">
<!-- Creator: CorelDRAW Home & Student X8 -->
<svg xmlns="http://www.w3.org/2000/svg" xml:space="preserve" width="28.4988mm" height="29.4259mm" version="1.1" style="shape-rendering:geometricPrecision; text-rendering:geometricPrecision; image-rendering:optimizeQuality; fill-rule:evenodd; clip-rule:evenodd"
viewBox="0 0 173 179"
 xmlns:xlink="http://www.w3.org/1999/xlink">
 <defs>
  <style type="text/css">
   <![CDATA[
    .fil20 {fill:#B2B2B2;fill-rule:nonzero}
    .fil19 {fill:#B9B9B9;fill-rule:nonzero}
    .fil18 {fill:silver;fill-rule:nonzero}
    .fil17 {fill:#C6C6C6;fill-rule:nonzero}
    .fil16 {fill:#CDCDCD;fill-rule:nonzero}
    .fil15 {fill:#D2D2D2;fill-rule:nonzero}
    .fil14 {fill:#D8D8D8;fill-rule:nonzero}
    .fil13 {fill:#DDDDDD;fill-rule:nonzero}
    .fil12 {fill:#E1E1E1;fill-rule:nonzero}
    .fil11 {fill:#E6E6E6;fill-rule:nonzero}
    .fil10 {fill:#EAEAEA;fill-rule:nonzero}
    .fil9 {fill:#EDEDED;fill-rule:nonzero}
    .fil8 {fill:#F1F1F1;fill-rule:nonzero}
    .fil7 {fill:#F4F4F4;fill-rule:nonzero}
    .fil6 {fill:#F6F6F6;fill-rule:nonzero}
    .fil5 {fill:#F9F9F9;fill-rule:nonzero}
    .fil4 {fill:#FBFBFB;fill-rule:nonzero}
    .fil3 {fill:#FCFCFC;fill-rule:nonzero}
    .fil2 {fill:#FDFDFD;fill-rule:nonzero}
    .fil1 {fill:#FEFEFE;fill-rule:nonzero}
    .fil0 {fill:white;fill-rule:nonzero}
    .fil72 {fill:url(#id2)}
    .fil33 {fill:url(#id3)}
    .fil74 {fill:url(#id4)}
    .fil47 {fill:url(#id5)}
    .fil51 {fill:url(#id6)}
    .fil52 {fill:url(#id7)}
    .fil32 {fill:url(#id8)}
    .fil35 {fill:url(#id9)}
    .fil76 {fill:url(#id10)}
    .fil34 {fill:url(#id11)}
    .fil67 {fill:url(#id12)}
    .fil69 {fill:url(#id13)}
    .fil77 {fill:url(#id14)}
    .fil46 {fill:url(#id15)}
    .fil68 {fill:url(#id16)}
    .fil56 {fill:url(#id17)}
    .fil53 {fill:url(#id18)}
    .fil79 {fill:url(#id19)}
    .fil70 {fill:url(#id20)}
    .fil62 {fill:url(#id21)}
    .fil26 {fill:url(#id22)}
    .fil80 {fill:url(#id23)}
    .fil29 {fill:url(#id24)}
    .fil45 {fill:url(#id25)}
    .fil48 {fill:url(#id26)}
    .fil21 {fill:url(#id27)}
    .fil71 {fill:url(#id28)}
    .fil60 {fill:url(#id29)}
    .fil73 {fill:url(#id30)}
    .fil55 {fill:url(#id31)}
    .fil43 {fill:url(#id32)}
    .fil78 {fill:url(#id33)}
    .fil38 {fill:url(#id34)}
    .fil22 {fill:url(#id35)}
    .fil59 {fill:url(#id36)}
    .fil23 {fill:url(#id37)}
    .fil61 {fill:url(#id38)}
    .fil30 {fill:url(#id39)}
    .fil50 {fill:url(#id40)}
    .fil37 {fill:url(#id41)}
    .fil75 {fill:url(#id42)}
    .fil57 {fill:url(#id43)}
    .fil31 {fill:url(#id44)}
    .fil65 {fill:url(#id45)}
    .fil25 {fill:url(#id46)}
    .fil63 {fill:url(#id47)}
    .fil40 {fill:url(#id48)}
    .fil42 {fill:url(#id49)}
    .fil41 {fill:url(#id50)}
    .fil54 {fill:url(#id51)}
    .fil36 {fill:url(#id52)}
    .fil28 {fill:url(#id53)}
    .fil24 {fill:url(#id54)}
    .fil39 {fill:url(#id55)}
    .fil49 {fill:url(#id56)}
    .fil64 {fill:url(#id57)}
    .fil66 {fill:url(#id58)}
    .fil27 {fill:url(#id59)}
    .fil81 {fill:url(#id60)}
    .fil44 {fill:url(#id61)}
    .fil58 {fill:url(#id62)}
   ]]>
  </style>
    <clipPath id="id0">
     <path d="M106 67c-1,0 -1,0 -1,-1 -1,0 -1,0 -1,0 1,-1 1,-2 2,-3 0,0 0,0 0,0 0,0 1,0 1,1 1,0 1,2 0,2 0,1 -1,1 -1,1l0 0z"/>
    </clipPath>
    <clipPath id="id1">
     <path d="M104 66c0,-1 0,-2 1,-2 0,-1 0,-1 1,-1 -1,1 -1,2 -2,3l0 0z"/>
    </clipPath>
  <linearGradient id="id2" gradientUnits="userSpaceOnUse" x1="143.01" y1="-7.66879" x2="80.6157" y2="127.621">
   <stop offset="0" style="stop-opacity:1; stop-color:#C5C6C9"/>
   <stop offset="0.411765" style="stop-opacity:1; stop-color:whitesmoke"/>
   <stop offset="1" style="stop-opacity:1; stop-color:#6F7072"/>
  </linearGradient>
  <linearGradient id="id3" gradientUnits="userSpaceOnUse" x1="177.696" y1="22.0067" x2="16.6315" y2="99.5208">
   <stop offset="0" style="stop-opacity:1; stop-color:#6D6E70"/>
   <stop offset="0.0196078" style="stop-opacity:1; stop-color:#6D6E70"/>
   <stop offset="0.411765" style="stop-opacity:1; stop-color:#D3D5D6"/>
   <stop offset="1" style="stop-opacity:1; stop-color:#363637"/>
  </linearGradient>
  <linearGradient id="id4" gradientUnits="userSpaceOnUse" x1="143.011" y1="-7.66879" x2="80.6145" y2="127.621">
   <stop offset="0" style="stop-opacity:1; stop-color:#CFD0D2"/>
   <stop offset="0.411765" style="stop-opacity:1; stop-color:#F6F7F7"/>
   <stop offset="1" style="stop-opacity:1; stop-color:#818284"/>
  </linearGradient>
  <linearGradient id="id5" gradientUnits="userSpaceOnUse" x1="109.147" y1="61.6482" x2="103.765" y2="67.3176">
   <stop offset="0" style="stop-opacity:1; stop-color:#C7C8CA"/>
   <stop offset="1" style="stop-opacity:1; stop-color:#939598"/>
  </linearGradient>
  <linearGradient id="id6" gradientUnits="userSpaceOnUse" x1="143.014" y1="-7.67" x2="80.6133" y2="127.622">
   <stop offset="0" style="stop-opacity:1; stop-color:#ACAEB1"/>
   <stop offset="0.411765" style="stop-opacity:1; stop-color:#EFF1F1"/>
   <stop offset="1" style="stop-opacity:1; stop-color:#4F5052"/>
  </linearGradient>
  <linearGradient id="id7" gradientUnits="userSpaceOnUse" x1="109.147" y1="61.6476" x2="103.765" y2="67.3176">
   <stop offset="0" style="stop-opacity:1; stop-color:#B5B6B9"/>
   <stop offset="1" style="stop-opacity:1; stop-color:#76777A"/>
  </linearGradient>
  <linearGradient id="id8" gradientUnits="userSpaceOnUse" x1="165.794" y1="20.384" x2="24.8869" y2="97.0592">
   <stop offset="0" style="stop-opacity:1; stop-color:#D3D5D6"/>
   <stop offset="0.4" style="stop-opacity:1; stop-color:#8A8D91"/>
   <stop offset="1" style="stop-opacity:1; stop-color:#656669"/>
  </linearGradient>
  <linearGradient id="id9" gradientUnits="userSpaceOnUse" x1="177.696" y1="22.0012" x2="16.6315" y2="99.5263">
   <stop offset="0" style="stop-opacity:1; stop-color:#595B5D"/>
   <stop offset="0.0196078" style="stop-opacity:1; stop-color:#595B5D"/>
   <stop offset="0.411765" style="stop-opacity:1; stop-color:#CACBCE"/>
   <stop offset="1" style="stop-opacity:1; stop-color:#2B2B2C"/>
  </linearGradient>
  <linearGradient id="id10" gradientUnits="userSpaceOnUse" xlink:href="#id2" x1="143.012" y1="-7.66879" x2="80.6145" y2="127.621">
  </linearGradient>
  <linearGradient id="id11" gradientUnits="userSpaceOnUse" x1="165.788" y1="20.3652" x2="24.8942" y2="97.0743">
   <stop offset="0" style="stop-opacity:1; stop-color:#CACBCE"/>
   <stop offset="0.4" style="stop-opacity:1; stop-color:#77797C"/>
   <stop offset="1" style="stop-opacity:1; stop-color:#515254"/>
  </linearGradient>
  <linearGradient id="id12" gradientUnits="userSpaceOnUse" x1="109.033" y1="61.6482" x2="104.019" y2="67.3176">
   <stop offset="0" style="stop-opacity:1; stop-color:#BBBDBF"/>
   <stop offset="1" style="stop-opacity:1; stop-color:#7D7F83"/>
  </linearGradient>
  <linearGradient id="id13" gradientUnits="userSpaceOnUse" x1="143.033" y1="-7.66879" x2="81.0143" y2="127.62">
   <stop offset="0" style="stop-opacity:1; stop-color:#686D72"/>
   <stop offset="0.411765" style="stop-opacity:1; stop-color:#E2E6E6"/>
   <stop offset="1" style="stop-opacity:1; stop-color:#2F3031"/>
  </linearGradient>
  <linearGradient id="id14" gradientUnits="userSpaceOnUse" x1="143.011" y1="-7.66455" x2="80.6157" y2="127.615">
   <stop offset="0" style="stop-opacity:1; stop-color:#868A8E"/>
   <stop offset="0.411765" style="stop-opacity:1; stop-color:#E9ECEC"/>
   <stop offset="1" style="stop-opacity:1; stop-color:#4F5051"/>
  </linearGradient>
  <linearGradient id="id15" gradientUnits="userSpaceOnUse" x1="143.01" y1="-7.66879" x2="80.6157" y2="127.62">
   <stop offset="0" style="stop-opacity:1; stop-color:#C0C2C4"/>
   <stop offset="0.411765" style="stop-opacity:1; stop-color:#F3F4F4"/>
   <stop offset="1" style="stop-opacity:1; stop-color:#636466"/>
  </linearGradient>
  <linearGradient id="id16" gradientUnits="userSpaceOnUse" xlink:href="#id12" x1="109.193" y1="61.573" x2="103.774" y2="67.2357">
  </linearGradient>
  <linearGradient id="id17" gradientUnits="userSpaceOnUse" x1="70.1559" y1="148.229" x2="148.174" y2="-29.3782">
   <stop offset="0" style="stop-opacity:1; stop-color:#C0C1C4"/>
   <stop offset="0.4" style="stop-opacity:1; stop-color:#95979B"/>
   <stop offset="1" style="stop-opacity:1; stop-color:#656669"/>
  </linearGradient>
  <linearGradient id="id18" gradientUnits="userSpaceOnUse" xlink:href="#id7" x1="109.189" y1="61.6458" x2="103.769" y2="67.3158">
  </linearGradient>
  <linearGradient id="id19" gradientUnits="userSpaceOnUse" x1="177.703" y1="22.0024" x2="16.6285" y2="99.5257">
   <stop offset="0" style="stop-opacity:1; stop-color:#8C8E90"/>
   <stop offset="0.0196078" style="stop-opacity:1; stop-color:#8C8E90"/>
   <stop offset="0.411765" style="stop-opacity:1; stop-color:#E1E2E3"/>
   <stop offset="1" style="stop-opacity:1; stop-color:#565657"/>
  </linearGradient>
  <linearGradient id="id20" gradientUnits="userSpaceOnUse" xlink:href="#id4" x1="143.009" y1="-7.66697" x2="80.6188" y2="127.617">
  </linearGradient>
  <linearGradient id="id21" gradientUnits="userSpaceOnUse" xlink:href="#id17" x1="70.1438" y1="147.545" x2="148.14" y2="-23.8174">
  </linearGradient>
  <linearGradient id="id22" gradientUnits="userSpaceOnUse" x1="165.8" y1="20.3876" x2="24.8826" y2="97.0586">
   <stop offset="0" style="stop-opacity:1; stop-color:#ACADAD"/>
   <stop offset="0.4" style="stop-opacity:1; stop-color:#8B8C8E"/>
   <stop offset="1" style="stop-opacity:1; stop-color:#727475"/>
  </linearGradient>
  <linearGradient id="id23" gradientUnits="userSpaceOnUse" x1="177.699" y1="22.0018" x2="16.6303" y2="99.5257">
   <stop offset="0" style="stop-opacity:1; stop-color:#A1A3A5"/>
   <stop offset="0.0196078" style="stop-opacity:1; stop-color:#A1A3A5"/>
   <stop offset="0.411765" style="stop-opacity:1; stop-color:#E6E7E8"/>
   <stop offset="1" style="stop-opacity:1; stop-color:#636365"/>
  </linearGradient>
  <linearGradient id="id24" gradientUnits="userSpaceOnUse" x1="165.8" y1="24.9882" x2="24.8826" y2="97.2897">
   <stop offset="0" style="stop-opacity:1; stop-color:#9B9C9C"/>
   <stop offset="0.4" style="stop-opacity:1; stop-color:#737477"/>
   <stop offset="1" style="stop-opacity:1; stop-color:#5B5D5E"/>
  </linearGradient>
  <linearGradient id="id25" gradientUnits="userSpaceOnUse" x1="70.1535" y1="147.429" x2="148.14" y2="-23.798">
   <stop offset="0" style="stop-opacity:1; stop-color:#A1A1A2"/>
   <stop offset="0.4" style="stop-opacity:1; stop-color:#8B8C8E"/>
   <stop offset="1" style="stop-opacity:1; stop-color:#727475"/>
  </linearGradient>
  <linearGradient id="id26" gradientUnits="userSpaceOnUse" xlink:href="#id5" x1="109.248" y1="60.6806" x2="103.836" y2="66.2596">
  </linearGradient>
  <linearGradient id="id27" gradientUnits="userSpaceOnUse" x1="165.799" y1="20.3846" x2="24.8826" y2="97.0586">
   <stop offset="0" style="stop-opacity:1; stop-color:#DEDFE0"/>
   <stop offset="0.4" style="stop-opacity:1; stop-color:#A7A9AC"/>
   <stop offset="1" style="stop-opacity:1; stop-color:#7E8083"/>
  </linearGradient>
  <linearGradient id="id28" gradientUnits="userSpaceOnUse" x1="143.011" y1="-7.67" x2="80.6157" y2="127.623">
   <stop offset="0" style="stop-opacity:1; stop-color:#9CA0A3"/>
   <stop offset="0.411765" style="stop-opacity:1; stop-color:#EDEFEF"/>
   <stop offset="1" style="stop-opacity:1; stop-color:#5B5C5D"/>
  </linearGradient>
  <linearGradient id="id29" gradientUnits="userSpaceOnUse" xlink:href="#id17" x1="70.1535" y1="147.429" x2="148.139" y2="-23.798">
  </linearGradient>
  <linearGradient id="id30" gradientUnits="userSpaceOnUse" xlink:href="#id14" x1="143.011" y1="-7.66879" x2="80.6157" y2="127.621">
  </linearGradient>
  <linearGradient id="id31" gradientUnits="userSpaceOnUse" xlink:href="#id17" x1="70.1523" y1="147.596" x2="148.113" y2="-24.9663">
  </linearGradient>
  <linearGradient id="id32" gradientUnits="userSpaceOnUse" x1="70.1535" y1="147.428" x2="148.139" y2="-23.798">
   <stop offset="0" style="stop-opacity:1; stop-color:#CBCCCE"/>
   <stop offset="0.4" style="stop-opacity:1; stop-color:#A7A9AC"/>
   <stop offset="1" style="stop-opacity:1; stop-color:#7E8083"/>
  </linearGradient>
  <linearGradient id="id33" gradientUnits="userSpaceOnUse" xlink:href="#id23" x1="177.7" y1="22.0006" x2="16.6297" y2="99.5257">
  </linearGradient>
  <linearGradient id="id34" gradientUnits="userSpaceOnUse" x1="177.668" y1="22.0134" x2="16.6715" y2="99.5178">
   <stop offset="0" style="stop-opacity:1; stop-color:#5F6062"/>
   <stop offset="0.0196078" style="stop-opacity:1; stop-color:#5F6062"/>
   <stop offset="0.411765" style="stop-opacity:1; stop-color:#CECFD1"/>
   <stop offset="1" style="stop-opacity:1; stop-color:#2F2F30"/>
  </linearGradient>
  <linearGradient id="id35" gradientUnits="userSpaceOnUse" xlink:href="#id22" x1="165.784" y1="20.3852" x2="24.8838" y2="97.0586">
  </linearGradient>
  <linearGradient id="id36" gradientUnits="userSpaceOnUse" xlink:href="#id17" x1="70.1529" y1="147.376" x2="148.145" y2="-23.5159">
  </linearGradient>
  <linearGradient id="id37" gradientUnits="userSpaceOnUse" xlink:href="#id22" x1="165.807" y1="20.3979" x2="24.8826" y2="97.0592">
  </linearGradient>
  <linearGradient id="id38" gradientUnits="userSpaceOnUse" xlink:href="#id17" x1="70.1183" y1="147.571" x2="148.14" y2="-23.8211">
  </linearGradient>
  <linearGradient id="id39" gradientUnits="userSpaceOnUse" xlink:href="#id24" x1="165.8" y1="20.3816" x2="24.882" y2="97.0586">
  </linearGradient>
  <linearGradient id="id40" gradientUnits="userSpaceOnUse" x1="143.011" y1="-7.63058" x2="80.6133" y2="127.031">
   <stop offset="0" style="stop-opacity:1; stop-color:#82868A"/>
   <stop offset="0.411765" style="stop-opacity:1; stop-color:#E7EAEA"/>
   <stop offset="1" style="stop-opacity:1; stop-color:#3B3C3D"/>
  </linearGradient>
  <linearGradient id="id41" gradientUnits="userSpaceOnUse" xlink:href="#id34" x1="177.696" y1="22.0018" x2="16.6315" y2="99.525">
  </linearGradient>
  <linearGradient id="id42" gradientUnits="userSpaceOnUse" xlink:href="#id28" x1="143.01" y1="-7.66879" x2="80.6157" y2="127.621">
  </linearGradient>
  <linearGradient id="id43" gradientUnits="userSpaceOnUse" x1="70.1547" y1="147.409" x2="148.158" y2="-23.6633">
   <stop offset="0" style="stop-opacity:1; stop-color:#8E8E8F"/>
   <stop offset="0.4" style="stop-opacity:1; stop-color:#737477"/>
   <stop offset="1" style="stop-opacity:1; stop-color:#5B5D5E"/>
  </linearGradient>
  <linearGradient id="id44" gradientUnits="userSpaceOnUse" x1="177.696" y1="22.0012" x2="16.6315" y2="99.5257">
   <stop offset="0" style="stop-opacity:1; stop-color:#6F7274"/>
   <stop offset="0.0196078" style="stop-opacity:1; stop-color:#6F7274"/>
   <stop offset="0.411765" style="stop-opacity:1; stop-color:#D7D8DA"/>
   <stop offset="1" style="stop-opacity:1; stop-color:#363637"/>
  </linearGradient>
  <linearGradient id="id45" gradientUnits="userSpaceOnUse" x1="143.009" y1="-7.66394" x2="80.5805" y2="127.546">
   <stop offset="0" style="stop-opacity:1; stop-color:#B3B5B8"/>
   <stop offset="0.411765" style="stop-opacity:1; stop-color:#F1F2F2"/>
   <stop offset="1" style="stop-opacity:1; stop-color:#4F5052"/>
  </linearGradient>
  <linearGradient id="id46" gradientUnits="userSpaceOnUse" xlink:href="#id22" x1="165.799" y1="20.3864" x2="24.8826" y2="97.0586">
  </linearGradient>
  <linearGradient id="id47" gradientUnits="userSpaceOnUse" xlink:href="#id17" x1="69.9539" y1="147.709" x2="148.147" y2="-23.8435">
  </linearGradient>
  <linearGradient id="id48" gradientUnits="userSpaceOnUse" xlink:href="#id8" x1="165.801" y1="20.3791" x2="24.8778" y2="97.0664">
  </linearGradient>
  <linearGradient id="id49" gradientUnits="userSpaceOnUse" x1="177.699" y1="22.0006" x2="16.6266" y2="99.5263">
   <stop offset="0" style="stop-opacity:1; stop-color:#4C4D4E"/>
   <stop offset="0.0196078" style="stop-opacity:1; stop-color:#4C4D4E"/>
   <stop offset="0.411765" style="stop-opacity:1; stop-color:#BEBFC2"/>
   <stop offset="1" style="stop-opacity:1; stop-color:#262626"/>
  </linearGradient>
  <linearGradient id="id50" gradientUnits="userSpaceOnUse" xlink:href="#id3" x1="177.699" y1="21.9952" x2="16.6266" y2="99.5354">
  </linearGradient>
  <linearGradient id="id51" gradientUnits="userSpaceOnUse" xlink:href="#id17" x1="70.1589" y1="147.48" x2="148.211" y2="-24.1608">
  </linearGradient>
  <linearGradient id="id52" gradientUnits="userSpaceOnUse" x1="165.799" y1="20.3852" x2="24.8851" y2="97.0586">
   <stop offset="0" style="stop-opacity:1; stop-color:#CECFD1"/>
   <stop offset="0.4" style="stop-opacity:1; stop-color:#7C7F83"/>
   <stop offset="1" style="stop-opacity:1; stop-color:#58595B"/>
  </linearGradient>
  <linearGradient id="id53" gradientUnits="userSpaceOnUse" xlink:href="#id24" x1="165.797" y1="20.384" x2="24.8826" y2="97.0586">
  </linearGradient>
  <linearGradient id="id54" gradientUnits="userSpaceOnUse" xlink:href="#id22" x1="165.797" y1="20.384" x2="24.8826" y2="97.0586">
  </linearGradient>
  <linearGradient id="id55" gradientUnits="userSpaceOnUse" xlink:href="#id3" x1="177.697" y1="21.9994" x2="16.6297" y2="99.5263">
  </linearGradient>
  <linearGradient id="id56" gradientUnits="userSpaceOnUse" xlink:href="#id40" x1="143.011" y1="-7.66879" x2="80.6157" y2="127.62">
  </linearGradient>
  <linearGradient id="id57" gradientUnits="userSpaceOnUse" xlink:href="#id45" x1="143.011" y1="-7.66879" x2="80.6157" y2="127.62">
  </linearGradient>
  <linearGradient id="id58" gradientUnits="userSpaceOnUse" xlink:href="#id45" x1="143" y1="-7.71125" x2="80.4253" y2="128.256">
  </linearGradient>
  <linearGradient id="id59" gradientUnits="userSpaceOnUse" x1="177.498" y1="22.0018" x2="16.6163" y2="99.5257">
   <stop offset="0" style="stop-opacity:1; stop-color:#888A8C"/>
   <stop offset="0.0196078" style="stop-opacity:1; stop-color:#888A8C"/>
   <stop offset="0.411765" style="stop-opacity:1; stop-color:#DEDFE0"/>
   <stop offset="1" style="stop-opacity:1; stop-color:#434345"/>
  </linearGradient>
  <linearGradient id="id60" gradientUnits="userSpaceOnUse" xlink:href="#id19" x1="177.691" y1="21.9945" x2="16.6333" y2="99.5281">
  </linearGradient>
  <linearGradient id="id61" gradientUnits="userSpaceOnUse" x1="70.1529" y1="147.426" x2="148.131" y2="-23.7822">
   <stop offset="0" style="stop-opacity:1; stop-color:#969798"/>
   <stop offset="0.4" style="stop-opacity:1; stop-color:#818284"/>
   <stop offset="1" style="stop-opacity:1; stop-color:#68696B"/>
  </linearGradient>
  <linearGradient id="id62" gradientUnits="userSpaceOnUse" xlink:href="#id17" x1="70.1541" y1="147.443" x2="148.138" y2="-23.8775">
  </linearGradient>
 </defs>
 <g id="Layer_x0020_1">
  <metadata id="CorelCorpID_0Corel-Layer"/>
  <g id="_531369168">
   <path class="fil0" d="M80 179c-37,0 -67,-6 -67,-13 0,-6 30,-12 67,-12 37,0 67,6 67,12 0,7 -30,13 -67,13zm0 -24c-35,0 -64,5 -64,11 0,7 29,12 64,12 36,0 65,-5 65,-12 0,-6 -29,-11 -65,-11z"/>
   <path class="fil0" d="M80 178c-35,0 -64,-5 -64,-12 0,-6 29,-11 64,-11 36,0 65,5 65,11 0,7 -29,12 -65,12zm0 -23c-34,0 -62,5 -62,11 0,7 28,11 62,11 35,0 62,-4 62,-11 0,-6 -27,-11 -62,-11z"/>
   <path class="fil1" d="M80 177c-34,0 -62,-4 -62,-11 0,-6 28,-11 62,-11 35,0 62,5 62,11 0,7 -27,11 -62,11zm0 -21c-32,0 -59,4 -59,10 0,6 27,11 59,11 33,0 60,-5 60,-11 0,-6 -27,-10 -60,-10z"/>
   <path class="fil2" d="M80 177c-32,0 -59,-5 -59,-11 0,-6 27,-10 59,-10 33,0 60,4 60,10 0,6 -27,11 -60,11zm0 -21c-31,0 -57,5 -57,10 0,6 26,10 57,10 32,0 57,-4 57,-10 0,-5 -25,-10 -57,-10z"/>
   <path class="fil3" d="M80 176c-31,0 -57,-4 -57,-10 0,-5 26,-10 57,-10 32,0 57,5 57,10 0,6 -25,10 -57,10zm0 -19c-30,0 -54,4 -54,9 0,6 24,10 54,10 30,0 55,-4 55,-10 0,-5 -25,-9 -55,-9z"/>
   <path class="fil4" d="M80 176c-30,0 -54,-4 -54,-10 0,-5 24,-9 54,-9 30,0 55,4 55,9 0,6 -25,10 -55,10zm0 -19c-28,0 -51,4 -51,9 0,5 23,9 51,9 29,0 52,-4 52,-9 0,-5 -23,-9 -52,-9z"/>
   <path class="fil5" d="M80 175c-28,0 -51,-4 -51,-9 0,-5 23,-9 51,-9 29,0 52,4 52,9 0,5 -23,9 -52,9zm0 -17c-27,0 -49,3 -49,8 0,5 22,9 49,9 28,0 50,-4 50,-9 0,-5 -22,-8 -50,-8z"/>
   <path class="fil6" d="M80 175c-27,0 -49,-4 -49,-9 0,-5 22,-8 49,-8 28,0 50,3 50,8 0,5 -22,9 -50,9zm0 -17c-25,0 -46,4 -46,8 0,5 21,8 46,8 26,0 47,-3 47,-8 0,-4 -21,-8 -47,-8z"/>
   <path class="fil7" d="M80 174c-25,0 -46,-3 -46,-8 0,-4 21,-8 46,-8 26,0 47,4 47,8 0,5 -21,8 -47,8zm0 -16c-24,0 -44,4 -44,8 0,4 20,8 44,8 25,0 45,-4 45,-8 0,-4 -20,-8 -45,-8z"/>
   <path class="fil8" d="M80 174c-24,0 -44,-4 -44,-8 0,-4 20,-8 44,-8 25,0 45,4 45,8 0,4 -20,8 -45,8zm0 -15c-23,0 -41,3 -41,7 0,4 18,7 41,7 23,0 42,-3 42,-7 0,-4 -19,-7 -42,-7z"/>
   <path class="fil9" d="M80 173c-23,0 -41,-3 -41,-7 0,-4 18,-7 41,-7 23,0 42,3 42,7 0,4 -19,7 -42,7zm0 -14c-21,0 -39,3 -39,7 0,4 18,7 39,7 22,0 39,-3 39,-7 0,-4 -17,-7 -39,-7z"/>
   <path class="fil10" d="M80 173c-21,0 -39,-3 -39,-7 0,-4 18,-7 39,-7 22,0 39,3 39,7 0,4 -17,7 -39,7zm0 -13c-20,0 -36,3 -36,6 0,4 16,6 36,6 21,0 37,-2 37,-6 0,-3 -16,-6 -37,-6z"/>
   <path class="fil11" d="M80 172c-20,0 -36,-2 -36,-6 0,-3 16,-6 36,-6 21,0 37,3 37,6 0,4 -16,6 -37,6zm0 -12c-18,0 -34,3 -34,6 0,3 16,6 34,6 19,0 34,-3 34,-6 0,-3 -15,-6 -34,-6z"/>
   <path class="fil12" d="M80 172c-18,0 -34,-3 -34,-6 0,-3 16,-6 34,-6 19,0 34,3 34,6 0,3 -15,6 -34,6zm0 -11c-17,0 -31,2 -31,5 0,3 14,5 31,5 18,0 32,-2 32,-5 0,-3 -14,-5 -32,-5z"/>
   <path class="fil13" d="M80 171c-17,0 -31,-2 -31,-5 0,-3 14,-5 31,-5 18,0 32,2 32,5 0,3 -14,5 -32,5zm0 -10c-16,0 -29,2 -29,5 0,3 13,5 29,5 16,0 29,-2 29,-5 0,-3 -13,-5 -29,-5z"/>
   <path class="fil14" d="M80 171c-16,0 -29,-2 -29,-5 0,-3 13,-5 29,-5 16,0 29,2 29,5 0,3 -13,5 -29,5zm0 -9c-14,0 -26,2 -26,4 0,2 12,4 26,4 15,0 27,-2 27,-4 0,-2 -12,-4 -27,-4z"/>
   <path class="fil15" d="M80 170c-14,0 -26,-2 -26,-4 0,-2 12,-4 26,-4 15,0 27,2 27,4 0,2 -12,4 -27,4zm0 -8c-13,0 -24,2 -24,4 0,2 11,4 24,4 14,0 24,-2 24,-4 0,-2 -10,-4 -24,-4z"/>
   <path class="fil16" d="M80 170c-13,0 -24,-2 -24,-4 0,-2 11,-4 24,-4 14,0 24,2 24,4 0,2 -10,4 -24,4zm0 -7c-11,0 -21,1 -21,3 0,2 10,3 21,3 12,0 22,-1 22,-3 0,-2 -10,-3 -22,-3z"/>
   <path class="fil17" d="M80 169c-11,0 -21,-1 -21,-3 0,-2 10,-3 21,-3 12,0 22,1 22,3 0,2 -10,3 -22,3zm0 -6c-10,0 -19,1 -19,3 0,2 9,3 19,3 11,0 19,-1 19,-3 0,-2 -8,-3 -19,-3z"/>
   <path class="fil18" d="M80 169c-10,0 -19,-1 -19,-3 0,-2 9,-3 19,-3 11,0 19,1 19,3 0,2 -8,3 -19,3zm0 -6c-9,0 -16,2 -16,3 0,1 7,2 16,2 9,0 17,-1 17,-2 0,-1 -8,-3 -17,-3z"/>
   <path class="fil19" d="M80 168c-9,0 -16,-1 -16,-2 0,-1 7,-3 16,-3 9,0 17,2 17,3 0,1 -8,2 -17,2zm0 -4c-7,0 -13,1 -13,2 0,1 6,2 13,2 8,0 14,-1 14,-2 0,-1 -6,-2 -14,-2z"/>
   <path class="fil20" d="M80 168c-7,0 -13,-1 -13,-2 0,-1 6,-2 13,-2 8,0 14,1 14,2 0,1 -6,2 -14,2z"/>
   <path class="fil21" d="M33 104c0,0 0,0 0,0 0,0 0,0 0,0l0 0zm0 0c0,0 0,0 0,0 0,0 0,0 0,0zm0 0l0 0zm-32 -2c0,0 -1,0 -1,0l0 -6c0,0 1,-1 1,-1 0,1 0,1 0,2 0,2 0,5 0,5l0 0c0,0 0,0 0,0zm0 -7c0,0 0,0 0,0 1,0 1,0 2,0 -1,0 -2,0 -2,0zm0 2l0 0zm0 5l0 0zm33 -1l0 0 0 0c0,0 1,0 1,0l0 0c0,0 0,0 0,0l0 0 0 0c0,0 1,0 1,0l0 0 0 0 0 0c0,0 0,0 0,0l0 0c0,0 0,0 1,0l0 0c0,0 0,0 0,0l0 0c0,0 0,0 1,0l0 0c0,0 0,0 0,-1l0 0c0,0 0,0 0,0l0 0c1,0 2,0 3,-1l0 0c0,0 0,0 0,0l0 0 1 0 0 0c0,0 0,-1 0,-1l0 0 1 0 0 0c0,0 0,0 0,0l0 0c0,0 0,-1 1,-1l0 0c0,0 0,0 0,0l0 0c0,0 0,-1 0,-1l0 0c1,0 1,0 1,0l0 0c0,0 0,0 0,0l0 0c0,0 0,0 0,0l0 0c0,0 0,0 0,-1l0 0c0,0 0,0 0,0l0 0c1,0 1,0 1,0 0,0 0,0 0,0l0 0c0,0 0,-1 0,-1l0 0 0 0c0,0 0,0 0,0l0 0c0,-1 1,-1 1,-1l0 0 0 0 0 0c0,0 0,0 0,0 0,0 0,0 0,-1 0,0 0,0 0,0 0,0 0,0 0,0 0,0 0,0 0,0 0,-1 0,-1 0,-1 0,0 0,0 0,0 0,0 1,0 1,0 0,0 0,-1 0,-1 0,0 0,0 0,0 0,0 0,0 0,0 0,0 0,0 0,-1 0,0 0,0 0,0 0,0 0,0 0,0 0,0 0,0 0,0 0,0 0,0 0,0 0,1 0,1 0,1 0,0 0,0 0,0 0,0 0,0 0,0 0,0 0,1 0,1 0,0 0,0 -1,0 0,0 0,0 0,0 0,0 0,0 0,1 0,0 0,0 0,0l0 0c0,0 0,0 0,0 0,1 0,1 0,1 0,0 0,0 0,0l0 0c0,0 0,0 0,0l0 0 -1 1c0,0 0,0 0,0l0 0c0,0 0,0 0,0l0 0 0 1 0 0c0,0 0,0 0,0l-1 0 0 0 0 0 0 0 0 1 0 0 0 0 0 0 0 0 0 0c0,0 0,0 -1,0l0 0c0,0 0,1 0,1l0 0c0,0 0,0 0,0l0 0c-1,0 -1,1 -1,1l0 0c0,0 0,0 0,0l0 0 -1 0 0 0c0,0 0,1 0,1l0 0 -1 0 0 0c0,0 0,0 0,0l0 0c-1,1 -2,1 -3,1l0 0c0,0 0,0 0,0l0 0c0,1 0,1 0,1l0 0c-1,0 -1,0 -1,0l0 0c0,0 0,0 0,0l0 0c-1,0 -1,0 -1,0l0 0c0,0 0,0 0,0l0 0 0 0 0 0c0,0 -1,0 -1,0l0 0c0,0 0,0 0,0 0,0 0,0 0,0l0 0c0,0 -1,0 -1,0 0,0 0,0 0,0zm-31 -6c0,0 0,0 0,0 0,0 0,0 0,0l0 0zm0 0l1 0 0 0 0 0 0 0 0 0 0 0 1 0 0 0 0 0 0 0 0 0 0 0 1 0 0 0 0 0 0 0 0 0 0 0 0 0 0 0 1 0 0 0 0 0 0 0 0 0 0 0 1 0 0 0 0 0 0 0 0 0 0 0 0 0 0 0 1 0 0 0 0 0 0 0 0 0 0 0 0 0 0 0 1 0 0 0 0 -1 0 0 0 0 0 0 0 0 0 0 1 0 0 0 0 0 0 0 0 0 0 0 0 0 0 0 1 0 0 0 0 0 0 0 0 0 0 0 0 0 0 0 1 -1 0 0 0 0 0 0 0 0 0 0 0 0 0 0 1 0 0 0 0 0 0 0 0 0 0 0 0 0 0 0 1 -1 0 0 0 0 0 0 0 0 0 0 0 0 0 0 1 0 0 0 0 0 0 0 0 -1 0 0 0 0 0 0 1 0 0 0 0 0 0 0 0 0 0 -1 1 0 0 0 0 0 0 0 0 -1 0 0 1 0 0 0 0 0 -1 0 0 0 0 1 0 0 0 0 0 0 -1 0 0 1 0 0 0 0 0 0 0 0 -1 0 0 0 0 0 0 0 0 1 0 0 0 0 0 0 -1 0 0 0 0 0 0 0 0 0 0 0 0 0 0 0 -1 1 0 0 0 0 0 0 0 0 0 0 0 0 0 0 -1 0 0 0 0 0 0 0 0 0 0 0 0 0 0 0 -1 1 0 0 0 0 0 0 0 0 0 0 0 0 0 0 -1 0 0 0 0 0 0 0 0 0 0 0 0 0 0 0 -1 0 0 0 0 0 0 0 0 0 0 0 0 1 0 0 -1 0 0 0 0 0 0 0 0 0 0 0 0 0 0 0 -1 0 0 0 0 0 0 0 0 0 0 0 0 0 0 0 -1 0 0 0 0 0 0 0 0 0 0 0 -1 0 0 0 0 0 0 0 0 0 0 0 0 0 0 0 -1 0 0 0 0 0 0 0 0 0 0 0 -1 0 0 0 0 0 0 0 0 0 0 0 -1 0zm17 -6l-1 0 0 0c0,-4 2,-8 5,-11 3,-2 15,-6 15,-6l2 1c0,0 1,1 2,2 -1,-1 -2,-2 -2,-2 0,0 -1,0 -1,0 -3,1 -12,3 -14,5 -4,3 -5,7 -6,11 0,0 0,0 0,0zm-1 0l0 0zm29 0c0,0 0,0 0,0 0,0 0,0 0,0zm0 0c0,0 0,-1 0,-1 0,0 0,1 0,1zm5 -9c0,0 0,0 -1,0 1,0 1,0 2,0 10,-3 23,-8 33,-12 1,-1 5,-2 9,-5l0 0 0 0 0 0 0 0 0 0 0 0 2 0c1,-1 2,-1 3,-2 0,0 0,0 0,0 -2,1 -4,2 -5,2l0 0 0 0 0 0 0 0 0 0 0 0 0 0 1 1c-5,2 -8,3 -9,4 -4,2 -9,3 -13,5 -3,1 -6,3 -9,4 -1,0 -1,0 -2,0 -2,1 -4,2 -5,2 -1,0 -3,1 -4,1 0,0 -1,0 -2,0zm38 -2c0,0 0,0 -1,0 -1,-1 -3,-1 -4,-1 1,0 3,0 4,0 0,0 1,1 1,1 0,0 0,0 0,0zm-1 -1l0 0zm29 -25c0,0 0,0 0,0 0,0 1,0 1,0 23,-12 50,-26 50,-26 0,0 0,0 0,0 1,0 1,0 1,0 0,0 0,0 1,0 -1,0 -1,0 -1,0l0 0 0 0 0 0c0,0 0,0 0,0 0,0 0,0 0,0 0,0 -12,6 -26,13 -7,4 -16,9 -24,13l0 -1c0,0 -2,1 -2,1zm2 0l0 0z"/>
   <path class="fil18" d="M48 89c0,0 0,0 0,0 0,0 0,0 0,0zm0 -1c0,-6 -5,-11 -11,-12l0 0c6,1 11,6 11,12z"/>
   <path class="fil22" d="M35 101l0 0c0,0 0,0 0,0 0,0 0,0 0,0 0,0 -1,0 -1,0 7,0 13,-5 14,-12 0,0 0,0 0,0 0,0 0,0 0,0 0,0 0,-1 0,-1 0,-6 -5,-11 -11,-12 0,0 0,0 0,0 5,0 9,3 11,6 1,2 1,4 1,6 0,0 0,0 0,1 0,0 0,0 0,0 0,7 -7,12 -14,12 0,0 0,0 0,0zm13 -19l0 0zm1 7l0 0z"/>
   <path class="fil23" d="M33 104l0 0c0,0 0,0 0,0 0,0 0,0 0,0zm0 0c-2,0 -5,-1 -7,-2 2,1 5,2 7,2zm-7 -2c0,0 0,0 0,0 0,0 0,0 0,0zm-1 0c0,0 0,0 0,-1 0,1 0,1 0,1z"/>
   <path class="fil24" d="M33 104c0,0 0,0 0,0 -2,0 -5,-1 -7,-2 0,0 0,0 0,0 0,0 0,0 0,0 0,0 0,0 -1,0 0,0 0,0 0,-1 0,0 0,0 0,0l0 0c-2,-1 -4,-3 -5,-6 0,0 1,-1 1,-1 1,3 3,6 6,8 2,1 4,1 6,2 0,0 0,0 0,0 0,0 0,0 0,0z"/>
   <path class="fil25" d="M3 95l0 0c0,0 0,0 0,0 0,0 0,0 0,0zm0 0c0,0 0,0 0,0 0,0 0,0 0,0zm16 -6c0,0 0,0 0,0 0,0 0,0 0,0z"/>
   <path class="fil26" d="M5 95c-1,0 -1,0 -2,0l0 0c0,0 0,0 0,0 0,0 0,0 0,0 6,0 12,-2 16,-6 0,0 0,0 0,0l1 0c-3,4 -9,6 -15,6zm-2 0l0 0zm16 -6l0 0z"/>
   <path class="fil27" d="M35 104c0,0 0,0 0,0 0,0 0,0 0,0l0 0zm0 -3c0,0 0,0 1,0 0,0 0,0 0,0l0 0c0,0 0,0 1,0l0 0c4,0 9,-3 11,-7l0 0 0 -1 0 0c0,0 0,0 0,0l0 0c0,0 0,0 0,-1l0 0c1,0 1,0 1,0l0 0 0 -1 0 0c0,0 0,0 0,0l0 0 0 -1 0 0c0,0 0,0 0,0 0,0 0,0 0,0 0,0 0,0 0,-1 0,0 0,0 0,0 0,0 0,0 0,0 0,0 0,0 0,0 0,0 0,0 0,0 0,1 0,1 0,1 0,0 0,0 0,0 0,0 0,0 0,0l0 0c0,1 0,1 0,1l0 0c0,0 0,0 0,0l0 0c0,0 0,1 0,1l0 0c0,0 0,0 -1,0l0 0c0,1 0,1 0,1l0 0c0,0 0,0 0,0l0 0 0 1 0 0c-2,4 -7,7 -11,7l0 0c-1,0 -1,0 -1,0l0 0c0,0 0,0 0,0 -1,0 -1,0 -1,0zm0 0c0,0 0,0 0,0 0,0 0,0 0,0zm0 0c0,0 -1,0 -1,0l0 0c-1,0 -2,0 -3,-1l0 0c0,0 -1,0 -1,0l0 0c-1,-1 -2,-1 -3,-2l0 0c0,0 0,0 -1,0 0,-1 0,-1 0,-1l0 0 0 0 0 0 0 0 0 0 -1 0 0 0 0 -1 0 0c0,0 0,0 0,0l0 0c0,-1 -1,-1 -1,-2l0 0 0 0 0 0 0 0 0 0 0 -1 0 0 0 0 0 0 0 0 0 0 0 0 -1 0 0 -1 0 0 0 0 0 0 0 0 0 0 0 0 0 0 0 -1 0 0 0 0 0 0 0 0 0 0 0 -1 0 0 0 0 0 0 0 0c0,0 0,0 0,0 0,0 0,0 0,0l0 0 0 0 0 0 0 0 0 1 0 0 0 0 0 0 0 0 0 0 0 1 0 0 0 0 0 0 0 0 0 0 0 0 0 0 0 1 1 0 0 0 0 0 0 0 0 0 0 0 0 0 0 1 0 0 0 0 0 0 0 0 0 0c0,1 1,1 1,2l0 0c0,0 0,0 0,0l0 0 0 1 0 0 1 0 0 0 0 0 0 0 0 0 0 0c0,0 0,0 0,1 1,0 1,0 1,0l0 0c1,1 2,1 3,2l0 0c0,0 1,0 1,0l0 0c1,1 2,1 3,1l0 0 0 0c0,0 1,0 1,0zm-12 -11c-3,2 -11,7 -19,7 -1,0 -2,0 -3,0 0,-1 0,-1 0,-2 0,0 1,0 2,0 0,0 0,0 0,0 0,0 0,0 0,0 1,0 1,0 2,0 6,0 12,-2 15,-6 0,0 0,0 0,0 1,-4 2,-8 6,-11 2,-2 11,-4 14,-5 0,0 1,0 1,0 0,0 1,1 2,2 2,2 6,5 9,5 1,0 1,0 1,0 1,0 2,0 2,0 1,0 3,-1 4,-1l0 2c-4,1 -8,1 -11,1 -2,-3 -6,-6 -11,-6 0,0 0,0 0,0 0,0 -1,0 -1,0 -7,1 -13,7 -13,13 0,1 0,1 0,1zm-22 7l0 0zm58 -18c1,0 3,-1 5,-2 -2,1 -4,2 -5,2zm5 -2c1,0 1,0 2,0l0 2c-1,0 -1,0 -2,0l0 -2zm2 0c3,-1 6,-3 9,-4 -3,1 -6,3 -9,4zm9 -4c4,-2 9,-3 13,-5 1,-1 4,-2 9,-4l-1 1c-5,3 -12,7 -21,11l0 -3zm22 -9l0 0zm-49 18l0 0zm-11 -6l0 0zm-3 25l0 0zm22 -16l0 0 0 0 0 0 0 0 0 0 0 0 1 0 0 0c0,-1 1,-1 1,-1l0 0 0 0 0 0 0 0 0 0 0 0 0 0 0 0 0 0 0 0c0,0 -1,0 -1,1l0 0 -1 0 0 0 0 0 0 0 0 0 0 0 0 0zm19 -7l0 0 0 0 0 0c3,-1 7,-1 10,-1 1,0 3,0 4,0l0 0 0 0 1 0 0 0 0 0 0 0 0 0 0 0 0 0 0 0 0 0 0 0 0 0 0 0 0 0 0 0 0 0 -1 0 0 0 0 0c-1,0 -2,0 -3,0 0,0 -1,0 -1,0 -3,0 -7,0 -10,1l0 0 0 0zm15 -1l0 0zm19 -7c0,0 0,0 0,0l2 -1 0 0 0 0 0 0 0 0 0 0 0 0 0 0 0 0 0 0 0 0 0 0 0 0 0 0 0 0 0 0 0 0 0 -1 0 0 0 0 0 0 0 0 0 0 1 0 0 0 0 0 0 0 0 0 0 0 0 0 -1 0 0 0 0 0 0 0 0 0 0 0 0 1 0 0 0 0 0 0 0 0 0 0 0 0 0 0 0 0 0 0 0 0 0 0 0 0 0 0 0 0 0 0 0 0 -2 1zm3 -2c2,-2 3,-4 4,-7 0,0 0,0 0,0 19,-8 55,-33 56,-34 1,0 1,1 1,1 -1,0 -38,25 -61,40zm60 -41l0 0 0 0 0 0 0 0 0 0 0 0 0 0 0 0 0 0 0 0 0 0 0 0 0 0 0 0 0 0 0 0 0 0 0 0 0 0 0 0 0 0 0 0 0 0 0 0 0 0 0 0 0 0c0,-1 0,-1 -1,-1l0 0 0 0 0 0 0 0 0 0 0 0 0 0 0 0 0 0 0 0 0 0 0 0 0 0 0 0 0 0 0 0 0 0 0 0 0 0 0 0 0 0 0 0 0 0 0 0 0 0 0 0 0 0 0 0 0 0 0 0 0 0 0 0 0 0 0 0 0 0 0 0 0 0 0 0 0 0 0 0 0 0 0 0 0 0 0 0 0 0 0 0 0 0 0 0 0 0 0 0 0 0 0 0 0 0 0 0 0 0 0 0 0 0 0 0 0 0 0 0 0 0 0 0 0 0 0 0 0 0 0 0 0 0 0 0 0 0 0 0 0 0 0 0 0 0 0 0 0 0 0 0 0 0 0 0 0 0 0 0 0 0 0 0 0 0 0 0 0 0 0 0 0 0 0 0 0 0 0 0 0 0 0 0 0 0 0 0 0 0 0 0 0 0 0 0 0 0 0 0 0 0 0 0 0 0 0 0 0 0 0 0 0 0 0 0 0 0 0 0 0 0 0 0 0 0 0 0 0 0 0 0 0 0 0 0 0 0 0 0 0 0 0 0 0 0 0 0 0 0 0 0 0 0 0 0 0 0 0 0 0 0 0 0 0 0 0 0 0 0 0 0 0 0 0 0 0 0 0 0 0 0 0 0 0 0 0 0 1 0c0,0 0,0 0,1l0 0 0 0 0 0 0 0 0 0 0 0 0 0 0 0 0 0 0 0 0 0 0 0 0 0 0 0 0 0 0 0 0 0 0 0 0 0 0 0 0 0 0 0 0 0 0 0 0 0 0 0 0 0zm-1 -1l0 0 0 0 0 0zm-50 26c0,0 0,0 0,0 5,-3 10,-5 15,-8l0 0 0 0 0 0 0 0 0 0 1 0 0 0 0 0 0 0 1 -1 0 0 0 0 0 0 0 0 1 0 0 0 0 -1 0 0 1 0 0 0 0 0 0 0 0 0 0 0 1 0 0 0 0 0 0 0 0 -1 0 0 1 0 0 0 0 0 0 0 1 0 0 0 0 0 0 0 0 -1 0 0 1 0 0 0 0 0 1 0 0 -1 0 1 -1 0 0 0 0 0 -1 0 0 0 0 1 0 0 0 0 0 0 -1 0 0 0 0 0 0 0 -1 0 0 0 0 1 0 0 0 0 0 0 -1 0 0 0 0 0 0 0 0 0 0 0 -1 0 0 0 0 1 0 0 -1 0 0 0 0 0 0 0 0 0 -1 1 0 0 0 0 0 0 -1 0 0 0 0 0 0 0 0 0 0 0c-5,3 -10,5 -15,8zm0 0l0 0z"/>
   <path class="fil0" d="M35 104l0 0c0,0 0,0 0,0 0,0 0,0 0,0zm0 0c-1,0 -1,0 -2,0l0 0c1,0 1,0 2,0z"/>
   <path class="fil28" d="M33 104c-2,-1 -4,-1 -6,-2 -3,-2 -5,-5 -6,-8 0,0 -1,1 -1,1l0 0c0,0 1,-1 1,-1 1,3 3,6 6,8 2,1 4,1 6,2l0 0z"/>
   <path class="fil29" d="M35 101l0 0c0,0 0,0 0,0 0,0 0,0 0,0zm0 0c0,0 0,0 0,0 0,0 0,0 0,0z"/>
   <path class="fil30" d="M58 84c0,0 0,-1 1,-1l0 0c0,0 0,0 0,0 0,0 -1,0 -1,1zm5 -3c0,0 0,0 1,0l0 0c0,0 1,-1 2,-1l0 0c0,0 0,0 0,0 -1,0 -2,1 -3,1z"/>
   <path class="fil31" d="M35 104c0,0 0,0 0,0 -1,0 -1,0 -2,0 -2,-1 -4,-1 -6,-2 -3,-2 -5,-5 -6,-8 0,0 -1,1 -1,1 -6,3 -19,7 -19,7 0,0 0,-3 0,-5 1,0 2,0 3,0 8,0 16,-5 19,-7 0,6 5,11 12,11 0,0 0,0 0,0 0,0 0,0 0,0 0,0 0,0 0,0 7,0 14,-5 14,-12 0,0 0,0 0,0 0,-1 0,-1 0,-1 0,-2 0,-4 -1,-6 3,0 7,0 11,-1l0 2c-1,0 -1,1 -1,1 0,0 -1,0 -2,1 -4,4 -6,11 -11,15 0,0 0,0 0,0 -3,2 -6,4 -10,4 0,0 0,0 0,0zm-2 0l0 0zm-32 -2l0 0zm34 -1l0 0zm14 -12l0 0zm10 -6l0 0zm-3 2l0 0zm8 -4l0 -2c1,0 1,0 2,0l0 1c-1,0 -2,1 -2,1zm2 -1l0 0zm9 -2l0 -2c9,-4 16,-8 21,-11l-7 10c0,1 1,2 1,2 -2,0 -4,0 -5,0 -4,0 -7,0 -10,1z"/>
   <path class="fil32" d="M97 64l-1 -1c0,0 3,-1 5,-2 0,0 0,0 0,1 -1,0 -1,0 -2,1l0 0 0 0c-1,0 -2,1 -2,1l0 0z"/>
   <path class="fil33" d="M96 65l1 -1c0,0 1,-1 2,-1l0 0c-1,0 -2,1 -3,2zm1 -1l0 0zm2 -1l0 0z"/>
   <path class="fil34" d="M99 63c1,-1 1,-1 2,-1 0,0 0,0 0,0 -1,0 -1,0 -2,1z"/>
   <path class="fil35" d="M91 78c0,0 -1,-1 -1,-1 0,0 -1,-1 -1,-2l7 -10c1,-1 2,-2 3,-2 1,-1 1,-1 2,-1 -6,8 -10,14 -10,14 0,1 0,1 0,2zm-1 -1l0 0zm9 -14l0 0zm-8 13l0 0z"/>
   <path class="fil36" d="M145 39c14,-7 26,-13 26,-13 0,0 -12,6 -26,13zm26 -13c0,0 0,0 0,0 0,0 0,0 0,0zm0 0l0 0 0 0z"/>
   <path class="fil37" d="M116 61c2,-3 5,-9 5,-9 8,-4 17,-9 24,-13 14,-7 26,-13 26,-13 0,0 0,0 0,0 0,0 0,0 0,0l0 0 0 0 0 0c0,0 1,0 1,1 -1,1 -37,26 -56,34z"/>
   <path class="fil38" d="M112 68c0,0 0,0 0,0l0 0c0,0 0,0 0,0z"/>
   <path class="fil39" d="M109 70c1,-2 2,-5 4,-7l0 0c0,-1 0,-1 0,-1 1,-1 2,-1 3,-1 0,0 0,0 0,0 -1,3 -2,5 -4,7l0 0c0,0 0,0 0,0 -1,1 -2,2 -3,2z"/>
   <path class="fil40" d="M118 53c0,0 0,0 1,-1 0,0 2,-1 2,-1l0 1c-1,0 -2,1 -3,1z"/>
   <path class="fil41" d="M118 53c0,0 0,0 0,0 1,0 2,-1 3,-1l0 0c0,0 0,0 0,0 -1,0 -2,1 -3,1z"/>
   <path class="fil42" d="M113 62c2,-3 3,-6 5,-9 1,0 2,-1 3,-1 0,0 -3,6 -5,9 -1,0 -2,0 -3,1z"/>
   <path class="fil43" d="M77 150c-6,0 -11,-5 -12,-7 -2,-4 -2,-8 -1,-11l-1 0 2 0c0,1 0,2 0,3 0,1 0,1 0,2 0,2 0,4 1,6 1,2 6,6 12,7 0,0 -1,0 -1,0zm-11 -7l0 0zm13 4c-1,0 -1,0 -1,0 0,0 0,0 0,0 6,-1 12,-6 12,-13 1,-7 -3,-13 -10,-13l0 0c0,0 0,0 0,0l0 0c0,0 0,0 0,0 1,0 2,0 3,0 0,0 0,0 0,0 0,0 0,0 0,0 0,0 0,0 0,0 0,0 0,0 0,0 0,0 0,0 0,0 0,0 0,0 0,0 6,2 10,7 9,13 -1,7 -7,13 -13,13zm-1 0l0 0zm2 -26l0 0zm3 0l0 0zm-21 8l0 0 -1 0 2 -3c0,0 1,0 2,0 0,0 0,0 0,0 0,0 0,0 -1,0 0,0 0,0 0,0l-2 3zm-1 0l0 0 0 0zm0 0l0 0zm4 -3l0 0 0 0zm0 0l0 0zm-1 0l0 0zm2 0c0,0 0,0 0,0l0 0 0 0zm0 0c0,-1 1,-1 1,-1 0,0 -1,0 -1,1zm1 -1c4,-6 11,-7 16,-11 -5,4 -12,5 -16,11zm16 -11c5,-6 8,-18 9,-28 -1,10 -4,22 -9,28zm9 -28c0,-2 0,-3 0,-4 0,1 0,2 0,4zm0 -10l0 0 0 0c0,0 1,-1 1,-2 0,0 0,0 1,0 0,-1 1,-2 2,-3 0,-1 0,-1 0,-1 0,0 0,0 1,0 0,-1 1,-3 2,-4 0,0 1,-1 1,-1 0,-1 1,-1 1,-2 1,-1 1,-2 2,-3 1,-1 2,-3 3,-4 0,0 0,0 0,-1 1,0 1,0 1,0 1,-1 1,-2 2,-3 0,0 0,0 0,0 1,-2 2,-4 4,-5 0,-1 1,-3 2,-4 3,-4 6,-8 9,-12 0,-1 0,-1 0,-1l0 0c0,0 1,-1 1,-1 0,0 0,0 0,-1 1,-1 2,-2 3,-3 0,-1 0,-1 1,-1 0,0 0,0 0,-1 0,0 0,0 0,0 0,0 0,0 0,0 0,0 0,0 0,0 0,0 0,-1 0,-1 1,0 1,0 1,0 1,-2 2,-4 4,-6 0,0 0,0 0,0 0,-1 1,-1 1,-1 3,-5 6,-9 7,-11l1 -1c0,0 0,-1 1,-1 0,-1 0,-1 1,-1l0 0c0,0 0,0 0,-1 0,0 0,0 0,0 0,0 0,0 0,0 0,0 0,0 0,0l0 0c0,0 0,0 -1,0 0,0 0,0 0,0 -1,0 -10,14 -21,30 -3,4 -6,9 -9,13 -1,1 -2,3 -3,4 -1,2 -2,3 -4,5 -2,3 -4,6 -6,9 0,0 0,0 0,0 0,0 0,0 0,1 0,0 0,0 0,0 -6,8 -10,14 -10,14l1 0zm-1 0l0 0zm54 -76l0 0 0 0zm0 0l0 0z"/>
   <path class="fil44" d="M65 132l-2 0 0 0c-1,-1 -2,-3 -2,-3l0 0 1 0 0 0c0,0 1,2 3,3 0,0 0,0 0,0z"/>
   <path class="fil45" d="M67 126l0 0c0,0 0,0 -1,0l0 0c0,-1 1,-1 1,-1 4,-6 11,-7 16,-11 5,-6 8,-18 9,-28 0,-2 0,-3 0,-4 0,-2 -1,-4 -1,-6l1 0c1,2 1,4 1,6 0,1 0,2 0,4 0,10 -4,22 -9,28 -4,4 -11,5 -16,11 0,0 0,1 -1,1zm25 -50l0 0z"/>
   <path class="fil46" d="M79 150c-1,0 -1,0 -1,0 -6,-1 -11,-5 -12,-7 0,-1 1,-7 1,-8 0,0 0,1 0,1 1,6 5,10 11,11 0,0 0,0 0,0 0,0 0,0 1,0 6,0 12,-6 13,-13 1,-6 -3,-11 -9,-13 8,-13 8,-17 13,-37 1,-4 4,-10 7,-16 1,1 2,1 3,1 1,0 2,0 3,-1 1,-1 1,-2 1,-3 0,-1 0,-2 -1,-3 0,0 -1,0 -1,0 0,-1 -1,-1 -1,-1 1,-1 2,-3 2,-4l0 0c1,1 2,3 3,5 0,0 1,0 1,1 -2,2 -3,5 -4,7 0,0 0,0 0,0 -4,6 -6,11 -7,13 -4,10 -10,22 -13,32 -2,5 3,11 7,15 0,0 -4,12 -6,15 -4,4 -8,5 -11,5zm-1 0l0 0zm-12 -7l0 0zm12 4l0 0zm50 -123l1 0 0 0 0 0 0 0 0 0 0 0 0 0 0 0 0 0 0 0 0 0 0 0 0 -1 0 1 0 0 0 0 0 0 0 0 0 0 0 0 0 0 0 0 0 0 0 0 -1 0zm-64 102l0 0 0 0 0 0 0 0 0 0 0 0 0 0 0 0 0 0 0 0 0 0 0 0 0 0 0 0 0 0 0 0 0 0 0 0 0 0 0 0 0 0 0 0 0 0 0 0 0 0 0 0 1 0 0 0 0 0 0 0 0 0 0 0 0 0 0 0 0 0 0 0 0 0 0 0 0 0 0 0 0 0 0 0 0 0 0 0 0 0 0 0 0 0 0 0 0 0 0 0 0 0 0 0 0 0 0 0 0 0 0 0 0 0 0 0 0 0c0,0 0,0 0,0l0 0c0,0 0,0 0,0l0 0 0 0 0 0 0 0 0 0 0 0 0 0 0 0 0 0 0 0 0 0 0 0 0 0 0 0 0 0 0 0 0 0 0 0 0 0 0 0 0 0 0 0 0 0 0 0 0 0 0 0 0 0 0 0 0 0 0 0 0 0 0 0 -1 0 0 0 0 0 0 0 0 0 0 0 0 0 0 0 0 0 0 0 0 0 0 0 0 0 0 0 0 0 0 0 0 0 0 0 0 0 0 0 0 0 0 0 0 0 0 0 0 0 0 0 0 0zm11 -4l0 0 0 0 0 0 0 0 0 0 0 0 0 0 0 0 1 0 0 0 0 0 0 0 0 0 0 0 0 0 0 0c0,-1 1,-1 2,-1l0 0 0 0 0 0 0 0 0 0 0 0 0 0 0 0 0 0 0 0 0 0 0 0 0 0 0 0 0 0 0 0 0 0 0 0 0 0 0 0 0 0 0 0 0 0 0 0 0 0 0 0 0 0 0 0 0 0 0 0 0 0 0 0 0 0 0 0 0 0 0 0 0 0 0 0 0 0 0 0 0 0 0 0 0 0 0 0 0 0 0 0 0 0 0 0 0 0 0 0 0 0 0 0 0 0 0 0 0 0 0 0 0 0 0 0 0 0 0 0 0 0 0 0 0 0 0 0 0 0 0 0 0 0 0 0 0 0c-1,0 -1,0 -1,0 0,0 -1,0 -1,1l0 0 0 0 0 0 0 0 0 0 0 0 0 0 -1 0 0 0 0 0 0 0 0 0 0 0 0 0 0 0 0 0zm5 -1l0 0 0 0 0 0 0 0 0 0c0,0 0,0 0,0 0,0 0,0 0,0l0 0 0 0 0 0 0 0zm0 0c0,0 0,0 0,0 0,0 0,0 0,0zm0 0l0 0zm13 -47l0 0 0 0 1 0c0,-1 1,-2 2,-3 0,-1 0,-1 0,-1l0 0 0 0 0 0 0 0 0 0 0 0 0 0 1 0 0 0 0 0 0 0 0 0 0 0 0 0 -1 0 0 0 0 0 0 0 0 0 0 0 0 0 -3 4 0 0 0 0zm6 -8l0 0 0 0 0 0 0 0 0 0 0 0 0 0 0 0 0 0 0 0 0 0 0 0 0 0 1 -1 0 0 0 0 0 0 0 0 0 0 0 0 0 0 0 0 0 0 0 0 0 0 0 0 0 0 0 0 0 0 0 0 0 0 0 0 -1 1 0 0 0 0 0 0 0 0 0 0 0 0 0 0 0 0 0 0 0 0 0 0 0 0 0 0zm2 -3l0 0 0 0 0 0 0 0 0 0 0 0 0 0 0 0 0 0 0 0 0 0 1 0 0 0 0 0 0 0 0 0 0 0 0 -1 0 0 0 0 0 0 0 0 0 0 0 0 0 0 0 0 0 0 0 0 0 0 0 0 0 0 0 0 0 0 0 0 0 0 0 0 0 0 0 0 0 0 0 0 0 0 0 0 0 0 0 0 0 0 0 0 0 0 0 0 0 0 0 0 0 0 0 -1 0 0 0 0 0 0 0 0 0 0 0 0 0 0 1 0 0 0 0 0 0 0 0 0 0 0 0 0 0 0 0 0 0 0 0 0 0 0 0 0 0 0 0 0 0 0 0 0 0 0 0 0 0 0 0 0 0 0 0 0 0 0 0 0 0 -1 0 0 0 0 0 0 0 0 0 0 0 0 0 0 0 0 0 0 0 0 0 0 0 0 0 0 0 0 0 1 0 0 0 0 0 0 0 0 0 0 0 0 0 0 0 0 0 0 0 0 0 0 0 0 0 0 0 0 0 0 0 0 0 0 0 0 0 0 0 0 0 0 0 0 0 0 0 0 -1 0 0 0 0 0 0 0 0 0 0 0 0 0 0 0 0 1 0 0 0 0 0 0 0 0 0 0 0 0 0 0 0 0 0 0 0 0 0 0 0 0 0 0 0 0 0 0 0 0 0 0 0 0 0 0 0 0 0 0 0 0 0 0 0 0 0 0 0 0 0 0 0 0 0 0 0 0 0 0 0 0 0 0 0 1 0 0 0 0 0 0 0 0 0 0 -1 0 0 0 0 0 0 0 0 0 0 0 0 0 0 0 0 0 0 0 0 0 0 0zm5 -7c0,0 0,0 0,-1 1,0 1,0 1,0 1,-1 1,-2 2,-3l0 0 0 0 0 0 0 0 0 0 0 0 0 0 0 0 0 0 0 0 -3 4zm3 -4c1,-2 2,-4 4,-5 -2,1 -3,3 -4,5l0 0zm4 -5c0,-1 1,-3 2,-4l0 0 0 0 0 0 0 0 0 0 0 0 0 0 0 0 0 0 0 0 -2 4 0 0zm11 -16c0,-1 0,-1 0,-1 0,0 0,0 0,1l0 0zm0 -1l0 0 0 0 0 0 0 0 0 0 0 0 0 0 0 0 0 0 0 0 0 0 0 0 0 0 0 0 0 0 0 0 0 0 0 0 0 0 0 0 0 0 0 0 0 0zm4 -5l0 0 0 0 0 0 0 0 0 0 0 0 0 0 0 -1 0 0 0 0 0 0 0 0 0 0 0 0m0 0l0 0 0 0 0 0 0 0 0 0 0 0 0 1 0 0 0 0 0 0 0 0 0 0 0 0 0 0m1 -2l0 0 0 0 0 0 0 0 0 0 0 0 0 0 0 0 0 0 0 0 0 0 0 0 0 0 0 0 0 0 0 0 0 0 0 0 0 0 0 0 0 0 0 0 0 0 0 0 0 0zm0 -1l0 0 0 0 0 0 0 0 0 0 1 0c1,-2 2,-4 4,-6 -2,2 -3,4 -5,6l0 0 0 0 0 0 0 0 0 0zm5 -6l0 0 0 0 0 0c0,-1 1,-1 1,-1 2,-3 4,-6 5,-8l0 0 0 0 0 0 0 0 0 0 0 0 1 -1 0 0 0 0 0 0 0 0 0 0 0 0 0 0 0 0 0 0 0 0 0 0 0 -1 0 0 0 0 0 0 0 0 1 0 0 0 0 0 0 0 0 0 0 0 0 0 0 0 0 -1 0 0 0 0 0 0 0 0 0 0 0 0 0 0 0 0 1 -1 0 0 0 0 0 0 0 0 0 0 0 0 0 0 0 0 0 0 0 0 0 0 0 0 0 0 0 0 0 0 0 0 0 0 0 0 0 0 0 -1 0 0 0 0 0 0 0 0 0 0 0 0 0 0 0 0 0 0 0 0 0 0 0 0 1 0 0 0 0 0 0 0 0 0 0 0 0 0 0 0 0 0 0 0 0 0 0 0 0 0 0 0 0 0 0 0 0 0 0 0 0 0 0 0 0 0 0 0 0 0 -1 0 0 0 0 0 0 0 0 0 0 0 0 0 0 0 0 0 0 0 0 0 0 0 0 0 0 1 0 0 0 0 0 0 0 0 0 0 0 0 0 0 0 0 0 0 0 0 0 0 0 0 0 0 0 0 0 0 0 0 0 0 0 0 -1 1 0 0 0 0 0 0 0 0 0 0 0 0 0 0 0 1 0 0 0 0 0 0 0 0 0 0 0 0 0 0 -1 0 0 0 0 0 0 0 0 0 0 1 0 0 0 0 0 0 0 0 0 0 0 0 0 0 0 0 0 0 0 0 0 0 -1 1 0 0 0 0 0 0 0 0 0 0 0 0c-2,2 -4,5 -6,9l0 0 0 0 0 0zm13 -15l0 0 0 0c0,0 0,0 0,0 0,0 0,0 0,0l0 0 0 0 0 0 0 0zm0 0l0 0zm-2 0l0 0 0 0 0 0 0 0 0 0 0 0 0 0 0 0 0 -1 0 0 0 0 0 0 0 0 0 0 0 0 0 0 0 0 0 0 0 0 0 0 0 0 0 0 0 0 0 0 0 0 0 0 0 0 0 0 0 0 0 0 0 0 0 0 0 0 0 0 0 0 0 0 0 0 0 0 0 0 0 0 0 0 0 1 0 0 0 0 0 0 0 0 0 0 0 0 0 0zm0 -1c0,0 0,0 0,0 0,0 0,0 0,0zm0 0l0 0zm1 0l0 0 0 0 0 0 0 0 0 0 0 0 0 0 0 0 0 0 0 0 0 0 0 0 0 0 0 0 0 0 0 0 0 0 0 0 0 0 0 0 0 0 0 0 -1 0 0 0 0 0 0 0 0 0 0 0 0 0 0 0 0 0 0 0 0 0 0 0 0 0 0 0 0 0 0 0 0 0 0 0 0 0 0 0 0 0 0 0 0 0 0 0 0 0 0 0 0 0 0 0 0 0 0 0 0 0 0 0 0 0 0 0 0 0 0 0 0 0 0 0 0 0 0 0 0 0 0 0 0 0 0 0 0 0 0 0 0 0 0 0 0 0 0 0 0 0 0 0 0 0 0 0 0 0 0 0 0 0 0 0 0 0 0 0 0 0 0 0 0 0 0 0 0 0 0 0 0 0 0 0 0 0 0 0 0 0 0 0 0 0 0 0 0 0 0 0 0 0 0 0 0 0 1 0 0 0 0 0 0 0 0 0 0 0 0 0 0 0 0 0 0 0 0 0 0 0 0 0 0 0 0 0 0 0 0 0 0 0 0 0 0 0 0 0 0 0 0 0zm-1 0l0 0 0 0zm0 0l0 0 0 0 0 0 0 0 0 0 0 0 0 0 0 0 0 0 0 0 0 0 0 0 0 0 0 0 0 0 0 0 0 0 0 0 0 0 0 0 0 0 0 0 0 0 0 0 0 0 0 0 0 0 0 0 0 0 0 0 0 0 0 0 0 0 0 0 0 0 0 0 0 0 0 0 0 0 0 0 0 0 0 0 0 0 0 0 0 0 0 0 0 0 0 0 0 0 0 0zm0 0l0 0 0 0c0,0 0,0 0,0z"/>
   <path class="fil47" d="M106 69c-1,0 -2,0 -3,-1 1,-1 1,-1 1,-2 0,0 0,0 1,0 0,1 0,1 1,1 0,0 1,0 1,-1 1,0 1,-2 0,-2 0,-1 -1,-1 -1,-1 0,0 0,0 0,0 0,-1 1,-1 1,-2 0,0 1,0 1,1 0,-1 0,-1 0,-1l0 1c2,1 2,4 0,5 -1,1 -2,2 -3,2 -1,0 -1,-1 -2,-1 1,1 2,1 3,1 1,0 2,0 3,-1 1,-1 1,-2 1,-3 0,1 0,2 -1,3 -1,1 -2,1 -3,1z"/>
   <path class="fil48" d="M147 1l0 0c0,0 0,0 0,0z"/>
   <path class="fil49" d="M113 63c0,-1 -1,-1 -1,-1 -1,-2 -2,-4 -3,-5l0 0c1,-2 2,-3 4,-5l0 0 5 0 1 0c-2,3 -4,7 -6,11l0 0zm3 -16c1,-2 1,-3 2,-4l5 -1 1 0c-1,2 -1,3 -2,4l0 0 -1 0 -5 1zm11 -17c8,-13 16,-24 20,-29 0,0 0,0 0,0l0 0 0 0 0 0 0 1c-2,4 -8,15 -16,27l0 0 -1 1 -3 0 0 0z"/>
   <path class="fil50" d="M146 1c0,0 0,0 0,-1l0 0c0,1 0,1 0,1z"/>
   <path class="fil51" d="M110 65c0,-1 0,-2 -1,-3 0,0 -1,0 -1,0 0,0 1,0 1,0 1,1 1,2 1,3z"/>
   <path class="fil52" d="M106 69c-1,0 -2,0 -3,-1 1,0 1,1 2,1 1,0 2,-1 3,-2 2,-1 2,-4 0,-5l0 -1c0,0 0,0 0,1 0,0 1,0 1,0 1,1 1,2 1,3 0,1 0,2 -1,3 -1,1 -2,1 -3,1z"/>
   <g style="clip-path:url(#id0)">
    <image x="103" y="62" width="6.68955" height="5.93282" xlink:href="scissors_Images\scissors_ImgID1.png"/>
   </g>
   <path class="fil53" d="M67 135l0 0 0 -1c0,-4 2,-8 5,-10 1,-1 1,-1 1,-1 1,0 2,-1 2,-1 -4,2 -8,7 -8,12l0 1 0 0z"/>
   <path class="fil54" d="M64 126c0,0 0,0 0,0 0,0 0,0 0,0l0 0 0 0z"/>
   <path class="fil55" d="M65 126l0 0c1,0 1,0 1,0 0,0 0,0 0,0l0 0 0 0 0 0 -1 0z"/>
   <path class="fil56" d="M66 126c0,0 0,0 0,0 0,0 0,0 0,0l0 0 0 0c0,0 0,0 0,0l0 0z"/>
   <path class="fil57" d="M67 126c0,0 0,0 -1,0l0 0c1,0 1,0 1,0z"/>
   <path class="fil58" d="M83 121c0,0 0,0 0,0 0,0 0,0 0,0l0 0zm0 0c0,0 0,0 0,0 0,0 0,0 0,0zm0 0c0,0 0,0 0,0 0,0 0,0 0,0zm0 0c-1,0 -2,0 -3,0 1,0 2,0 3,0z"/>
   <path class="fil59" d="M78 121c1,0 1,0 2,0l0 0c-1,0 -1,0 -2,0z"/>
   <path class="fil60" d="M92 76c0,0 1,-1 1,-2 0,0 0,1 0,1 0,1 -1,1 -1,1zm5 -6c0,-1 1,-3 2,-4 0,0 0,0 0,0 0,1 -1,2 -1,2 -1,1 -1,1 -1,1 0,0 0,1 0,1zm3 -5c0,-1 1,-1 1,-2 0,1 -1,1 -1,2 0,0 0,0 0,0zm3 -5c1,-1 2,-3 3,-4 0,0 -1,1 -1,2 -1,1 -1,1 -2,2zm6 -8c0,0 0,0 0,0 0,0 0,0 0,0 0,0 0,0 0,0zm6 -9c3,-4 6,-8 9,-12 -3,4 -6,8 -9,12 0,0 0,0 0,0zm9 -13c0,0 1,-1 1,-1 0,0 0,0 -1,1l0 0zm1 -2c1,-1 2,-2 3,-3 0,0 0,0 0,0 -1,1 -1,1 -2,2 0,0 0,1 -1,1zm4 -5c0,0 0,0 0,0 0,0 0,0 0,0zm0 0c0,0 0,-1 0,-1 0,0 0,1 0,1zm5 -7c0,0 0,0 0,0 0,0 0,0 0,0 0,0 0,0 0,0zm10 -14c0,-1 0,-1 1,-1l0 0c-1,0 -1,1 -1,1z"/>
   <path class="fil61" d="M146 0l0 0 0 0 0 0c0,0 0,0 0,0l0 0 0 0c0,0 0,0 0,0 0,0 0,0 0,0z"/>
   <path class="fil62" d="M145 0c0,0 0,0 0,0 0,0 0,0 0,0zm1 0l0 0 0 0 0 0c0,0 0,0 0,0l0 0 0 0zm-1 0c0,0 0,0 0,0l0 0z"/>
   <path class="fil63" d="M145 0l0 0c0,0 0,0 0,0 0,0 0,0 0,0z"/>
   <path class="fil64" d="M66 143c-1,-2 -1,-4 -1,-6 0,-1 0,-1 0,-2 0,-1 0,-2 0,-3 -2,-1 -3,-3 -3,-3l2 -3 0 0 0 0c0,0 0,0 0,0 1,0 1,0 1,0l0 0 1 0 0 0 0 0c0,0 0,0 0,0 0,0 0,0 0,0 1,0 1,0 1,0 1,0 1,-1 1,-1 5,-6 12,-7 16,-11 5,-6 9,-18 9,-28 0,-2 0,-3 0,-4 0,-2 0,-4 -1,-6 0,0 1,0 1,-1 0,0 0,-1 0,-1 1,-1 2,-2 4,-4 0,0 0,-1 0,-1 0,0 0,0 1,-1 0,0 1,-1 1,-2 0,0 0,0 0,0 0,0 1,-1 1,-1 0,0 0,0 0,0 0,-1 1,-1 1,-2 1,-1 1,-2 2,-3 1,-1 1,-1 2,-2 0,-1 1,-2 1,-2 1,-1 2,-3 3,-4 0,0 0,0 0,0l2 0c-1,3 -2,5 -2,5l0 0c0,1 -1,3 -2,4 0,0 -1,0 -1,0 -1,0 -2,0 -3,1 -2,2 -2,4 0,6 0,0 0,0 0,0 -3,6 -6,12 -7,16 -5,20 -5,24 -13,37 0,0 0,0 0,0 0,0 0,0 0,0 0,0 0,0 0,0 0,0 0,0 0,0 0,0 0,0 0,0 0,0 0,0 0,0 -1,0 -2,0 -3,0 0,0 0,0 0,0l0 0c0,0 0,0 0,0 0,0 0,0 0,0l0 0c-1,0 -1,0 -2,0 -1,0 -2,0 -3,1 0,0 -1,1 -2,1 0,0 0,0 -1,1 -3,2 -5,6 -5,10l0 1c0,1 -1,7 -1,8zm-1 -11l0 0zm-1 -6l0 0zm3 0l0 0zm25 -50l0 0zm17 -24c0,0 0,0 0,0 0,0 0,0 0,0zm0 0l0 0zm-26 69l0 0zm-3 0l0 0zm0 0l0 0zm-13 14l0 0zm46 -88c0,-1 1,-3 2,-4 0,0 0,0 0,0l2 0c-1,1 -2,2 -2,4l-2 0zm2 -4c3,-4 6,-8 9,-12 -3,4 -6,8 -9,12zm9 -12l0 0zm-9 16l0 0zm9 -17c0,0 0,0 0,0l0 0c1,-1 1,-1 1,-1 0,0 0,0 0,-1 1,0 1,-1 1,-1 1,-1 1,-1 2,-2 0,0 0,0 0,0 0,-1 0,-1 1,-2 0,0 0,0 0,0 0,0 0,0 0,0 0,0 0,-1 0,-1 2,-2 3,-4 5,-6 0,0 0,0 0,0 0,0 0,0 0,0 4,-7 8,-11 10,-14 0,0 0,-1 1,-1l0 0c0,0 0,0 0,-1 0,0 0,0 0,0 0,0 0,0 0,0l0 0c0,0 0,0 0,0l0 0c0,0 0,0 0,0 0,0 0,0 0,0 0,0 1,0 1,0 0,0 0,0 0,0l0 0 0 0 0 0 0 0 0 0c0,1 0,1 0,1 -4,6 -13,17 -20,29l-2 0zm21 -30l0 0zm0 0l0 0zm1 0l0 0zm-20 30l0 0z"/>
   <path class="fil65" d="M147 1l0 0c0,0 0,0 -1,0 1,0 1,0 1,0z"/>
   <path class="fil66" d="M147 1c0,0 0,0 0,0 0,0 0,0 0,0l0 0 0 0c0,0 0,0 0,0z"/>
   <path class="fil67" d="M103 68c0,0 0,0 0,0 -2,-2 -2,-4 0,-6 1,-1 2,-1 3,-1 0,0 1,0 1,0 0,1 -1,1 -1,2 -1,0 -1,0 -1,1 -1,0 -1,1 -1,2 0,1 0,1 -1,2z"/>
   <path class="fil68" d="M147 1l0 0 -1 -1c0,1 0,1 0,1 1,0 1,0 1,0z"/>
   <path class="fil69" d="M109 57l0 0c0,0 1,-2 2,-5l2 0c-2,2 -3,3 -4,5zm2 -5l0 0zm4 -5l0 0c0,-2 1,-3 2,-4l1 0 0 0c-1,1 -1,2 -2,4l0 0 -1 0zm2 -4l0 0zm9 -13l0 0c7,-12 16,-23 20,-29 0,0 0,0 0,-1l1 1 0 0c0,0 0,0 0,0 0,0 0,0 0,0 -4,5 -12,16 -20,29l-1 0zm20 -30l0 0z"/>
   <g style="clip-path:url(#id1)">
    <image x="103" y="62" width="4.5707" height="5.32743" xlink:href="scissors_Images\scissors_ImgID2.png"/>
   </g>
   <path class="fil70" d="M124 31c0,-1 0,-1 0,-1l0 0c0,0 0,0 0,1z"/>
   <path class="fil71" d="M118 43c3,-5 6,-9 9,-13l0 0 3 0 1 -1c-2,5 -4,9 -7,13l0 0 -1 0 -5 1z"/>
   <path class="fil72" d="M115 43c3,-4 6,-8 9,-12 0,-1 0,-1 0,-1l2 0c-3,4 -6,9 -9,13l0 0 -2 0z"/>
   <path class="fil73" d="M117 43l0 0c3,-4 6,-9 9,-13l0 0 1 0c-3,4 -6,8 -9,13l0 0 -1 0z"/>
   <path class="fil74" d="M109 52c1,-2 2,-4 4,-5l0 0c-2,1 -3,3 -4,5z"/>
   <path class="fil75" d="M113 52c1,-2 2,-4 3,-5l5 -1 1 0c-1,2 -2,4 -3,6l0 0 -1 0 -5 0 0 0z"/>
   <path class="fil76" d="M109 52c0,0 0,0 0,0 1,-2 2,-4 4,-5l2 0c-2,2 -3,3 -4,5l0 0 -2 0z"/>
   <path class="fil77" d="M111 52l0 0c1,-2 2,-3 4,-5l0 0 1 0 0 0c-1,1 -2,3 -3,5l-2 0z"/>
   <path class="fil78" d="M66 80l0 0 0 0 0 0 0 0 1 0 0 0c2,-1 5,-2 7,-2l0 0 0 0 0 0 1 0 0 0 0 0 0 0 0 0 0 0 0 0 0 0 0 0 -1 0 0 0 0 0 0 0c-2,0 -5,1 -7,2l0 0 -1 0 0 0 0 0 0 0 0 0zm9 -2l0 0zm-9 1l0 -2c3,-1 6,-3 9,-4l0 3c-3,1 -6,2 -9,3z"/>
   <path class="fil79" d="M66 80l0 -1c3,-1 6,-2 9,-3l0 2c-3,0 -6,1 -9,2 0,0 0,0 0,0z"/>
   <path class="fil80" d="M59 83c1,-1 2,-1 4,-2 -2,1 -3,1 -4,2zm0 -2l0 -2c1,0 3,-1 5,-2l0 2c-2,1 -4,1 -5,2z"/>
   <path class="fil81" d="M59 83l0 -2c1,-1 3,-1 5,-2l0 2 0 0c-1,0 -1,0 -1,0 -2,1 -3,1 -4,2 0,0 0,0 0,0z"/>
  </g>
 </g>
</svg>
